<svg xmlns="http://www.w3.org/2000/svg" xmlns:xlink="http://www.w3.org/1999/xlink" viewBox="0 0 615.01 418.59"><defs><style>.cls-1,.cls-25,.cls-26,.cls-27,.cls-28,.cls-29,.cls-30,.cls-32,.cls-33,.cls-34,.cls-36{fill:none;}.cls-2{isolation:isolate;}.cls-3{opacity:0.87;}.cls-4{fill:url(#linear-gradient);}.cls-5{clip-path:url(#clip-path);}.cls-6{fill:#fff;}.cls-7{fill:#d2f0ff;}.cls-8{fill:#ffdc8c;}.cls-9{fill:#fac855;}.cls-10{fill:#177d74;}.cls-11{fill:#1c9585;}.cls-12{opacity:0.72;}.cls-13{fill:#f0e1d3;}.cls-14{fill:url(#linear-gradient-2);}.cls-15{fill:#e69632;}.cls-16{fill:#32285f;}.cls-17{fill:#59bbf8;}.cls-18{fill:#2896ff;}.cls-19{fill:#fc8867;}.cls-20{fill:#a55a3c;}.cls-21{fill:#fc5954;}.cls-22{fill:#dc1428;}.cls-23{fill:#783c28;}.cls-24{opacity:0.53;mix-blend-mode:overlay;}.cls-25{stroke:#783c28;}.cls-25,.cls-26,.cls-27,.cls-28,.cls-29,.cls-30,.cls-32,.cls-33,.cls-34,.cls-36{stroke-miterlimit:10;}.cls-26,.cls-28{stroke:#32285f;}.cls-26{stroke-width:0.5px;}.cls-27{stroke:#e69632;}.cls-29{stroke:#fac855;}.cls-30{stroke:#d8c5b6;}.cls-31{fill:url(#linear-gradient-3);}.cls-32{stroke:#177d74;}.cls-33{stroke:#dc1428;}.cls-34{stroke:#f0e1d3;}.cls-35{fill:url(#linear-gradient-4);}.cls-36{stroke:#fff;}.cls-37{fill:url(#linear-gradient-5);}</style><linearGradient id="linear-gradient" x1="443.38" y1="228.12" x2="441.4" y2="30.62" gradientUnits="userSpaceOnUse"><stop offset="0" stop-color="#fff"/><stop offset="1" stop-color="#d2f0ff"/></linearGradient><clipPath id="clip-path" transform="translate(-128.5 -5.87)"><path class="cls-1" d="M652.17,224.74c-15.18-23.32-20.3-51.83-12.94-78.67a116.28,116.28,0,0,0,4.12-30.79c0-60.42-45.88-109.41-102.47-109.41a96.65,96.65,0,0,0-36.81,7.27,216.49,216.49,0,0,1-110.93,14.5,148.07,148.07,0,0,0-19.53-1.29c-83.54,0-151.27,69.65-151.27,155.58S290.07,337.5,373.61,337.5a149.12,149.12,0,0,0,21.68-1.58,132,132,0,0,1,70.61,9c19.61,8.29,42.49,13.05,66.94,13.05,72.62,0,131.49-42,131.49-93.81C664.33,250.1,660,236.74,652.17,224.74Z"/></clipPath><linearGradient id="linear-gradient-2" x1="540.99" y1="388.56" x2="488.76" y2="388.13" gradientUnits="userSpaceOnUse"><stop offset="0" stop-color="#ccc1ba" stop-opacity="0"/><stop offset="1" stop-color="#ccc1ba"/></linearGradient><linearGradient id="linear-gradient-3" x1="306.44" y1="364.48" x2="317.59" y2="352.67" gradientUnits="userSpaceOnUse"><stop offset="0" stop-color="#177d74" stop-opacity="0"/><stop offset="1" stop-color="#177d74"/></linearGradient><linearGradient id="linear-gradient-4" x1="430.94" y1="269.4" x2="400.99" y2="248.04" gradientUnits="userSpaceOnUse"><stop offset="0" stop-color="#dc1428" stop-opacity="0"/><stop offset="1" stop-color="#dc1428"/></linearGradient><linearGradient id="linear-gradient-5" x1="650.71" y1="216.12" x2="717.33" y2="329.99" xlink:href="#linear-gradient-3"/></defs><title>100</title><g class="cls-2"><g id="BACKGROUND" class="cls-3"><path class="cls-4" d="M652.17,224.74c-15.18-23.32-20.3-51.83-12.94-78.67a116.28,116.28,0,0,0,4.12-30.79c0-60.42-45.88-109.41-102.47-109.41a96.65,96.65,0,0,0-36.81,7.27,216.49,216.49,0,0,1-110.93,14.5,148.07,148.07,0,0,0-19.53-1.29c-83.54,0-151.27,69.65-151.27,155.58S290.07,337.5,373.61,337.5a149.12,149.12,0,0,0,21.68-1.58,132,132,0,0,1,70.61,9c19.61,8.29,42.49,13.05,66.94,13.05,72.62,0,131.49-42,131.49-93.81C664.33,250.1,660,236.74,652.17,224.74Z" transform="translate(-128.5 -5.87)"/><g class="cls-5"><path class="cls-6" d="M621,53.91c-4.92-15.16-21-25-36.76-22.58A37.36,37.36,0,0,1,557.47,25a26.44,26.44,0,0,0-38,9.08c-4.78,8.64-13.14,14.67-22.64,17.35a35.07,35.07,0,1,0,21.56,66.69,57.22,57.22,0,0,1,30.74-2.56,28.2,28.2,0,0,0,29.78-13.47A10,10,0,0,1,588,97l.63,0a9.68,9.68,0,0,1,9.35,9,31.87,31.87,0,1,0,41.83-32.43C630.69,70.53,623.94,63,621,53.91Z" transform="translate(-128.5 -5.87)"/><polygon class="cls-7" points="325.04 218.85 313.51 218.85 317.42 102.24 321.78 102.24 325.04 218.85"/><ellipse class="cls-7" cx="323.54" cy="104.39" rx="5.24" ry="7.56"/><path class="cls-7" d="M315.64,99.45h4.85a0,0,0,0,1,0,0v9.14a0,0,0,0,1,0,0h-4.85a4.29,4.29,0,0,1-4.29-4.29v-.57A4.29,4.29,0,0,1,315.64,99.45Z"/><path class="cls-7" d="M455.26,112.65l-34,40.41a.71.71,0,0,1-1,.08.69.69,0,0,1-.13-.91l28.68-44.34a4,4,0,1,1,6.73,4.35A3.81,3.81,0,0,1,455.26,112.65Z" transform="translate(-128.5 -5.87)"/><path class="cls-7" d="M454.34,104.74l35.94,38.69a.7.7,0,0,1-1,1l-40.49-33.9a4,4,0,1,1,5.15-6.15C454.1,104.5,454.23,104.62,454.34,104.74Z" transform="translate(-128.5 -5.87)"/><path class="cls-7" d="M448.11,109.33l-6.43-52.42a.7.7,0,0,1,1.37-.26L456,107.86a4,4,0,1,1-7.77,2A4.63,4.63,0,0,1,448.11,109.33Z" transform="translate(-128.5 -5.87)"/><polygon class="cls-7" points="369.77 228.99 358.96 228.99 362.63 119.62 366.72 119.62 369.77 228.99"/><ellipse class="cls-7" cx="368.37" cy="121.64" rx="4.91" ry="7.09"/><path class="cls-7" d="M494,131.45h-4.29a4.29,4.29,0,0,1-4.29-4.28h0a4.29,4.29,0,0,1,4.29-4.29H494Z" transform="translate(-128.5 -5.87)"/><path class="cls-7" d="M499.11,130.83l-37.48,21.33a.7.7,0,0,1-.79-1.16l33.79-26.8a4,4,0,0,1,5,6.29C499.46,130.61,499.27,130.73,499.11,130.83Z" transform="translate(-128.5 -5.87)"/><path class="cls-7" d="M499.2,122.15l33.56,36.44a.69.69,0,0,1,0,1,.7.7,0,0,1-.92,0L493.69,128a4,4,0,1,1,5.12-6.17Z" transform="translate(-128.5 -5.87)"/><path class="cls-7" d="M492.88,125.7l6.3-47.4a.7.7,0,0,1,.79-.6.72.72,0,0,1,.61.69l.28,47.81a4,4,0,0,1-8,0A3.31,3.31,0,0,1,492.88,125.7Z" transform="translate(-128.5 -5.87)"/><polygon class="cls-7" points="401.44 222.08 390.63 222.08 394.3 112.71 398.39 112.71 401.44 222.08"/><path class="cls-7" d="M533.45,120.61c0,3.92-2.2,7.09-4.91,7.09s-4.92-3.17-4.92-7.09,2.2-7.09,4.92-7.09S533.45,116.69,533.45,120.61Z" transform="translate(-128.5 -5.87)"/><path class="cls-7" d="M525.68,124.55h-4.29a4.29,4.29,0,0,1-4.29-4.29h0a4.29,4.29,0,0,1,4.29-4.29h4.29Z" transform="translate(-128.5 -5.87)"/><path class="cls-7" d="M524.38,125.89l-45.71-19.13a.7.7,0,0,1,.46-1.32L527,118.32a4,4,0,1,1-2.09,7.74A4.2,4.2,0,0,1,524.38,125.89Z" transform="translate(-128.5 -5.87)"/><path class="cls-7" d="M531.73,119.82l8.84,41.56a.7.7,0,0,1-1.34.39l-15.17-39.68a4,4,0,1,1,7.49-2.87A4.56,4.56,0,0,1,531.73,119.82Z" transform="translate(-128.5 -5.87)"/><path class="cls-7" d="M525.28,118.11l45.13-20.44a.7.7,0,0,1,.66,1.24l-42,26.25a4,4,0,1,1-4.25-6.8C525,118.27,525.13,118.18,525.28,118.11Z" transform="translate(-128.5 -5.87)"/><path class="cls-8" d="M202.49,292.05a38.41,38.41,0,0,1,29.43-34c54-12.76,221.14-36.7,323.76-50.88a211.32,211.32,0,0,1,141.69,30.27l1.2.76a67,67,0,0,1,31.51,56.82h0a67,67,0,0,1-71.45,66.83L238.19,333.79a38.4,38.4,0,0,1-35.7-41.74Z" transform="translate(-128.5 -5.87)"/><path class="cls-9" d="M694.23,419.47H195.52V228.89s274.4,21.6,362.69,45.1C732.54,320.41,694.23,419.47,694.23,419.47Z" transform="translate(-128.5 -5.87)"/><path class="cls-8" d="M163.46,231.9c2.92-.13,5.6-.2,8.37-.27l8.22-.16c5.46-.09,10.92-.12,16.37-.13,10.9,0,21.78.15,32.65.38q32.63.78,65.14,3t64.89,6l8.09.94,8.08,1c5.38.72,10.77,1.35,16.14,2.19l16.11,2.39L423.6,250l4,.67,4,.74,8,1.49,8,1.48c2.67.51,5.32,1.09,8,1.64,5.31,1.12,10.64,2.16,15.94,3.34L487.45,263c2.65.58,5.29,1.26,7.92,1.94l7.89,2,7.89,2c2.63.7,5.24,1.47,7.85,2.21,5.22,1.51,10.47,2.92,15.66,4.51l15.55,4.91c1.29.42,2.6.8,3.88,1.24l3.85,1.35,7.7,2.69,7.69,2.7c2.55.94,5.07,1.95,7.61,2.93l7.6,3c2.52,1,5.08,1.91,7.56,3l15,6.46a496.48,496.48,0,0,1,57.53,30.62l-3.62,6a488.38,488.38,0,0,0-57.77-27.47l-15-5.66c-2.48-1-5-1.77-7.56-2.64l-7.58-2.56c-2.53-.84-5.05-1.72-7.59-2.54l-7.67-2.3-7.66-2.29L550.36,294c-1.28-.39-2.58-.7-3.87-1.05L531,288.79c-5.16-1.33-10.38-2.48-15.57-3.73-2.6-.61-5.18-1.25-7.79-1.82l-7.84-1.64L492,280c-2.61-.56-5.22-1.1-7.85-1.56l-15.75-2.89c-5.26-.92-10.54-1.71-15.81-2.58-2.64-.41-5.27-.87-7.91-1.24l-7.93-1.11-7.94-1.1-4-.55-4-.48-15.9-1.9L389,264.93c-5.31-.58-10.64-1-16-1.43l-8-.68-8-.56q-32-2.28-64-3t-64-.07c-10.66.26-21.32.57-31.95,1.07-5.31.25-10.62.52-15.92.85l-7.92.51c-2.6.19-5.31.39-7.76.61Z" transform="translate(-128.5 -5.87)"/><path class="cls-8" d="M128.5,280.9a16.05,16.05,0,0,1,2.36-3.16,19.29,19.29,0,0,1,2.47-2.11,17.64,17.64,0,0,1,2.31-1.32c.5-.24.51-.23.74-.33l.56-.22c.35-.13.81-.3,1.08-.38l1.36-.38,1-.22c.36-.08.61-.12.87-.16l.8-.14,1.39-.19c1.75-.23,3.28-.36,4.79-.47,3-.22,5.83-.34,8.66-.43,5.64-.18,11.16-.24,16.67-.24,11,0,21.93.26,32.84.63,21.8.75,43.52,2,65.2,3.73,43.35,3.41,86.55,8.45,129.45,15.54s85.5,16.28,127.14,29.17a534,534,0,0,1,61.25,22.92c19.87,9,39.21,19.57,56.71,32.87L642,381.67c-17.46-12.07-36.71-21.47-56.48-29.4a522.15,522.15,0,0,0-60.9-19.7c-41.38-10.79-83.72-17.88-126.25-23s-85.35-8.12-128.16-9.55c-21.41-.7-42.82-1-64.17-.77-10.67.12-21.33.37-31.89.83-5.27.24-10.53.53-15.67.93-2.56.2-5.11.43-7.47.71-1.18.14-2.34.3-3.25.46l-.61.12-.2,0c-.06,0-.15,0-.12,0h0l.39-.1.6-.2.32-.13.51-.23a13.35,13.35,0,0,0,1.87-1.08,17.19,17.19,0,0,0,2.28-1.95,13.8,13.8,0,0,0,2.18-3Z" transform="translate(-128.5 -5.87)"/><path class="cls-8" d="M157.09,315.78c5.58.14,10.92.34,16.36.56l16.22.73q16.2.8,32.36,1.86,32.34,2.1,64.58,5.13c43,4.05,85.87,9.3,128.5,16.29s85,15.7,126.68,27.58a616.1,616.1,0,0,1,61.51,20.95c20.07,8.19,39.76,17.65,58,29.66l-3.73,5.92c-18.18-10.83-37.79-19.19-57.78-26.3a607,607,0,0,0-61.24-17.81c-41.45-9.82-83.66-16.47-126-21.49s-85-8.25-127.63-10.33q-32-1.54-64-2.16-16-.31-32-.39h-16c-5.29,0-10.68.07-15.84.18Z" transform="translate(-128.5 -5.87)"/><path class="cls-6" d="M376.08,101.7a47.71,47.71,0,0,1-24.47-18.54,33.91,33.91,0,0,0-42-12.24c-11.41,5.09-24.31,6.16-36,1.69a50.13,50.13,0,0,0-38.17,92.67c11,4.88,20.26,13.2,25.36,24.13a44.9,44.9,0,0,0,77.72,6.37,40.65,40.65,0,0,1,29.09-17.16,39.66,39.66,0,0,0,8.46-76.92Z" transform="translate(-128.5 -5.87)"/><path class="cls-10" d="M295.39,200.4l53.69,145.85C339.28,243.31,295.39,200.4,295.39,200.4Z" transform="translate(-128.5 -5.87)"/><path class="cls-11" d="M307.65,237l6,96.23C322.54,283.13,307.65,237,307.65,237Z" transform="translate(-128.5 -5.87)"/><path class="cls-10" d="M424.78,244.21l6,96.22C439.68,290.36,424.78,244.21,424.78,244.21Z" transform="translate(-128.5 -5.87)"/><path class="cls-11" d="M276.13,239.17l15.66,83.42C299.27,277,276.13,239.17,276.13,239.17Z" transform="translate(-128.5 -5.87)"/><path class="cls-11" d="M338.37,345.35l6.09-115.09S327.8,274.81,338.37,345.35Z" transform="translate(-128.5 -5.87)"/><path class="cls-11" d="M420.64,344.13l13.84-73.56S419.23,295,420.64,344.13Z" transform="translate(-128.5 -5.87)"/><path class="cls-10" d="M608.76,377.88l33.35-129.69S607.88,306,608.76,377.88Z" transform="translate(-128.5 -5.87)"/><path class="cls-10" d="M608.74,232.6l-3.06,128.29C631.22,293.11,608.74,232.6,608.74,232.6Z" transform="translate(-128.5 -5.87)"/><path class="cls-10" d="M479.27,297.42v70.86C489.16,334.52,479.27,297.42,479.27,297.42Z" transform="translate(-128.5 -5.87)"/></g><path class="cls-9" d="M263.22,271.33c-2.06-9.61-4.6-20.53-7.64-31.88-12.75-47.63-27.6-79.71-44.14-95.37l-2.06,2.18c25.41,24.05,42.19,85.56,50.74,125.07Z" transform="translate(-128.5 -5.87)"/><path class="cls-9" d="M244.11,218.82a15.56,15.56,0,0,0-5.39-1.87,16.6,16.6,0,0,1-11.48-7.83c-4.67-7.7-11.28-18.62-19.53-23.22,10.1,6.39,17.24,23.23,21.59,30,1,1.65,2,3.32,2.94,5.05a17.75,17.75,0,0,0,6.39,7.13c5.92,3.48,13.45,1.65,13.45,1.65S250,222.31,244.11,218.82Z" transform="translate(-128.5 -5.87)"/><path class="cls-9" d="M240.05,205.08a14.32,14.32,0,0,0-6.29-1.83,13,13,0,0,1-9.34-5.18l0,0c-1.89-2.48-3.83-4.92-5.87-7.28s-4.12-4.66-6.36-6.83a61.07,61.07,0,0,0-7.11-6l0,.08a61.5,61.5,0,0,1,6.76,6.35c2.1,2.26,4.05,4.66,5.95,7.1s3.7,5,5.44,7.5,5.25,8.07,5.25,8.07a16.4,16.4,0,0,0,6.18,7.4c5.57,3.28,12.82,1.28,12.82,1.28S245.61,208.35,240.05,205.08Z" transform="translate(-128.5 -5.87)"/><path class="cls-9" d="M235.76,192.42a11.62,11.62,0,0,0-5.23-1.48,10.9,10.9,0,0,1-7.9-4c-2.06-2.58-4.2-5.11-6.42-7.56q-2.81-3.12-5.91-6a28.11,28.11,0,0,0-6.81-4.86h0a27.74,27.74,0,0,1,6.46,5.21c1.93,2,3.77,4.08,5.5,6.26,3,3.76,5.87,7.69,8.55,11.7,0,0,1.28,7.05,6.29,10s11.8.69,11.8.69S240.77,195.37,235.76,192.42Z" transform="translate(-128.5 -5.87)"/><path class="cls-9" d="M232,179.45a10,10,0,0,0-4.36-1.27,16.05,16.05,0,0,1-9.6-3.84c-.63-.56-1.27-1.11-1.91-1.66-2.43-2.07-4.93-4.07-7.51-6a81.25,81.25,0,0,0-8-5.22,36.8,36.8,0,0,0-8.81-3.69,36.36,36.36,0,0,1,8.59,4.07,80.51,80.51,0,0,1,7.73,5.53c2.47,2,4.86,4.08,7.18,6.24q1.78,1.68,3.53,3.42a15.87,15.87,0,0,1,3.53,5.26,11.81,11.81,0,0,0,4.57,5.79c4.49,2.64,10.68.45,10.68.45S236.51,182.09,232,179.45Z" transform="translate(-128.5 -5.87)"/><path class="cls-9" d="M225.06,165.08a12.58,12.58,0,0,0-6.65-1.51,10.53,10.53,0,0,1-6.63-2.18,44.09,44.09,0,0,0-5.66-3.81,54.91,54.91,0,0,0-17.82-6.49,54.18,54.18,0,0,1,17.29,7.34,45.28,45.28,0,0,1,5.67,4.29,19.4,19.4,0,0,1,4.5,5.61,12.42,12.42,0,0,0,4.47,4.95c4.7,2.76,10.91.9,10.91.9S229.75,167.84,225.06,165.08Z" transform="translate(-128.5 -5.87)"/><path class="cls-9" d="M217,145.69a14.77,14.77,0,0,0-7.79-3.53,15,15,0,0,1-5.54-2.15c-.88-.56-1.77-1.1-2.68-1.62a69.06,69.06,0,0,0-8-4,62,62,0,0,0-8.43-2.86,61.09,61.09,0,0,1,8.22,3.31,70,70,0,0,1,7.68,4.37l.46.3a17.09,17.09,0,0,1,6.4,8.2,13.14,13.14,0,0,0,3.12,4.86c4.22,4,10.91,3.78,10.91,3.78S221.26,149.69,217,145.69Z" transform="translate(-128.5 -5.87)"/><path class="cls-9" d="M218.94,153.05a8.94,8.94,0,0,0-5-1,15.27,15.27,0,0,1-7.8-1.62l-.73-.37c-2.22-1.1-4.49-2.12-6.8-3a62.39,62.39,0,0,0-7.07-2.24,36.47,36.47,0,0,0-7.33-1,35.15,35.15,0,0,1,7.19,1.46,57.1,57.1,0,0,1,6.82,2.68c2.21,1,4.37,2.18,6.47,3.41l.89.53a13.62,13.62,0,0,1,5.23,5.57,8.74,8.74,0,0,0,3.28,3.8c3.91,2.3,9.49.07,9.49.07S222.85,155.35,218.94,153.05Z" transform="translate(-128.5 -5.87)"/><path class="cls-9" d="M231.06,155.89c-.33-2.78-4.87-12.09-16.75-20.82-3-2.19-7.13-3.82-10.53-5.21a59,59,0,0,0-10.53-3.21,58,58,0,0,1,10.33,3.67,57.06,57.06,0,0,1,9.42,5.49,37.29,37.29,0,0,1,9.06,9,7.23,7.23,0,0,1,.52,7.4,8.77,8.77,0,0,0-1,4.78c.53,4.5,5.69,7.6,5.69,7.6S231.59,160.4,231.06,155.89Z" transform="translate(-128.5 -5.87)"/><path class="cls-9" d="M237.74,159.25a45.85,45.85,0,0,0-3.79-11.5,78.26,78.26,0,0,0-4.26-7.92,81.21,81.21,0,0,0-5.06-7.4,82.73,82.73,0,0,1,4.63,7.65,76.73,76.73,0,0,1,3.77,8.07c.64,1.63,1.21,3.26,1.7,4.91a7.64,7.64,0,0,1-2.25,7.76,11.28,11.28,0,0,0-3.06,4.45c-1.74,5,1.33,10.62,1.33,10.62s5.91-2.48,7.66-7.49C239.61,165,238.53,161.25,237.74,159.25Z" transform="translate(-128.5 -5.87)"/><path class="cls-9" d="M244.82,172.35a66.26,66.26,0,0,0-2.35-12.78c-.82-3-1.74-6-2.78-8.94s-2.13-5.86-3.34-8.73c1.06,2.93,2,5.9,2.87,8.88s1.63,6,2.28,9c.42,1.91.73,3.63,1,5.22a8.39,8.39,0,0,1-2.93,7.79,10.38,10.38,0,0,0-3.26,4.28c-1.75,4.7,1.28,10.17,1.28,10.17s5.88-2.14,7.63-6.83C246.27,177.55,245.55,174.38,244.82,172.35Z" transform="translate(-128.5 -5.87)"/><path class="cls-9" d="M251.46,182.82a54.54,54.54,0,0,0-1.09-11.31,81,81,0,0,0-2.61-9.51,77.48,77.48,0,0,0-3.74-9.09,75.59,75.59,0,0,1,3.26,9.24,78.32,78.32,0,0,1,2.1,9.53c.05.32.09.64.13,1a15.4,15.4,0,0,1-4.6,13.13,13.45,13.45,0,0,0-3.2,4.51c-2.42,5.82.61,12.61.61,12.61s6.94-2.65,9.36-8.47C253.54,190,252.18,184.92,251.46,182.82Z" transform="translate(-128.5 -5.87)"/><path class="cls-9" d="M258.7,197.77a61,61,0,0,0-1.05-14.13c-.63-3.64-1.45-7.23-2.38-10.79s-2-7.09-3.19-10.56c1,3.52,1.92,7.09,2.7,10.67s1.42,7.2,1.88,10.83c.23,1.84.42,3.69.53,5.55a9.65,9.65,0,0,1-4.42,8.77,13.28,13.28,0,0,0-4.61,4.66c-2.92,5.33-.57,12.25-.57,12.25s7.1-1.72,10-7.05C259.57,204.44,259.18,200.21,258.7,197.77Z" transform="translate(-128.5 -5.87)"/><path class="cls-9" d="M265,208.08c-.13-3.5-.47-9-.84-13.63-.3-3.79-.79-7.56-1.38-11.3s-1.3-7.48-2.15-11.17c.68,3.73,1.22,7.48,1.65,11.23s.75,7.53.88,11.3c.07,2,.1,4,0,6.06a11.81,11.81,0,0,1-5.16,9.3,15.56,15.56,0,0,0-4.83,5.17c-3.23,5.88-1.12,13.24-1.12,13.24s7.35-2.16,10.58-8C265,216,265.12,211,265,208.08Z" transform="translate(-128.5 -5.87)"/><path class="cls-9" d="M287.06,262.64c0-1.25-2.9-160.55-36-202.06l2.34-1.87c14.21,17.81,24.46,51.65,30.45,100.58,4.46,36.33,5.88,103,5.88,103.35Z" transform="translate(-128.5 -5.87)"/><path class="cls-9" d="M275.34,137.27a15.38,15.38,0,0,0-5.07-2.6A16.6,16.6,0,0,1,260,125.32c-3.55-8.27-8.58-20-16.11-25.71,9.11,7.73,13.84,25.4,17.2,32.76q1.21,2.65,2.21,5.41a17.67,17.67,0,0,0,5.34,7.94c5.37,4.27,13.09,3.51,13.09,3.51S280.72,141.54,275.34,137.27Z" transform="translate(-128.5 -5.87)"/><path class="cls-9" d="M273.24,123.09a14.54,14.54,0,0,0-6-2.68,13,13,0,0,1-8.53-6.43l0-.06c-1.53-2.71-3.11-5.4-4.8-8s-3.44-5.2-5.35-7.66a61.06,61.06,0,0,0-6.2-7l-.06.06a62.12,62.12,0,0,1,5.81,7.23c1.76,2.54,3.36,5.18,4.91,7.86s3,5.42,4.34,8.18,4.08,8.72,4.08,8.72a16.3,16.3,0,0,0,5.09,8.19c5.06,4,12.51,3.05,12.51,3.05S278.29,127.11,273.24,123.09Z" transform="translate(-128.5 -5.87)"/><path class="cls-9" d="M270.75,110a11.51,11.51,0,0,0-5-2.2,10.91,10.91,0,0,1-7.27-5.07c-1.69-2.85-3.45-5.64-5.31-8.38-1.56-2.32-3.24-4.57-5-6.72a27.88,27.88,0,0,0-6.07-5.76h0a27.9,27.9,0,0,1,5.67,6.06c1.64,2.24,3.16,4.56,4.58,7,2.47,4.16,4.74,8.44,6.84,12.78,0,0,.29,7.16,4.84,10.78s11.59,2.31,11.59,2.31S275.3,113.58,270.75,110Z" transform="translate(-128.5 -5.87)"/><path class="cls-9" d="M268.85,96.6a9.84,9.84,0,0,0-4.14-1.86,16.11,16.11,0,0,1-9-5.15c-.55-.64-1.1-1.27-1.66-1.9-2.12-2.39-4.31-4.72-6.61-6.94a79.82,79.82,0,0,0-7.23-6.29A36.48,36.48,0,0,0,232,69.58,36.09,36.09,0,0,1,240,74.8a78.87,78.87,0,0,1,6.88,6.55c2.18,2.31,4.25,4.71,6.24,7.18,1,1.27,2,2.57,3,3.88a16.2,16.2,0,0,1,2.77,5.69,11.73,11.73,0,0,0,3.72,6.37c4.07,3.24,10.5,1.93,10.5,1.93S272.93,99.84,268.85,96.6Z" transform="translate(-128.5 -5.87)"/><path class="cls-9" d="M264,81.4A12.51,12.51,0,0,0,257.58,79a10.49,10.49,0,0,1-6.26-3.08,45.1,45.1,0,0,0-5.08-4.56,54.82,54.82,0,0,0-16.75-8.9,54.14,54.14,0,0,1,16.11,9.67,45.21,45.21,0,0,1,5,5,19.26,19.26,0,0,1,3.68,6.19A12.41,12.41,0,0,0,258,88.85c4.27,3.39,10.68,2.41,10.68,2.41S268.22,84.79,264,81.4Z" transform="translate(-128.5 -5.87)"/><path class="cls-9" d="M258.71,61.09a14.81,14.81,0,0,0-7.23-4.59,14.9,14.9,0,0,1-5.18-2.9q-1.2-1-2.43-2a70.91,70.91,0,0,0-7.36-5,63.56,63.56,0,0,0-7.95-4A61.41,61.41,0,0,1,236.24,47a70.46,70.46,0,0,1,7,5.4l.41.36a17.17,17.17,0,0,1,5.2,9A13.07,13.07,0,0,0,251.26,67c3.62,4.55,10.28,5.27,10.28,5.27S262.33,65.63,258.71,61.09Z" transform="translate(-128.5 -5.87)"/><path class="cls-9" d="M259.56,68.63a8.87,8.87,0,0,0-4.78-1.7,15.37,15.37,0,0,1-7.51-2.69l-.67-.47c-2-1.4-4.14-2.73-6.3-3.93a60.5,60.5,0,0,0-6.7-3.21,36.2,36.2,0,0,0-7.12-2,35.77,35.77,0,0,1,6.92,2.44,61.43,61.43,0,0,1,6.38,3.6c2.05,1.34,4,2.78,5.93,4.29l.81.64a13.64,13.64,0,0,1,4.4,6.24,8.75,8.75,0,0,0,2.72,4.22c3.55,2.83,9.4,1.39,9.4,1.39S263.12,71.46,259.56,68.63Z" transform="translate(-128.5 -5.87)"/><path class="cls-9" d="M271.17,73.14c.07-2.8-3.14-12.66-13.69-23-2.65-2.58-6.53-4.78-9.71-6.63a58.61,58.61,0,0,0-10-4.64A58.55,58.55,0,0,1,247.51,44a56.59,56.59,0,0,1,8.57,6.75,37.26,37.26,0,0,1,7.72,10.19,7.24,7.24,0,0,1-.51,7.4,8.69,8.69,0,0,0-1.63,4.6c-.1,4.53,4.57,8.32,4.57,8.32S271.07,77.67,271.17,73.14Z" transform="translate(-128.5 -5.87)"/><path class="cls-9" d="M277.32,77.39a45.92,45.92,0,0,0-2.15-11.91A78.24,78.24,0,0,0,272.05,57a82.08,82.08,0,0,0-4-8,85,85,0,0,1,3.52,8.22,77.31,77.31,0,0,1,2.61,8.51c.4,1.71.75,3.4,1,5.1a7.65,7.65,0,0,1-3.31,7.38,11.19,11.19,0,0,0-3.64,4c-2.42,4.71-.16,10.71-.16,10.71s6.2-1.64,8.62-6.35C278.37,83.32,277.83,79.48,277.32,77.39Z" transform="translate(-128.5 -5.87)"/><path class="cls-9" d="M282.52,91.35a67.24,67.24,0,0,0-.56-13q-.58-4.65-1.51-9.24c-.61-3.05-1.29-6.09-2.09-9.1.64,3,1.15,6.11,1.6,9.19s.79,6.16,1,9.25c.15,2,.22,3.7.24,5.3a8.41,8.41,0,0,1-4,7.31,10.28,10.28,0,0,0-3.82,3.79c-2.4,4.4-.16,10.24-.16,10.24s6.12-1.3,8.52-5.7C283.23,96.7,283,93.45,282.52,91.35Z" transform="translate(-128.5 -5.87)"/><path class="cls-9" d="M287.63,102.64a53.8,53.8,0,0,0,.49-11.35,80.14,80.14,0,0,0-1.26-9.79A77.7,77.7,0,0,0,284.42,72a77.17,77.17,0,0,1,1.95,9.61,79.37,79.37,0,0,1,.75,9.73v1a15.42,15.42,0,0,1-6.39,12.36,13.3,13.3,0,0,0-3.79,4c-3.2,5.42-1.15,12.57-1.15,12.57s7.24-1.66,10.45-7.09C288.7,110,288.06,104.82,287.63,102.64Z" transform="translate(-128.5 -5.87)"/><path class="cls-9" d="M292.72,118.45a61.9,61.9,0,0,0,.93-14.14c-.12-3.69-.44-7.36-.86-11s-1-7.29-1.69-10.9c.54,3.64.92,7.29,1.19,11s.41,7.33.36,11c0,1.86-.1,3.72-.25,5.57a9.66,9.66,0,0,1-5.6,8.07,13.22,13.22,0,0,0-5.21,4C278,126.81,279.32,134,279.32,134s7.28-.72,10.92-5.58C292.65,125.18,292.86,120.94,292.72,118.45Z" transform="translate(-128.5 -5.87)"/><path class="cls-9" d="M297.53,129.54c.36-3.49.78-9,1.06-13.62.23-3.79.27-7.59.21-11.38s-.26-7.58-.58-11.36c.16,3.79.17,7.57.08,11.35s-.31,7.56-.7,11.31c-.22,2-.47,4-.81,6a11.8,11.8,0,0,1-6.41,8.5,15.57,15.57,0,0,0-5.49,4.45c-4,5.37-3,13-3,13s7.58-1.12,11.6-6.5C296.46,137.34,297.23,132.49,297.53,129.54Z" transform="translate(-128.5 -5.87)"/><path class="cls-9" d="M277.37,273.65c-.06-12.71-.49-32.13-2.25-53.21-4.09-49.14-13-83.35-26.52-101.69l-2.42,1.78c24.91,33.83,28,118.56,28.17,153.12Z" transform="translate(-128.5 -5.87)"/><path class="cls-9" d="M267.49,198.1a15.57,15.57,0,0,0-5-2.8,16.59,16.59,0,0,1-9.91-9.74c-3.23-8.4-7.79-20.33-15.1-26.32,8.81,8.09,12.85,25.92,15.92,33.41q1.11,2.7,2,5.49a17.53,17.53,0,0,0,5,8.14c5.21,4.48,12.95,4,12.95,4S272.7,202.58,267.49,198.1Z" transform="translate(-128.5 -5.87)"/><path class="cls-9" d="M265.94,183.85a14.44,14.44,0,0,0-5.87-2.91,13,13,0,0,1-8.27-6.76l0-.06c-1.43-2.77-2.9-5.51-4.48-8.19s-3.24-5.32-5-7.86a61.87,61.87,0,0,0-5.93-7.19l-.07.07a61.55,61.55,0,0,1,5.53,7.44c1.66,2.6,3.16,5.31,4.6,8s2.76,5.54,4,8.35,3.74,8.88,3.74,8.88A16.35,16.35,0,0,0,258.9,192c4.89,4.21,12.38,3.53,12.38,3.53S270.83,188.07,265.94,183.85Z" transform="translate(-128.5 -5.87)"/><path class="cls-9" d="M264,170.64a11.66,11.66,0,0,0-4.88-2.39A10.88,10.88,0,0,1,252,162.9q-2.35-4.36-5-8.57-2.22-3.57-4.76-6.92a28.12,28.12,0,0,0-5.84-6h0a27.67,27.67,0,0,1,5.44,6.28q2.32,3.45,4.3,7.13c2.31,4.24,4.41,8.61,6.34,13,0,0,0,7.17,4.41,10.95s11.5,2.77,11.5,2.77S268.37,174.43,264,170.64Z" transform="translate(-128.5 -5.87)"/><path class="cls-9" d="M262.59,157.21a10,10,0,0,0-4.08-2,16.13,16.13,0,0,1-8.76-5.49c-.53-.66-1.05-1.32-1.59-2-2-2.47-4.13-4.88-6.33-7.19a80.35,80.35,0,0,0-7-6.57,36.52,36.52,0,0,0-8-5.19,36.29,36.29,0,0,1,7.73,5.52,78.9,78.9,0,0,1,6.62,6.82c2.09,2.39,4.06,4.87,6,7.41q1.47,2,2.87,4a16.05,16.05,0,0,1,2.55,5.8,11.72,11.72,0,0,0,3.47,6.5c3.94,3.4,10.42,2.34,10.42,2.34S266.53,160.61,262.59,157.21Z" transform="translate(-128.5 -5.87)"/><path class="cls-9" d="M258.28,141.83a12.55,12.55,0,0,0-6.28-2.66,10.55,10.55,0,0,1-6.13-3.32,44.68,44.68,0,0,0-4.9-4.76,54.9,54.9,0,0,0-16.39-9.55,54.36,54.36,0,0,1,15.72,10.3,44.37,44.37,0,0,1,4.81,5.22,19.36,19.36,0,0,1,3.44,6.32,12.5,12.5,0,0,0,3.53,5.67c4.12,3.55,10.57,2.82,10.57,2.82S262.41,145.38,258.28,141.83Z" transform="translate(-128.5 -5.87)"/><path class="cls-9" d="M253.83,121.33a14.89,14.89,0,0,0-7.05-4.86,14.93,14.93,0,0,1-5.06-3.1c-.77-.71-1.55-1.4-2.35-2.07a71.46,71.46,0,0,0-7.16-5.33,62.9,62.9,0,0,0-7.79-4.31,62.27,62.27,0,0,1,7.5,4.72,68.09,68.09,0,0,1,6.78,5.67l.4.37a17.12,17.12,0,0,1,4.85,9.21,13,13,0,0,0,2.21,5.33c3.44,4.68,10.06,5.66,10.06,5.66S257.27,126,253.83,121.33Z" transform="translate(-128.5 -5.87)"/><path class="cls-9" d="M254.39,128.9a8.76,8.76,0,0,0-4.72-1.88,15.39,15.39,0,0,1-7.39-3l-.65-.49c-2-1.48-4-2.88-6.15-4.17a61.51,61.51,0,0,0-6.57-3.47,35.63,35.63,0,0,0-7-2.25,35,35,0,0,1,6.82,2.71,59.31,59.31,0,0,1,6.24,3.84c2,1.41,3.91,2.93,5.76,4.51l.78.68a13.64,13.64,0,0,1,4.16,6.41,8.84,8.84,0,0,0,2.55,4.32c3.44,3,9.34,1.75,9.34,1.75S257.83,131.86,254.39,128.9Z" transform="translate(-128.5 -5.87)"/><path class="cls-9" d="M265.81,133.86c.18-2.8-2.64-12.77-12.79-23.47-2.55-2.68-6.33-5-9.44-7a57.65,57.65,0,0,0-9.79-5,58.55,58.55,0,0,1,9.52,5.44,57.77,57.77,0,0,1,8.29,7.07,37.41,37.41,0,0,1,7.32,10.49,7.24,7.24,0,0,1-.8,7.38,8.67,8.67,0,0,0-1.8,4.52c-.28,4.53,4.24,8.5,4.24,8.5S265.54,138.39,265.81,133.86Z" transform="translate(-128.5 -5.87)"/><path class="cls-9" d="M271.8,138.34a46.09,46.09,0,0,0-1.69-12,81.46,81.46,0,0,0-2.79-8.56,84.37,84.37,0,0,0-3.67-8.18,83.49,83.49,0,0,1,3.2,8.35,78.55,78.55,0,0,1,2.28,8.61c.33,1.72.61,3.43.8,5.14a7.64,7.64,0,0,1-3.59,7.24,11.23,11.23,0,0,0-3.8,3.83c-2.6,4.61-.57,10.69-.57,10.69s6.25-1.4,8.86-6C272.62,144.31,272.22,140.45,271.8,138.34Z" transform="translate(-128.5 -5.87)"/><path class="cls-9" d="M276.44,152.5a66.44,66.44,0,0,0-.05-13q-.4-4.68-1.15-9.29c-.49-3.08-1.05-6.15-1.73-9.18.52,3.06.91,6.15,1.24,9.24s.54,6.19.65,9.28c.07,2,.07,3.71,0,5.31a8.42,8.42,0,0,1-4.27,7.15,10.35,10.35,0,0,0-4,3.64c-2.56,4.3-.55,10.23-.55,10.23s6.17-1.06,8.73-5.37C276.94,157.86,276.79,154.61,276.44,152.5Z" transform="translate(-128.5 -5.87)"/><path class="cls-9" d="M281.11,164a54.36,54.36,0,0,0,.94-11.33,78.41,78.41,0,0,0-.89-9.82,76,76,0,0,0-2.06-9.61,77,77,0,0,1,1.57,9.67,81.59,81.59,0,0,1,.38,9.75c0,.32,0,.65-.05,1a15.39,15.39,0,0,1-6.86,12.11,13.15,13.15,0,0,0-3.94,3.86c-3.42,5.3-1.64,12.52-1.64,12.52s7.3-1.38,10.71-6.68C281.89,171.36,281.45,166.17,281.11,164Z" transform="translate(-128.5 -5.87)"/><path class="cls-9" d="M285.59,180a61.59,61.59,0,0,0,1.47-14.09c0-3.69-.15-7.38-.43-11s-.7-7.33-1.26-11c.39,3.65.63,7.32.76,11s.12,7.34-.07,11c-.1,1.85-.24,3.71-.46,5.55a9.69,9.69,0,0,1-5.91,7.86,13.08,13.08,0,0,0-5.36,3.77C270.5,187.75,271.6,195,271.6,195s7.29-.43,11.12-5.15C285.26,186.69,285.63,182.46,285.59,180Z" transform="translate(-128.5 -5.87)"/><path class="cls-9" d="M290,191.24c.49-3.47,1.13-8.93,1.59-13.56.38-3.79.56-7.59.65-11.38s0-7.58-.14-11.37c0,3.79-.13,7.58-.36,11.35s-.6,7.54-1.14,11.28c-.29,2-.63,4-1,6a11.79,11.79,0,0,1-6.73,8.24,15.64,15.64,0,0,0-5.67,4.23c-4.22,5.21-3.45,12.84-3.45,12.84s7.62-.83,11.84-6C288.58,199,289.55,194.17,290,191.24Z" transform="translate(-128.5 -5.87)"/><path class="cls-9" d="M304.25,314.58c0-1.24,3.43-125.38-28.06-168.14l2.42-1.78C292.11,163,301,197.21,305.13,246.35a681,681,0,0,1,2.12,68.33Z" transform="translate(-128.5 -5.87)"/><path class="cls-9" d="M297.5,224a15.57,15.57,0,0,0-5-2.8,16.59,16.59,0,0,1-9.91-9.74c-3.22-8.4-7.79-20.33-15.1-26.32,8.81,8.09,12.85,25.92,15.92,33.41q1.11,2.7,2,5.49a17.61,17.61,0,0,0,5,8.14c5.21,4.48,13,4,13,4S302.71,228.49,297.5,224Z" transform="translate(-128.5 -5.87)"/><path class="cls-9" d="M296,209.76a14.44,14.44,0,0,0-5.87-2.91,13,13,0,0,1-8.27-6.76l0-.06c-1.42-2.77-2.9-5.51-4.48-8.19s-3.24-5.33-5.05-7.86a61.87,61.87,0,0,0-5.93-7.19l-.07.07a60.78,60.78,0,0,1,5.53,7.44c1.67,2.6,3.16,5.31,4.6,8s2.76,5.54,4,8.35,3.73,8.88,3.73,8.88a16.38,16.38,0,0,0,4.77,8.38c4.89,4.21,12.38,3.53,12.38,3.53S300.84,214,296,209.76Z" transform="translate(-128.5 -5.87)"/><path class="cls-9" d="M294,196.55a11.66,11.66,0,0,0-4.88-2.39,10.87,10.87,0,0,1-7.06-5.35c-1.58-2.91-3.23-5.77-5-8.57-1.48-2.38-3.06-4.7-4.76-6.92a28.12,28.12,0,0,0-5.84-6h0a27.67,27.67,0,0,1,5.44,6.28c1.55,2.3,3,4.68,4.3,7.12,2.31,4.25,4.41,8.62,6.34,13,0,0,0,7.16,4.41,10.95s11.5,2.77,11.5,2.77S298.38,200.34,294,196.55Z" transform="translate(-128.5 -5.87)"/><path class="cls-9" d="M292.6,183.12a9.9,9.9,0,0,0-4.08-2,16.17,16.17,0,0,1-8.76-5.49c-.53-.66-1.05-1.32-1.59-2-2-2.47-4.13-4.88-6.33-7.19a80.35,80.35,0,0,0-7-6.57,36.28,36.28,0,0,0-8-5.19,36.29,36.29,0,0,1,7.73,5.52A79.06,79.06,0,0,1,271.2,167c2.08,2.39,4.06,4.87,5.95,7.41q1.47,2,2.87,4a16.21,16.21,0,0,1,2.55,5.8,11.75,11.75,0,0,0,3.47,6.51c3.94,3.4,10.42,2.34,10.42,2.34S296.54,186.51,292.6,183.12Z" transform="translate(-128.5 -5.87)"/><path class="cls-9" d="M288.29,167.74a12.55,12.55,0,0,0-6.28-2.66,10.55,10.55,0,0,1-6.13-3.32A44.68,44.68,0,0,0,271,157a54.57,54.57,0,0,0-16.39-9.55,54.15,54.15,0,0,1,15.72,10.3,43.58,43.58,0,0,1,4.81,5.22,19.17,19.17,0,0,1,3.44,6.32,12.42,12.42,0,0,0,3.53,5.66c4.12,3.56,10.57,2.83,10.57,2.83S292.42,171.29,288.29,167.74Z" transform="translate(-128.5 -5.87)"/><path class="cls-9" d="M283.84,147.24a14.82,14.82,0,0,0-7-4.86,15,15,0,0,1-5.06-3.1c-.77-.71-1.55-1.4-2.35-2.07a71.46,71.46,0,0,0-7.16-5.33,62.9,62.9,0,0,0-7.79-4.31,62.27,62.27,0,0,1,7.5,4.72,69.38,69.38,0,0,1,6.78,5.66l.4.38a17.12,17.12,0,0,1,4.85,9.21,13,13,0,0,0,2.21,5.33c3.44,4.68,10.06,5.66,10.06,5.66S287.28,151.92,283.84,147.24Z" transform="translate(-128.5 -5.87)"/><path class="cls-9" d="M284.4,154.81a8.83,8.83,0,0,0-4.71-1.89,15.28,15.28,0,0,1-7.4-3l-.65-.49c-2-1.48-4-2.88-6.15-4.18a63.29,63.29,0,0,0-6.57-3.46,35.63,35.63,0,0,0-7-2.25,34.71,34.71,0,0,1,6.83,2.71,60.21,60.21,0,0,1,6.23,3.84c2,1.41,3.91,2.93,5.76,4.51l.78.68a13.64,13.64,0,0,1,4.16,6.41,8.84,8.84,0,0,0,2.55,4.32c3.44,3,9.34,1.75,9.34,1.75S287.84,157.77,284.4,154.81Z" transform="translate(-128.5 -5.87)"/><path class="cls-9" d="M295.83,159.76C296,157,293.18,147,283,136.3c-2.55-2.68-6.33-5-9.44-7a58.63,58.63,0,0,0-9.78-5,58.46,58.46,0,0,1,9.51,5.44,57.23,57.23,0,0,1,8.29,7.07,37.41,37.41,0,0,1,7.32,10.49,7.24,7.24,0,0,1-.8,7.38,8.67,8.67,0,0,0-1.8,4.52c-.28,4.53,4.25,8.5,4.25,8.5S295.55,164.29,295.83,159.76Z" transform="translate(-128.5 -5.87)"/><path class="cls-9" d="M301.81,164.25a46.09,46.09,0,0,0-1.69-12,79.2,79.2,0,0,0-2.79-8.56,84.37,84.37,0,0,0-3.67-8.18,83.49,83.49,0,0,1,3.2,8.35,78.55,78.55,0,0,1,2.28,8.61c.33,1.72.61,3.43.8,5.14a7.64,7.64,0,0,1-3.59,7.24,11.23,11.23,0,0,0-3.8,3.83c-2.6,4.61-.57,10.69-.57,10.69s6.25-1.4,8.86-6C302.63,170.22,302.23,166.36,301.81,164.25Z" transform="translate(-128.5 -5.87)"/><path class="cls-9" d="M306.45,178.41a67.33,67.33,0,0,0,0-13c-.27-3.11-.66-6.21-1.15-9.29s-1.06-6.14-1.74-9.17c.52,3.06.91,6.15,1.24,9.24s.55,6.19.65,9.28c.07,2,.07,3.71,0,5.31a8.39,8.39,0,0,1-4.27,7.15,10.4,10.4,0,0,0-4,3.63c-2.56,4.31-.55,10.24-.55,10.24s6.17-1.06,8.73-5.37C307,183.77,306.8,180.52,306.45,178.41Z" transform="translate(-128.5 -5.87)"/><path class="cls-9" d="M311.12,189.89a54.36,54.36,0,0,0,.94-11.33,80.33,80.33,0,0,0-.88-9.82,77.85,77.85,0,0,0-2.07-9.61,77,77,0,0,1,1.57,9.67,81.51,81.51,0,0,1,.38,9.75c0,.32,0,.65-.05,1a15.39,15.39,0,0,1-6.86,12.11,13.26,13.26,0,0,0-3.94,3.86c-3.42,5.3-1.64,12.52-1.64,12.52s7.3-1.38,10.71-6.68C311.9,197.27,311.47,192.08,311.12,189.89Z" transform="translate(-128.5 -5.87)"/><path class="cls-9" d="M315.6,205.88a61.59,61.59,0,0,0,1.47-14.09c0-3.69-.14-7.38-.43-11s-.7-7.33-1.26-11c.4,3.65.63,7.32.76,11s.13,7.34-.07,11c-.1,1.85-.24,3.71-.46,5.55a9.66,9.66,0,0,1-5.91,7.85,13.2,13.2,0,0,0-5.36,3.78c-3.83,4.72-2.73,11.94-2.73,11.94s7.29-.43,11.12-5.15C315.27,212.6,315.64,208.37,315.6,205.88Z" transform="translate(-128.5 -5.87)"/><path class="cls-9" d="M320,217.15c.49-3.47,1.13-8.93,1.59-13.57.38-3.78.57-7.58.65-11.37s0-7.58-.14-11.37c0,3.79-.13,7.58-.36,11.35s-.6,7.54-1.14,11.27c-.29,2-.62,4-1,6a11.79,11.79,0,0,1-6.73,8.24,15.64,15.64,0,0,0-5.67,4.23c-4.22,5.21-3.45,12.84-3.45,12.84s7.62-.83,11.84-6C318.6,224.9,319.56,220.08,320,217.15Z" transform="translate(-128.5 -5.87)"/></g><g id="OBJECTS" class="cls-3"><g class="cls-12"><ellipse class="cls-13" cx="390.56" cy="386.56" rx="69.38" ry="13.15"/><path class="cls-14" d="M548.19,380.5c-8.86-.78-18.72-1.21-29.13-1.21-9.31,0-18.17.35-26.28,1l-3.48,17h54.94Z" transform="translate(-128.5 -5.87)"/><path class="cls-13" d="M468.83,390.25a7.44,7.44,0,0,0-1.09-3.85c-4.53,1-7.88,2.1-7.27,7.75h7.25A7.48,7.48,0,0,0,468.83,390.25Z" transform="translate(-128.5 -5.87)"/><path class="cls-15" d="M483.85,371.23c.34,5.5-5.08,11.64-9.54,13.37a49.79,49.79,0,0,1-7,1.9v7.64c5.62,0,13.31,0,18.28,0H490l5.63-22.85Z" transform="translate(-128.5 -5.87)"/><polygon class="cls-16" points="331.98 391.37 360.8 391.37 361.9 386.56 331.98 386.56 331.98 391.37"/><path class="cls-15" d="M560.64,390.15l0,1.31h15.46a17.76,17.76,0,0,0-1-4.89c-1.39-4.35-3.4-14.65-3.4-14.65a42,42,0,0,1-.44-10.32c.22-2.81.45-5.58.67-8.33H561.24c1,7.44.53,13.24,1,16.65C562.62,372.21,560.29,385,560.64,390.15Z" transform="translate(-128.5 -5.87)"/><path class="cls-13" d="M560.6,391.72l0-1.5a8.27,8.27,0,0,1,15.28-.26c.31,1.9.21,3.88-1.36,4.67l-7.78,1.06Z" transform="translate(-128.5 -5.87)"/><path class="cls-16" d="M560.6,391.72a33.69,33.69,0,0,0,15.47,0v4.56a37.68,37.68,0,0,1-15.47,0Z" transform="translate(-128.5 -5.87)"/><path class="cls-11" d="M585.15,242.67c-2.32-26.69-59.07-22-67,3.55-4.66,15.07-16.75,48.76-17.7,65.25-5.93,13-14.88,40-16.91,51.94l15.3,2.37C509.67,346,543.68,280,551.25,260c3,21.37,8.2,52.26,8,57.84-.6,15,1.23,39.9,1.66,49.81h13.36c.87-9,3.74-23,4.09-42.24a136.6,136.6,0,0,1,3-26.51C584.9,282.51,586.56,258.84,585.15,242.67Z" transform="translate(-128.5 -5.87)"/><path class="cls-10" d="M496.26,374.41l-14.44-1.61a1.9,1.9,0,0,1-1.64-2.32l1.94-8.14a1.9,1.9,0,0,1,2.27-1.41l14,3.21a1.89,1.89,0,0,1,1.42,2.26l-1.5,6.55A1.88,1.88,0,0,1,496.26,374.41Z" transform="translate(-128.5 -5.87)"/><path class="cls-10" d="M574.14,368.37H560a1.65,1.65,0,0,1-1.64-1.83l.65-6.47a1.65,1.65,0,0,1,1.79-1.48l13.5,1.17a1.65,1.65,0,0,1,1.51,1.65v5.3A1.65,1.65,0,0,1,574.14,368.37Z" transform="translate(-128.5 -5.87)"/><path class="cls-10" d="M525.23,308.4a.77.77,0,0,0,.07-.26.71.71,0,0,0-.57-.73l-9.15-2c6.26-7.14,14.53-19.51,25.41-40.23l-1.26-.66c-22.06,42-32.65,48.36-37.05,48.36h-.1a3.28,3.28,0,0,1-2.32-.94c-.2.44-.4.89-.6,1.36a4.64,4.64,0,0,0,2.84,1h.17c2.64,0,6.43-1.82,11.82-7.67l5.73,1.25-5,.57.17,1.42,8-.92c-7.5,16.66-16.64,36.12-27.8,55.27l1.23.72c11.45-19.64,20.78-39.61,28.39-56.55Z" transform="translate(-128.5 -5.87)"/><path class="cls-10" d="M568.38,315.18a4.35,4.35,0,0,1-1.11-.15c-5-1.33-8.54-9.88-10.63-25.41A215.14,215.14,0,0,1,555,267l1.43,0c.15,12.19,2.47,44.34,11.26,46.69a2.86,2.86,0,0,0,2.53-.54c8.35-6,11-47.88,11.06-48.31l1.43.09c-.11,1.75-2.76,43-11.66,49.39A4.44,4.44,0,0,1,568.38,315.18Z" transform="translate(-128.5 -5.87)"/><polygon class="cls-10" points="432.82 352.73 431.33 354.33 433.14 303.27 434.57 303.33 432.82 352.73"/><polygon class="cls-15" points="408.32 138.9 405.47 140.21 411.62 138.9 408.32 138.9"/><path class="cls-17" d="M623.86,145.06h-.48a7.84,7.84,0,0,0-3.53-2.82c-1.23-.43-6.73.46-8,2.1-16.9-1.08-48.81-3.25-48.81-3.25,5.46,40-11.6,23.19-15.24,2l-23.69,5a24.84,24.84,0,0,0-3.61,1.44c-11.79,5.77-22.73,27.93-27.62,42.34h0a3.63,3.63,0,0,0-2.7,2.73,3.24,3.24,0,0,0,.1,1.78,3.16,3.16,0,0,1-1.74,3.84c-1.11.52-2,1.25-1.81,2.24.44,2.42,5.85,7.26,5.85,7.26h0c5.53,7.28,17.15-2.64,20.75-4.52,1.79-.93,3.67-6.64,4.92-8.21.88-1.11,3.41-7.34,3.41-7.35-1,10,.09,9.64,1.82,26.39,1,9.33-13.48,26.73-9.06,32.75,4.19,5.7,32.53,3.53,49.35,3.53a108,108,0,0,0,17.3-1.26c4.73-.78,8.24-4.79,8.24-4.79.18-15.25.23-55.07-3.29-75.33,7.61-1,19.42-2.64,28-3.92a30.91,30.91,0,0,0,3.17,1.34c.63.16,1.91-2.11,2.35-2.18a26.41,26.41,0,0,0,5,2.18c1,.16,2.66-2.36,3.7-4.14,4.29-1.75,6.74-4.8,6.74-9.12C635.05,149.5,631,145.06,623.86,145.06Z" transform="translate(-128.5 -5.87)"/><path class="cls-18" d="M535.5,175.2l-6.23-16.54V170l-5.75-2.07h0A21.32,21.32,0,0,1,521,183.84l-5.88,9.72Z" transform="translate(-128.5 -5.87)"/><path class="cls-18" d="M499.88,190s14-.35,16.3,6L520,185.49a12,12,0,0,1-7.42,3.24C508,189,503.35,188.11,499.88,190Z" transform="translate(-128.5 -5.87)"/><path class="cls-19" d="M571,158.13c2.51,12.2-1.1,23.24-8.06,24.67s-14.62-7.29-17.13-19.49,1.09-23.23,8.05-24.67S568.46,145.94,571,158.13Z" transform="translate(-128.5 -5.87)"/><rect class="cls-19" x="419.35" y="124.05" width="15.24" height="22.32"/><path class="cls-19" d="M544.91,106l-1.62,17.24c0,8.08,6.55,14.63,12.63,14.63s12.63-6.55,12.63-14.63L566.94,106Z" transform="translate(-128.5 -5.87)"/><path class="cls-19" d="M544.91,106l-1.62,17.24c0,8.08,6.55,14.63,12.63,14.63s12.63-6.55,12.63-14.63L566.94,106Z" transform="translate(-128.5 -5.87)"/><path class="cls-19" d="M568.2,119.37s3.58-5.62,5.45-2.14-3.75,11.78-5.29,8.29Z" transform="translate(-128.5 -5.87)"/><path class="cls-19" d="M544.09,114.7s-2.12-2.53-3.32,0,1.16,9.54,2.52,8.5Z" transform="translate(-128.5 -5.87)"/><path class="cls-16" d="M569.6,102.18l4-2.87-.63-.87-3.43,2.45a28.66,28.66,0,0,0,3-6.09l-1-.35a25.61,25.61,0,0,1-3.45,6.59,71.57,71.57,0,0,0,1-8.81c.27-6.81-24.05,2.94-29.8,7.76s4.79,14.71,4.79,14.71l2.29-8.74c4.07,11.07,17.34,2.9,20.11,1.05l1.71,12.36s6.52-9.36,6.65-13.41C574.92,103.7,572.12,102.66,569.6,102.18Z" transform="translate(-128.5 -5.87)"/><path class="cls-18" d="M516.41,248.19c-.86-1.85.78-5.79,4-13.19,2.57-5.9,5.77-13.24,7.51-20.3,3.5-14.15-3.94-45.63-4-45.94l1.39-.34c.31,1.31,7.59,32.14,4,46.62-1.77,7.18-5,14.58-7.59,20.53-2.39,5.49-4.64,10.67-4,12Z" transform="translate(-128.5 -5.87)"/><path class="cls-18" d="M570,216.29c-1.82-.4-17.93-4-20.35-8.36a2.39,2.39,0,0,1-.21-2c.81-2.26,5.84-4,14-6.58s18.14-5.81,17.82-9.33a1.13,1.13,0,0,0-.54-.84c-4.8-3.57-32.63,1.14-42.95,3.26l-.29-1.4c1.54-.32,37.8-7.69,44.09-3a2.6,2.6,0,0,1,1.12,1.86c.41,4.67-9.36,7.8-18.82,10.83-5.84,1.87-12.45,4-13.07,5.7a1,1,0,0,0,.12.86c1.79,3.22,14.61,6.61,19.4,7.65Z" transform="translate(-128.5 -5.87)"/><path class="cls-18" d="M524.52,241.5a9.92,9.92,0,0,1-5.46-1.88l.79-1.19c2.55,1.7,4.84,2.08,7,1.16,7.11-3,10-19.17,10-19.33l1.41.25c-.12.69-3.07,17.05-10.89,20.39A7.22,7.22,0,0,1,524.52,241.5Z" transform="translate(-128.5 -5.87)"/><path class="cls-18" d="M589.42,238.82a5.28,5.28,0,0,1-2.66-1.07c-5.35-4-5.76-17.25-5.77-17.38l-1.43,0c0,.58.44,14,6.34,18.49a6.71,6.71,0,0,0,3.51,1.37C589.41,239.79,589.41,239.31,589.42,238.82Z" transform="translate(-128.5 -5.87)"/><path class="cls-18" d="M513.63,246.81l.67,11.39s16-4.46,28.91.54c18.6,7.18,35.83,5.46,42.44-2.59l3.71-9.82s-15.16,7.74-26.27,4.79C533.87,243.36,518.25,241.35,513.63,246.81Z" transform="translate(-128.5 -5.87)"/><path class="cls-19" d="M660.8,97.2A2,2,0,0,0,658.44,99l-.24,2.18-1.89,4.1,2-7,.52-4.79a1,1,0,0,0-.81-1.14,2,2,0,0,0-2.36,1.78l-.37,3.4-1.83,4.66.87-4.34L654,92.66a1,1,0,0,0-1-1,2,2,0,0,0-2,2.16l.22,3.54-1.45,4.74.19-5.05-1-3.67a1,1,0,0,0-1.17-.78,2,2,0,0,0-1.56,2.51l.56,2.13-.71,5.35v0l-2.79-.9a19.15,19.15,0,0,0-1.16-2.81c-1.89-1.15-3.4-2-4.16-1.92-.37,0-.06,3.09,0,3.46l1.5,2.65a15.39,15.39,0,0,1,2.88,3.27,4.81,4.81,0,0,1,.59,4.42,13.21,13.21,0,0,1-1.61,3.17c-5.85,7.89-16.2,20.25-21.24,29.93-5.4,3.56-6.49,7.41-5.85,10.76,1.55,8.15,11.71,11.53,17.91,6a18.67,18.67,0,0,0,5-7.82c4.42-12.19,8-22.88,14.26-37.8l7.45-7.79,2.43-5.27.4-3.65A1,1,0,0,0,660.8,97.2Z" transform="translate(-128.5 -5.87)"/><path class="cls-16" d="M649,107.7c.51-1.3,1.6-2.22,2.83-1.56l2.73,1.48s-2.21-4.53-6.18-4.11a.89.89,0,0,0-.79,1.06,20.63,20.63,0,0,1-.23,7S648.59,108.7,649,107.7Z" transform="translate(-128.5 -5.87)"/><path class="cls-9" d="M582.66,183l-5.39-20.36c-7,5.76-26.77,3.85-43.33.64l-9.44,58.35-9.37,87.56c35.57,4.33,73.09,9.87,80.64-3.35l-6.72-51.87C584.49,218.62,590.34,206,582.66,183Z" transform="translate(-128.5 -5.87)"/><path class="cls-15" d="M589.05,253.93c-2.86-22.1-1.63-35.33-2.2-47.77-.24,1.12-.47,2.24-.72,3.35-1.09,8.63-2.92,17.22-4.21,25.8a211,211,0,0,1-4.66,24.44c-3.93,14.38-10.89,28.59-22.93,37.83-11.25,8.64-25.24,10.35-38.88,8.6l-.32,3c35.57,4.33,73.09,9.87,80.64-3.35Z" transform="translate(-128.5 -5.87)"/><path class="cls-11" d="M539.93,196.9c-2.47,2.48-7.12,1.84-7.12,1.84s-.64-4.65,1.83-7.12,7.12-1.83,7.12-1.83S542.4,194.43,539.93,196.9Z" transform="translate(-128.5 -5.87)"/><path class="cls-10" d="M534.07,192.65c0-.13,0-.26,0-.4-1.84,2.56-1.3,6.49-1.3,6.49s4.65.64,7.12-1.84a5.89,5.89,0,0,0,1.35-2.21.68.68,0,0,0-1-.78,8.23,8.23,0,0,1-3.79,1.12A2.24,2.24,0,0,1,534.07,192.65Z" transform="translate(-128.5 -5.87)"/><path class="cls-20" d="M534.19,193.69a1.31,1.31,0,0,0-.18.23c-.07.1-.13.2-.19.3a6.42,6.42,0,0,0-.33.64,6.82,6.82,0,0,0-.45,1.41,6.34,6.34,0,0,0-.13,1.51,7.5,7.5,0,0,0,.21,1.54l-.59.25a7.68,7.68,0,0,1-.67-1.62,7.54,7.54,0,0,1-.3-1.77,8.61,8.61,0,0,1,.1-1.83c.05-.31.12-.61.2-.92,0-.15.09-.3.15-.46a3,3,0,0,1,.2-.49Z" transform="translate(-128.5 -5.87)"/><path class="cls-21" d="M539.77,196.41a5,5,0,0,0-4.31.41,6.69,6.69,0,0,1-6.32-.18,4.77,4.77,0,0,0-3.72-.47c-3.11,1-4.55,5.27-3.21,9.65s4.95,7.14,8.07,6.19a4.29,4.29,0,0,0,.85-.37,2.2,2.2,0,0,1,2.1,0l.31.14c3,1.22,6.86-1.23,8.58-5.47S542.79,197.63,539.77,196.41Z" transform="translate(-128.5 -5.87)"/><path class="cls-22" d="M542.7,200.19a2.42,2.42,0,0,0-4.61-.3,11.55,11.55,0,0,1-10.72,7.25h0a2.23,2.23,0,0,0-1.35,4.05,5,5,0,0,0,4.31.82,4.29,4.29,0,0,0,.85-.37,2.2,2.2,0,0,1,2.1,0l.31.14c3,1.22,6.86-1.23,8.58-5.47A10.41,10.41,0,0,0,542.7,200.19Z" transform="translate(-128.5 -5.87)"/><path class="cls-23" d="M534.18,193.69c-.17.34-.78.37-1.36.07s-.9-.81-.72-1.15.78-.37,1.36-.07S534.36,193.35,534.18,193.69Z" transform="translate(-128.5 -5.87)"/><path class="cls-9" d="M541,143.9l-4.12.88c2.81,3,.92,16.71-1.33,25.48l3.88,1C540.28,167.72,544.24,151.15,541,143.9Z" transform="translate(-128.5 -5.87)"/><path class="cls-11" d="M559.05,197.31c-2.47,2.47-7.11,1.83-7.11,1.83s-.64-4.64,1.83-7.11,7.11-1.83,7.11-1.83S561.52,194.84,559.05,197.31Z" transform="translate(-128.5 -5.87)"/><path class="cls-10" d="M553.2,193.05q0-.18,0-.39c-1.83,2.55-1.29,6.48-1.29,6.48s4.64.64,7.11-1.83a5.89,5.89,0,0,0,1.35-2.21.67.67,0,0,0-1-.78,8.2,8.2,0,0,1-3.79,1.12A2.23,2.23,0,0,1,553.2,193.05Z" transform="translate(-128.5 -5.87)"/><path class="cls-20" d="M553.31,194.09a2.11,2.11,0,0,0-.18.24,2.2,2.2,0,0,0-.19.3,6.42,6.42,0,0,0-.33.64,6.82,6.82,0,0,0-.45,1.41,6.25,6.25,0,0,0-.13,1.5,6.9,6.9,0,0,0,.22,1.55l-.6.25a7.68,7.68,0,0,1-.67-1.62,7.53,7.53,0,0,1-.3-1.78,8.08,8.08,0,0,1,.11-1.83,7.41,7.41,0,0,1,.2-.91,4.75,4.75,0,0,1,.14-.46,4.24,4.24,0,0,1,.2-.49Z" transform="translate(-128.5 -5.87)"/><path class="cls-21" d="M558.89,196.82a5,5,0,0,0-4.31.41,6.69,6.69,0,0,1-6.32-.19,4.85,4.85,0,0,0-3.72-.47c-3.11,1-4.55,5.28-3.21,9.65s5,7.15,8.07,6.2a4.29,4.29,0,0,0,.85-.37,2.22,2.22,0,0,1,2.11,0l.31.14c3,1.23,6.85-1.22,8.57-5.46S561.91,198,558.89,196.82Z" transform="translate(-128.5 -5.87)"/><path class="cls-22" d="M561.83,200.6a2.42,2.42,0,0,0-4.62-.3,11.53,11.53,0,0,1-10.71,7.24h-.06a2.23,2.23,0,0,0-1.35,4.05,5,5,0,0,0,4.31.83,4.29,4.29,0,0,0,.85-.37,2.22,2.22,0,0,1,2.11,0l.31.14c3,1.23,6.85-1.22,8.57-5.46A10.42,10.42,0,0,0,561.83,200.6Z" transform="translate(-128.5 -5.87)"/><path class="cls-23" d="M553.31,194.1c-.18.33-.79.37-1.36.07s-.9-.82-.73-1.16.78-.37,1.36-.07S553.48,193.76,553.31,194.1Z" transform="translate(-128.5 -5.87)"/><path class="cls-11" d="M579.37,197.31c-2.47,2.47-7.12,1.83-7.12,1.83s-.64-4.64,1.83-7.11,7.12-1.83,7.12-1.83S581.84,194.84,579.37,197.31Z" transform="translate(-128.5 -5.87)"/><path class="cls-10" d="M573.51,193.05c0-.12,0-.25,0-.39-1.84,2.55-1.3,6.48-1.3,6.48s4.65.64,7.12-1.83a5.74,5.74,0,0,0,1.34-2.21.67.67,0,0,0-1-.78,8.23,8.23,0,0,1-3.79,1.12A2.24,2.24,0,0,1,573.51,193.05Z" transform="translate(-128.5 -5.87)"/><path class="cls-20" d="M573.62,194.09a2.11,2.11,0,0,0-.18.24q-.09.13-.18.3a6.42,6.42,0,0,0-.33.64,6.82,6.82,0,0,0-.45,1.41,5.78,5.78,0,0,0-.13,1.5,6.88,6.88,0,0,0,.21,1.55l-.6.25a8.9,8.9,0,0,1-.67-1.62,7.52,7.52,0,0,1-.29-1.78,8.07,8.07,0,0,1,.1-1.83c0-.3.12-.61.2-.91s.09-.3.14-.46.11-.29.2-.49Z" transform="translate(-128.5 -5.87)"/><path class="cls-21" d="M579.21,196.82a5,5,0,0,0-4.31.41,6.71,6.71,0,0,1-6.33-.19,4.83,4.83,0,0,0-3.71-.47c-3.11,1-4.55,5.28-3.21,9.65s5,7.15,8.06,6.2a4,4,0,0,0,.85-.37,2.22,2.22,0,0,1,2.11,0l.31.14c3,1.23,6.86-1.22,8.58-5.46S582.22,198,579.21,196.82Z" transform="translate(-128.5 -5.87)"/><path class="cls-22" d="M582.14,200.6a2.42,2.42,0,0,0-4.61-.3,11.54,11.54,0,0,1-10.72,7.24h0a2.23,2.23,0,0,0-1.36,4.05,5.05,5.05,0,0,0,4.31.83,4.38,4.38,0,0,0,.86-.37,2.2,2.2,0,0,1,2.1,0l.31.14c3,1.23,6.86-1.22,8.58-5.46A10.41,10.41,0,0,0,582.14,200.6Z" transform="translate(-128.5 -5.87)"/><path class="cls-23" d="M573.62,194.1c-.17.33-.78.37-1.36.07s-.9-.82-.72-1.16.78-.37,1.36-.07S573.8,193.76,573.62,194.1Z" transform="translate(-128.5 -5.87)"/><path class="cls-11" d="M573.67,182.39c-2.47,2.47-7.12,1.83-7.12,1.83s-.64-4.65,1.83-7.12,7.12-1.83,7.12-1.83S576.14,179.92,573.67,182.39Z" transform="translate(-128.5 -5.87)"/><path class="cls-10" d="M567.81,178.13c0-.13,0-.26,0-.39-1.84,2.55-1.3,6.48-1.3,6.48s4.65.64,7.12-1.83a6,6,0,0,0,1.35-2.21.68.68,0,0,0-1-.79,8.25,8.25,0,0,1-3.79,1.13A2.25,2.25,0,0,1,567.81,178.13Z" transform="translate(-128.5 -5.87)"/><path class="cls-20" d="M567.93,179.17a1.47,1.47,0,0,0-.18.24,2.9,2.9,0,0,0-.19.29,6.59,6.59,0,0,0-.33.65,6.73,6.73,0,0,0-.45,1.4,6.34,6.34,0,0,0-.13,1.51,7.5,7.5,0,0,0,.21,1.55l-.59.24a7.93,7.93,0,0,1-1-3.39,8.65,8.65,0,0,1,.1-1.83,9.21,9.21,0,0,1,.2-.91c0-.16.09-.31.15-.46a3.45,3.45,0,0,1,.2-.5Z" transform="translate(-128.5 -5.87)"/><path class="cls-21" d="M573.51,181.89a5,5,0,0,0-4.31.42,6.69,6.69,0,0,1-6.32-.19,4.86,4.86,0,0,0-3.72-.47c-3.11.95-4.55,5.28-3.21,9.65s4.95,7.15,8.07,6.19a4.26,4.26,0,0,0,.85-.36,2.18,2.18,0,0,1,2.1,0l.31.14c3,1.22,6.86-1.22,8.58-5.46S576.53,183.12,573.51,181.89Z" transform="translate(-128.5 -5.87)"/><path class="cls-22" d="M576.44,185.68a2.42,2.42,0,0,0-4.61-.3,11.56,11.56,0,0,1-10.72,7.24h-.05a2.23,2.23,0,0,0-1.35,4,5,5,0,0,0,4.31.82,4.26,4.26,0,0,0,.85-.36,2.18,2.18,0,0,1,2.1,0l.31.14c3,1.22,6.86-1.22,8.58-5.46A10.43,10.43,0,0,0,576.44,185.68Z" transform="translate(-128.5 -5.87)"/><path class="cls-23" d="M567.92,179.17c-.17.34-.78.37-1.36.07s-.9-.81-.72-1.15.78-.37,1.36-.07S568.1,178.83,567.92,179.17Z" transform="translate(-128.5 -5.87)"/><path class="cls-11" d="M552.43,183.58c-2.47,2.47-7.11,1.83-7.11,1.83s-.64-4.64,1.83-7.11,7.11-1.84,7.11-1.84S554.9,181.11,552.43,183.58Z" transform="translate(-128.5 -5.87)"/><path class="cls-10" d="M546.58,179.32l0-.39c-1.83,2.55-1.29,6.48-1.29,6.48s4.64.64,7.11-1.83a5.84,5.84,0,0,0,1.35-2.21.67.67,0,0,0-1-.78,8.2,8.2,0,0,1-3.79,1.12A2.23,2.23,0,0,1,546.58,179.32Z" transform="translate(-128.5 -5.87)"/><path class="cls-20" d="M546.69,180.36a2.11,2.11,0,0,0-.18.24l-.18.29c-.12.21-.23.43-.33.65a6.11,6.11,0,0,0-.45,1.41,5.75,5.75,0,0,0-.14,1.5,6.9,6.9,0,0,0,.22,1.55l-.6.24a8.16,8.16,0,0,1-.67-1.61,7.52,7.52,0,0,1-.29-1.78,8.07,8.07,0,0,1,.1-1.83,7.41,7.41,0,0,1,.2-.91c0-.15.09-.31.14-.46a5.17,5.17,0,0,1,.2-.5Z" transform="translate(-128.5 -5.87)"/><path class="cls-21" d="M552.28,183.09a5,5,0,0,0-4.31.41,6.71,6.71,0,0,1-6.33-.19,4.83,4.83,0,0,0-3.71-.47c-3.12,1-4.55,5.28-3.21,9.65s4.95,7.15,8.06,6.2a4.65,4.65,0,0,0,.85-.37,2.2,2.2,0,0,1,2.11,0l.31.14c3,1.23,6.85-1.22,8.57-5.46S555.29,184.31,552.28,183.09Z" transform="translate(-128.5 -5.87)"/><path class="cls-22" d="M555.21,186.87a2.42,2.42,0,0,0-4.62-.3,11.54,11.54,0,0,1-10.71,7.24h-.06a2.23,2.23,0,0,0-1.35,4.05,5,5,0,0,0,4.31.83,4.65,4.65,0,0,0,.85-.37,2.2,2.2,0,0,1,2.11,0l.31.14c3,1.23,6.85-1.22,8.57-5.46A10.43,10.43,0,0,0,555.21,186.87Z" transform="translate(-128.5 -5.87)"/><path class="cls-23" d="M546.69,180.36c-.18.34-.78.37-1.36.07s-.9-.81-.73-1.15.79-.37,1.36-.07S546.86,180,546.69,180.36Z" transform="translate(-128.5 -5.87)"/><path class="cls-11" d="M540.48,168.9c-1.54,3.14-6.14,4-6.14,4s-2.11-4.19-.58-7.33,6.14-4,6.14-4S542,165.76,540.48,168.9Z" transform="translate(-128.5 -5.87)"/><path class="cls-10" d="M533.56,166.77c0-.12-.07-.25-.1-.38-.91,3,.88,6.55.88,6.55s4.6-.9,6.14-4a5.89,5.89,0,0,0,.55-2.53.67.67,0,0,0-1.2-.41,8.34,8.34,0,0,1-3.23,2.29A2.23,2.23,0,0,1,533.56,166.77Z" transform="translate(-128.5 -5.87)"/><path class="cls-20" d="M534,167.72a1,1,0,0,0-.09.28,3.38,3.38,0,0,0-.08.34c-.05.23-.08.47-.11.72a7.24,7.24,0,0,0,0,1.47,6.22,6.22,0,0,0,.37,1.47,7,7,0,0,0,.7,1.39l-.48.43a8.06,8.06,0,0,1-1.16-1.31,7.79,7.79,0,0,1-.86-1.58,8.3,8.3,0,0,1-.49-1.77c-.05-.31-.09-.61-.11-.93,0-.16,0-.32,0-.48a3.45,3.45,0,0,1,0-.53Z" transform="translate(-128.5 -5.87)"/><path class="cls-21" d="M540.17,168.48a5,5,0,0,0-3.95,1.79,6.7,6.7,0,0,1-6,1.88,4.8,4.8,0,0,0-3.67.76c-2.63,1.91-2.59,6.46.1,10.16s7,5.16,9.63,3.25a4.08,4.08,0,0,0,.69-.62,2.17,2.17,0,0,1,2-.7l.33,0c3.25.18,6.09-3.38,6.34-7.95S543.42,168.66,540.17,168.48Z" transform="translate(-128.5 -5.87)"/><path class="cls-22" d="M544.17,171.11a2.43,2.43,0,0,0-4.47,1.21,11.53,11.53,0,0,1-7.79,10.33l0,0a2.23,2.23,0,0,0,0,4.27,5.06,5.06,0,0,0,4.34-.62,3.74,3.74,0,0,0,.69-.63,2.18,2.18,0,0,1,2-.69l.34,0c3.25.18,6.09-3.38,6.34-7.95A10.49,10.49,0,0,0,544.17,171.11Z" transform="translate(-128.5 -5.87)"/><path class="cls-23" d="M534,167.72c-.06.38-.62.6-1.26.51s-1.12-.48-1.07-.86.63-.6,1.27-.5S534.05,167.34,534,167.72Z" transform="translate(-128.5 -5.87)"/><path class="cls-24" d="M588.78,201.34c-.24-5.65-.57-11.21-1-16.37h-.43v-4.16h-6.71V185H537.29v-4.16h-6.72V185h-8.08v16.37h8.08V206h-8.08v1.14c.31,2.33.66,5.21,1,8.93a16,16,0,0,1-1,6.3h66.77c-.06-5.24-.18-10.8-.38-16.37h-1.62v-4.69ZM580.63,206H537.29v-4.69h43.34Z" transform="translate(-128.5 -5.87)"/><rect class="cls-23" x="393.21" y="172.92" width="6.71" height="39.83"/><rect class="cls-23" x="443.26" y="172.92" width="6.71" height="39.83"/><rect class="cls-20" x="385.13" y="198.14" width="72.19" height="16.37"/><rect class="cls-20" x="385.13" y="177.08" width="72.19" height="16.37"/><path class="cls-25" d="M531.74,192.72s8.53,1.4,7.67-1.12-11.55-1.78-12.81,0,13.73,5.81,25.14,2.89" transform="translate(-128.5 -5.87)"/><path class="cls-25" d="M581.05,191.14a31.64,31.64,0,0,0-21.16-3.5c-7.15,1.4-28,.63-36.37-6" transform="translate(-128.5 -5.87)"/><path class="cls-19" d="M549.84,214.42c-4.94-1.1-13.28-5.54-21.22-9.43s-11.81-7.88-18.88-10.33c-13.52-4.67-17.42,4.56-17.42,4.56s-5.05,10.73,11.59,16c12.9,4.09,34.81,8.13,44.51,7.37,0,.09,3.52.1,4.3.09Z" transform="translate(-128.5 -5.87)"/><path class="cls-11" d="M657,89.83c-2.47,2.47-7.12,1.83-7.12,1.83s-.64-4.64,1.83-7.11,7.12-1.84,7.12-1.84S659.5,87.36,657,89.83Z" transform="translate(-128.5 -5.87)"/><path class="cls-10" d="M651.17,85.57c0-.13,0-.26,0-.39-1.84,2.55-1.3,6.48-1.3,6.48s4.65.64,7.12-1.83a6,6,0,0,0,1.35-2.21.68.68,0,0,0-1-.78A8.23,8.23,0,0,1,653.58,88,2.25,2.25,0,0,1,651.17,85.57Z" transform="translate(-128.5 -5.87)"/><path class="cls-20" d="M651.28,86.61l-.17.24a2.9,2.9,0,0,0-.19.29c-.12.21-.23.43-.33.65a6.63,6.63,0,0,0-.45,1.41,6.21,6.21,0,0,0-.13,1.5,7.5,7.5,0,0,0,.21,1.55l-.59.24a7.82,7.82,0,0,1-1-3.39,8.69,8.69,0,0,1,.1-1.83c0-.3.12-.61.2-.91s.09-.31.15-.46a3.45,3.45,0,0,1,.2-.5Z" transform="translate(-128.5 -5.87)"/><path class="cls-21" d="M656.87,89.34a5,5,0,0,0-4.31.41,6.69,6.69,0,0,1-6.32-.19,4.86,4.86,0,0,0-3.72-.47c-3.11,1-4.55,5.28-3.21,9.65s5,7.15,8.07,6.2a5,5,0,0,0,.85-.37,2.18,2.18,0,0,1,2.1,0l.31.14c3,1.23,6.86-1.22,8.58-5.46S659.89,90.56,656.87,89.34Z" transform="translate(-128.5 -5.87)"/><path class="cls-22" d="M659.8,93.12a2.42,2.42,0,0,0-4.61-.3,11.56,11.56,0,0,1-10.72,7.24h-.05a2.23,2.23,0,0,0-1.36,4,5.07,5.07,0,0,0,4.32.83,5,5,0,0,0,.85-.37,2.18,2.18,0,0,1,2.1,0l.31.14c3,1.23,6.86-1.22,8.58-5.46A10.42,10.42,0,0,0,659.8,93.12Z" transform="translate(-128.5 -5.87)"/><path class="cls-23" d="M651.28,86.61c-.17.34-.78.37-1.36.08s-.9-.82-.72-1.16.78-.37,1.36-.07S651.46,86.28,651.28,86.61Z" transform="translate(-128.5 -5.87)"/><path class="cls-15" d="M516.27,298.5c7.47,1.22,27.57,4.23,44.13,4.23a82.27,82.27,0,0,0,13.41-.93,104.34,104.34,0,0,0,20.7-5.72l-.13-1a104,104,0,0,1-20.74,5.76c-16.78,2.85-47.68-1.75-57.26-3.32Z" transform="translate(-128.5 -5.87)"/><path class="cls-16" d="M568.65,120.42l.53-3.16,1.32-8.2-4-2,.07,7.39a9.69,9.69,0,0,1,1.2,7c-1.66,5.51-7.43,10.17-15.5,7.37a27.38,27.38,0,0,1-3.08-1.28A9.42,9.42,0,0,1,544,117.24c.65-3.18,2.39-2.67,2.39-2.67v-9.09l-3.3,4.3.14,7.65a24.43,24.43,0,0,1-.72,6.37c-3.14,12.57,7.29,16.33,7.29,16.33-.3,4.2,8.58,7.46,8.58,7.46-.79-2,2.07-3.46,2.07-3.46,9.6-.55,7.27-11.73,7.27-11.73C571.62,129.09,569.65,122.88,568.65,120.42Z" transform="translate(-128.5 -5.87)"/><path class="cls-16" d="M560.16,124.53a15.24,15.24,0,0,0-8.9,1c-2,.87-3.94,2.17-3.41,3.87,1.07,3.38,6.41-3.25,8.37-3s7.4,2.9,7.4,2.9S566.45,125.71,560.16,124.53Z" transform="translate(-128.5 -5.87)"/><path class="cls-26" d="M555.92,124.72a15,15,0,0,0-7.16.83" transform="translate(-128.5 -5.87)"/><path class="cls-26" d="M557.06,124.51a24.18,24.18,0,0,1,6.4.29" transform="translate(-128.5 -5.87)"/><path class="cls-26" d="M542.77,124.42s-2.6,5.13-2,7.44a8.07,8.07,0,0,0,2.81,3.89" transform="translate(-128.5 -5.87)"/><path class="cls-26" d="M567.21,132.53s2.3,4.83,1,7.22-5.94,3.18-5.94,3.18" transform="translate(-128.5 -5.87)"/><path class="cls-18" d="M585,179.5a72.45,72.45,0,0,0-6.49-15.72h0l4.18,3.74,5.73-8.86h0a6.79,6.79,0,0,0,6.4,7.41l19.27,1-28,3.92s1.78,13.49,2.16,20.14Z" transform="translate(-128.5 -5.87)"/><path class="cls-18" d="M577.29,152.8l2.18-10.75,13,1S579.31,145.2,577.29,152.8Z" transform="translate(-128.5 -5.87)"/><path class="cls-9" d="M573.88,168.48c-2.07-9,2.94-26.21,3.17-27l4.12.11c0,.18-5.22,18-3.39,26Z" transform="translate(-128.5 -5.87)"/><path class="cls-27" d="M540.44,240.26S576,233,576.72,238.34s-28.87,5.09-26.93,9.85,21.2,2.56,21.2,2.56" transform="translate(-128.5 -5.87)"/><path class="cls-19" d="M558.44,216.72l0-.05a13.5,13.5,0,0,1,3.78-3.9l.07-.05a1.88,1.88,0,0,0,.78-1.72h0a1.87,1.87,0,0,0-2.85-1.38l-3.23,2a5.15,5.15,0,0,1-2.29.73,12.83,12.83,0,0,0-7,2.58c-2,1.52,1.61,6.29,1.61,6.29,1.42,1.45,4.64,4.14,8.54,3.46,5.29-.92,12.85-4.35,12.85-4.35H560.4A2.36,2.36,0,0,1,558.44,216.72Z" transform="translate(-128.5 -5.87)"/><line class="cls-28" x1="341.98" y1="379.74" x2="341.98" y2="382.93"/><line class="cls-28" x1="344.45" y1="379.09" x2="345.51" y2="382.27"/><line class="cls-28" x1="346.94" y1="378" x2="348.92" y2="380.53"/><line class="cls-28" x1="349.22" y1="376.25" x2="352.22" y2="377.65"/><line class="cls-28" x1="351.48" y1="374.01" x2="355.05" y2="374.01"/><line class="cls-28" x1="353.26" y1="371.21" x2="356.68" y2="371.21"/><line class="cls-28" x1="436.55" y1="377.32" x2="443.06" y2="377.32"/><line class="cls-28" x1="436.55" y1="374.32" x2="442.06" y2="374.32"/><line class="cls-28" x1="436.14" y1="371.32" x2="441.64" y2="371.32"/><line class="cls-28" x1="436.14" y1="368.32" x2="441.64" y2="368.32"/><line class="cls-28" x1="435.81" y1="365.32" x2="441.31" y2="365.32"/></g><g class="cls-12"><ellipse class="cls-13" cx="318.38" cy="356.03" rx="26.56" ry="6.32"/><line class="cls-29" x1="318.16" y1="352.64" x2="324.52" y2="352.64"/><polyline class="cls-29" points="319.81 353.8 322.29 352.64 324.52 345.86"/><polyline class="cls-29" points="330.87 345.37 330.46 353.38 327.9 354.54"/><line class="cls-29" x1="325.66" y1="353.47" x2="332.13" y2="353.47"/><path class="cls-13" d="M471.19,333.18c-.06-13-8.5-18.06-13.68-18.74a6.12,6.12,0,0,1-5.49-5.5c-2.84,1.3-2.62,8.49-.74,13.45,1.27,3.35-14.88,21.11-15.87,22.15-6.32,6.6-.36,10.46-.36,10.46l2.73-.57s1.77-1.27,6.24-2a47.77,47.77,0,0,0,6.92-.85,2.19,2.19,0,0,0,1.77,1.05,2.5,2.5,0,0,0,2.22-2c.6-.17,1.22-.37,1.84-.58a2.67,2.67,0,0,0,2.33,2.64c1.31,0,2.37-1.37,2.37-3.06v0a2.53,2.53,0,0,1,1.2-2.23C467.43,344.53,471.22,340.1,471.19,333.18Z" transform="translate(-128.5 -5.87)"/><path class="cls-21" d="M435.32,347.88a6.75,6.75,0,0,1-1.92,7.2c-1.08,1,0,3.22-1.48,3-5.08-.66-.81-5.55-.81-5.55s-3.74,3.64-4.43.58c-1-4.36,4.82-5,4.82-5s-2.92-.64-1.81-2.12C430.45,345,434.21,344.74,435.32,347.88Z" transform="translate(-128.5 -5.87)"/><path class="cls-15" d="M454,348.46c-.91-3.12-7.79-1.31-7.79-1.31s8.57-2.35,6.08-5.66-8.69,1-8.69,1,5.67-6.09,2-7.24c-2.24-.71-4.66,2.06-6.19,4.3a38.34,38.34,0,0,1-3.05,3.91l-1,1.11c-6.32,6.6-.36,10.46-.36,10.46l2.73-.57a40.19,40.19,0,0,1,7.33-2.07C450.46,352.68,455,351.58,454,348.46Z" transform="translate(-128.5 -5.87)"/><path class="cls-22" d="M436.78,354.28a4.14,4.14,0,0,1,2.35,1.11c1.22,1.19,3.16-1.37,1.2-2.12A3.48,3.48,0,0,0,436.78,354.28Z" transform="translate(-128.5 -5.87)"/><path class="cls-30" d="M456,338s12.43-6.37,3.47-15.24-5.8,13.11-5.8,13.11" transform="translate(-128.5 -5.87)"/><path class="cls-21" d="M437.18,355.14a5.94,5.94,0,0,1,3.24-1.67c2.42-.39.93-4.44-1.56-2.91S437.18,355.14,437.18,355.14Z" transform="translate(-128.5 -5.87)"/><path class="cls-21" d="M436.27,354.92a1.88,1.88,0,1,0-2.38-1.2A1.89,1.89,0,0,0,436.27,354.92Z" transform="translate(-128.5 -5.87)"/><path class="cls-9" d="M436.16,357.43l-1-2.14h0l-.76-.8s2.53-1,3.36-.06a4.8,4.8,0,0,1-.91,3A.4.4,0,0,1,436.16,357.43Z" transform="translate(-128.5 -5.87)"/><path class="cls-15" d="M443.47,361a.91.91,0,1,1-.91-.91A.91.91,0,0,1,443.47,361Z" transform="translate(-128.5 -5.87)"/><path class="cls-15" d="M429.46,361.15a.74.74,0,1,1-.73-.74A.74.74,0,0,1,429.46,361.15Z" transform="translate(-128.5 -5.87)"/><path class="cls-15" d="M437.07,360.9a.7.7,0,1,1-.69-.69A.69.69,0,0,1,437.07,360.9Z" transform="translate(-128.5 -5.87)"/><path class="cls-15" d="M433.79,364.71a1.23,1.23,0,1,1-1.23-1.23A1.23,1.23,0,0,1,433.79,364.71Z" transform="translate(-128.5 -5.87)"/></g><g class="cls-12"><path class="cls-13" d="M403,377.8c-1.34,0-2.68,0-4,.11a71.5,71.5,0,0,1-27.62-4.23c-6-2.08-14.22-3.37-23.3-3.37-1.14,0-2.27,0-3.38.06a58.32,58.32,0,0,1-20.05-2.85c-7.61-2.46-19.64-4-33.19-4-23,0-41.68,4.57-41.68,10.22s18.66,10.23,41.68,10.23c2.24,0,4.43-.05,6.57-.13a50.58,50.58,0,0,1,23.52,5.09c6,2.83,15.67,4.66,26.53,4.66h.21c6.66,0,13.17,4.18,17.8,12.31C371,414.47,385.51,421,403,421c21.34,0,38.63-9.67,38.63-21.6S424.36,377.8,403,377.8Z" transform="translate(-128.5 -5.87)"/><path class="cls-21" d="M314.8,332.85a8.49,8.49,0,0,0,7.84-5.15c.73-1.68,1-3.56-.19-5-2.84-3.44-3.74,3.29-3.74,3.29s-1.49-6.73-5.08-5.09,0,7.3,0,7.3-4.34-2.13-4.49,0C309,329.76,310.6,332.77,314.8,332.85Z" transform="translate(-128.5 -5.87)"/><path class="cls-10" d="M288.81,347.62a5.89,5.89,0,0,0,5.17,1.12l-.23-.15c-3.76-2.9-9.16-5.19-12.92-5.23A29,29,0,0,1,288.81,347.62Z" transform="translate(-128.5 -5.87)"/><line class="cls-29" x1="185.52" y1="377.7" x2="178.58" y2="377.7"/><polyline class="cls-29" points="183.72 378.96 181.01 377.69 178.58 370.29"/><polyline class="cls-29" points="171.64 369.76 172.09 378.51 174.89 379.77"/><line class="cls-29" x1="177.33" y1="378.6" x2="170.27" y2="378.6"/><path class="cls-11" d="M315.05,336.18h0a9.16,9.16,0,0,0-7.73,4.23c-4.24,6.68-8.55,10.57-13.23,8.23-6-3-15-4.19-16.95-.8a7.69,7.69,0,0,1,6.18,7.58,20.47,20.47,0,0,0,14.54,18.47c0,1.83,1.17,3.31,2.58,3.31a2.75,2.75,0,0,0,2.46-2.36q1,.09,2.1.12a2.78,2.78,0,0,0,2.41,2.17c1.24.06,2.08-1.57,2.6-2.49,12.57-1.86,20.45-11.57,16.38-22.95a61.41,61.41,0,0,1-2.36-8.22A9.15,9.15,0,0,0,315.05,336.18Z" transform="translate(-128.5 -5.87)"/><path class="cls-31" d="M326.39,351.69a61.41,61.41,0,0,1-2.36-8.22,9.14,9.14,0,0,0-11.49-6.93,9.13,9.13,0,0,1,6.45,6.93,61.41,61.41,0,0,0,2.36,8.22c4.07,11.38-3.81,21.09-16.38,22.95l-.18.3.21,0a2.78,2.78,0,0,0,2.41,2.17c1.24.06,2.08-1.57,2.6-2.49C322.58,372.78,330.46,363.07,326.39,351.69Z" transform="translate(-128.5 -5.87)"/><path class="cls-22" d="M323,332.06a5.26,5.26,0,0,0,2.26,2.37c1.91,1-.38,4.32-2,2.27S323,332.06,323,332.06Z" transform="translate(-128.5 -5.87)"/><path class="cls-13" d="M323.33,338.38a15.9,15.9,0,0,1,.27-5.18l-.4-3.5s-6.95-5.57-12.37,4.58c-3.38,6.36-12.24,8.4-9.61,11.53,1.85,2.21,7.25-2.41,8.81-3.83v0c-1.5,1.55-6.32,6.94-4.52,10.07,2.75,4.76,9.05-5.1,9.05-5.1s-3.95,10.2,1.16,12.75,5.79-10.43,5.79-10.43-.46,10.4,3.95,10.76c3.68.31,1.53-9.34-.35-14.15A25.21,25.21,0,0,1,323.33,338.38Z" transform="translate(-128.5 -5.87)"/><path class="cls-32" d="M307.45,359.41s-9.58,14.75-19.54,2.39,17.17-5.58,17.17-5.58" transform="translate(-128.5 -5.87)"/><path class="cls-21" d="M324.21,332.19a7.5,7.5,0,0,0-.71,4.53c.49,3-4.94,2.88-4.1-.7S324.21,332.19,324.21,332.19Z" transform="translate(-128.5 -5.87)"/><path class="cls-21" d="M323.59,331.2a2.38,2.38,0,1,1-2.38-2.38A2.38,2.38,0,0,1,323.59,331.2Z" transform="translate(-128.5 -5.87)"/><path class="cls-9" d="M326.54,330.07l-2.94-.33h0l-1.26-.59s-.15,3.41,1.26,4.05a6.1,6.1,0,0,0,3.26-2.3A.5.5,0,0,0,326.54,330.07Z" transform="translate(-128.5 -5.87)"/><path class="cls-15" d="M324.55,382.86a1.16,1.16,0,1,1-1.16-1.16A1.15,1.15,0,0,1,324.55,382.86Z" transform="translate(-128.5 -5.87)"/><path class="cls-15" d="M333.36,377.72a.74.74,0,1,1-1,1,.75.75,0,0,1,0-1A.73.73,0,0,1,333.36,377.72Z" transform="translate(-128.5 -5.87)"/><circle class="cls-15" cx="211.85" cy="379.43" r="0.69"/><circle class="cls-15" cx="215.25" cy="371.59" r="1.22"/><circle class="cls-15" cx="203.67" cy="380.33" r="0.9"/><path class="cls-15" d="M354.36,386a1.14,1.14,0,1,1-1.14-1.14A1.14,1.14,0,0,1,354.36,386Z" transform="translate(-128.5 -5.87)"/><path class="cls-10" d="M407.59,146l1.54,2-2-.43S407.3,146.23,407.59,146Z" transform="translate(-128.5 -5.87)"/><path class="cls-15" d="M396,109.05a9.45,9.45,0,0,0,11.35-8.55c.46-6.55.15-13.89-3.37-14.87-6.52-1.8-17.72,7.86-24.52,7a4.28,4.28,0,0,0-4.26,1.94c-3,4.18-.38,10.08,4.65,11.12Z" transform="translate(-128.5 -5.87)"/><path class="cls-9" d="M423.64,95.64c-2.06-2.06-6.17-1.78-10.54-.6a82.38,82.38,0,0,1-29.05,2.24c-1-.1-2-.14-3-.14-15.28,0-27.66,10.46-27.66,23.38S365.74,143.9,381,143.9A29.63,29.63,0,0,0,402.75,135a64.42,64.42,0,0,1,10.31-9.36,34.69,34.69,0,0,0,4.75-4C426.6,112.84,429.21,101.2,423.64,95.64Z" transform="translate(-128.5 -5.87)"/><ellipse class="cls-15" cx="262.69" cy="114.18" rx="19.08" ry="12.49"/><path class="cls-16" d="M412,123.81c-1.23-4.6-5.17-5.86-5.63-10.9a5,5,0,0,1,.08-1.87,6.39,6.39,0,0,0-8.52-8,3.19,3.19,0,0,0-.8-2.2c-1.63-1.76-5.07-1.15-5.22-1.12l.14.74s3.17-.57,4.53.89a2.54,2.54,0,0,1,.61,1.67,14.34,14.34,0,0,0-21.74,12.3s-.75,2-1.52,4.39a40.09,40.09,0,0,1-5.56,10.85,18.37,18.37,0,0,0-3,6.88,9.88,9.88,0,0,1-6.25,7.37,22,22,0,1,0,29.09,24.49,22.59,22.59,0,0,1,7.36-13.67,18.56,18.56,0,0,0,6.67-14.28v-.11C402.16,135.86,415.32,136.21,412,123.81Z" transform="translate(-128.5 -5.87)"/><polygon class="cls-19" points="292.14 205.8 286.79 187.48 302.83 181.63 310.04 202.81 292.14 205.8"/><path class="cls-19" d="M364.78,210.65l1.71-16.47a6.7,6.7,0,0,0-6.39-7.39h0a6.7,6.7,0,0,0-7,6.23l-1.08,15.63Z" transform="translate(-128.5 -5.87)"/><polygon class="cls-10" points="245.44 139.89 243.61 141.09 246.59 141.09 245.44 139.89"/><path class="cls-19" d="M369,385.05l1.35-8.08a40.91,40.91,0,0,0,.43-10c-2.22-27.8-4.48-53.12-6.31-74.23a10.92,10.92,0,0,1,10.89-11.86h0a10.93,10.93,0,0,1,10.9,11.67c-.78,11.41-1.77,23.14-2.78,34.11-2,22-4.75,41-5.82,48.16a24.27,24.27,0,0,0-.14,6.2l1.24,7.59c.18,1.12.72,3.11,1,4a2.94,2.94,0,0,1,.11.84v.43a3.15,3.15,0,0,1-3.15,3.15H369a3.3,3.3,0,0,1-3-1.69,3.18,3.18,0,0,1,.08-3.07A21,21,0,0,0,369,385.05Z" transform="translate(-128.5 -5.87)"/><path class="cls-16" d="M385.2,306.81c-9.78,0-19.86-4-19.86-4-2.95-33.89-5.07-58.71-4.65-68.27a33.72,33.72,0,0,1,2.55-11.78c8-18.86,23-13.66,24.48,21.74.66,15.43-.67,39.15-2.52,62.34Z" transform="translate(-128.5 -5.87)"/><path class="cls-19" d="M395.32,306.11l-4.16-13.69A11.45,11.45,0,0,1,401,277.69h0a11.48,11.48,0,0,1,12.55,10.68c.39,5.83.3,10.82.49,13.07.95,11.11-4.43,61.29-6,75.9a9.23,9.23,0,0,0,2.13,7c2.36,2.27,4.81,5.62,12.14,7.18.58.13,1.16.27,1.7.43a1.59,1.59,0,0,1-.09,3.07s-.64,2-15.06-1.07l-8.24-2c-3.12-1.27-2.46-5.55-1.69-8.83h0a35.51,35.51,0,0,0,2.33-16.54Z" transform="translate(-128.5 -5.87)"/><path class="cls-16" d="M387.09,279l24.33-2.37c.91,4.7,1.68,9.15,2.22,13.06.3,5.24.24,9.64.41,11.71,0,.19,0,.42,0,.63-1.62,1.14-14.22,4.69-18.59,5.9l-.18-1.86-.66-2.16.31-2.07s-.86-1.62-2.26-4.35Z" transform="translate(-128.5 -5.87)"/><path class="cls-18" d="M391.68,215.86l-1.41-.14c-.06.62-1.48,15.19,2.32,19.1a3.23,3.23,0,0,0,2.39,1.05h.26l-.1-1.41a1.82,1.82,0,0,1-1.53-.62" transform="translate(-128.5 -5.87)"/><path class="cls-18" d="M406.12,243.87a62.24,62.24,0,0,0-13.81,5.72,18.88,18.88,0,0,0-3.11,2.23,8.68,8.68,0,0,0-1.33,1.49,4,4,0,0,0-.78,2.05,3.51,3.51,0,0,0,.7,2.15,7.16,7.16,0,0,0,1.46,1.45,20.48,20.48,0,0,0,3.31,2c2.27,1.1,4.58,2,6.82,3a29,29,0,0,1,3.24,1.65c1,.62,2,1.39,2.17,2.29s-.75,1.83-1.53,2.75a20.24,20.24,0,0,1-2.7,2.44,18.61,18.61,0,0,1-6.55,3.28,17.42,17.42,0,0,0,6.95-2.71,20.47,20.47,0,0,0,2.94-2.39,16.6,16.6,0,0,0,1.31-1.43,2.8,2.8,0,0,0,.65-2.1,3.53,3.53,0,0,0-1-1.92,8.53,8.53,0,0,0-1.54-1.25,28.79,28.79,0,0,0-3.35-1.82c-2.26-1.07-4.57-2-6.76-3.08a19.52,19.52,0,0,1-3.09-1.8,3.39,3.39,0,0,1-1.66-2.44,4.52,4.52,0,0,1,1.61-2.7,22.37,22.37,0,0,1,2.85-2.22,55.25,55.25,0,0,1,6.45-3.57C401.55,245.82,403.83,244.84,406.12,243.87Z" transform="translate(-128.5 -5.87)"/><path class="cls-18" d="M392.93,217.55a1.34,1.34,0,1,0,1.34-1.34A1.34,1.34,0,0,0,392.93,217.55Z" transform="translate(-128.5 -5.87)"/><path class="cls-21" d="M411.68,186.15l3.61,16.22c4.71-.1,15.61-3,21.78-6.07-3.34-11-12-39.88-20.72-45.69-3-2-19.3-6.1-25.4-6.2-7.11-.13-27.55,4-28.76,5.16-18.75,18.41-19.66,56.48-19.66,56.48l23.71,1.7s.15-.75.4-2c.5,4.2.86,6.92.86,6.92h0l-.12.17c-18.86,29.37-15.33,87.27-15.33,87.27,21.28,3.41,54.67,4.17,74.5.64,4.12-21.24-8.28-62-18.14-97.84Z" transform="translate(-128.5 -5.87)"/><path class="cls-15" d="M406.36,210.34l.54.46.21.78c-2.85,2.83-11.17,5.36-20.88,5.36a50,50,0,0,1-19-3.58l.26-.64.41-.62C384.35,218.88,403.14,214.11,406.36,210.34Z" transform="translate(-128.5 -5.87)"/><path class="cls-19" d="M379.55,145.59a5.73,5.73,0,0,0-1.05,3.24c0,4.38,5.35,9.92,11.95,9.92s11.94-5.54,11.94-9.92a5.54,5.54,0,0,0-.76-2.76A62,62,0,0,0,391,144.41,76.11,76.11,0,0,0,379.55,145.59Z" transform="translate(-128.5 -5.87)"/><path class="cls-19" d="M395.81,140.85H387L386,148.23a5.24,5.24,0,1,0,10.41.36Z" transform="translate(-128.5 -5.87)"/><path class="cls-16" d="M387,140.77a5.22,5.22,0,0,0,9,3l-.59-8.07h-7.68Z" transform="translate(-128.5 -5.87)"/><path class="cls-19" d="M382.86,122.74c.13,2.1.25,4.74-1.59,4.85s-3.93-3.59-4.06-5.68,1-2.69,2.86-2.8S382.73,120.65,382.86,122.74Z" transform="translate(-128.5 -5.87)"/><path class="cls-19" d="M401.56,122.74c-.13,2.1-.24,4.74,1.6,4.85s3.92-3.59,4-5.68-1-2.69-2.86-2.8S401.69,120.65,401.56,122.74Z" transform="translate(-128.5 -5.87)"/><path class="cls-19" d="M404.55,122.77a20.91,20.91,0,0,1-8.3,17.15c-1.53,1.25-6.2,1.31-7.77.14-3.62-2.68-8.4-7.33-8.4-17.15,0-10.85,5.9-15.29,12.33-15.29S404.55,111.91,404.55,122.77Z" transform="translate(-128.5 -5.87)"/><path class="cls-16" d="M406.23,108.91c0-.32-.2-.59,0-.84l0,0c1.07-1.44-1.9-6.24-7.13-4.89l-.06,0a9,9,0,0,1-5.59-.4,11.73,11.73,0,0,0-5.34-.66,7.22,7.22,0,0,0-5.78,3.75,17.15,17.15,0,0,0-1.51,1.22c-4.31,3.9-3.54,11.76-3.54,11.76h0a3.45,3.45,0,0,1,2.77,3.38v3.54a.62.62,0,0,0,1.23,0l.1-2.22a5.51,5.51,0,0,1,4.07-5,9.75,9.75,0,0,0,3.88-2.07,19.1,19.1,0,0,0,2.92-3.41c-1.42,4.78-6.38,8.37-6.38,8.37,7.33-1.42,10.89-7.28,12-9.46a11.49,11.49,0,0,1,4.33,4.48,10.32,10.32,0,0,1,1.37,5.18V126a.61.61,0,0,0,1.22,0v-2.23a3.36,3.36,0,0,1,.74-2.07C407.82,118.82,406.14,115.34,406.23,108.91Z" transform="translate(-128.5 -5.87)"/><path class="cls-33" d="M367,152.94s5.53,10.52,3.84,21.07" transform="translate(-128.5 -5.87)"/><path class="cls-33" d="M380.27,180.1s22.27-3.83,20.32,0-20.71,4.88-16.49,8.46,11.51,3.52,11.51,3.52" transform="translate(-128.5 -5.87)"/><path class="cls-33" d="M415.29,152.94s-6,11.47-3,30.08" transform="translate(-128.5 -5.87)"/><path class="cls-27" d="M413.73,194.88a105.89,105.89,0,0,0,16.39-5.69" transform="translate(-128.5 -5.87)"/><rect class="cls-11" x="240.53" y="172.52" width="40.24" height="37.32"/><path class="cls-11" d="M378.5,145.12l-4.56.64c1.45,3.93-.66,21-1.9,34.79h6.46C378.91,166.87,380.44,148,378.5,145.12Z" transform="translate(-128.5 -5.87)"/><rect class="cls-9" x="242.61" y="186.79" width="48.81" height="13.01"/><path class="cls-11" d="M407.59,146l-3.78-.55c-2.42,4.38-2.32,20.31-2.68,35.14h6.46C407,166.73,405.77,150.55,407.59,146Z" transform="translate(-128.5 -5.87)"/><path class="cls-22" d="M415,143.35a5.78,5.78,0,0,0,2.49,2.62c2.11,1.09-.41,4.77-2.27,2.51S415,143.35,415,143.35Z" transform="translate(-128.5 -5.87)"/><path class="cls-21" d="M405.93,144.22a9.36,9.36,0,0,0,8.67-5.69c.81-1.84,1.13-3.92-.22-5.55-3.13-3.8-4.12,3.64-4.12,3.64s-1.66-7.44-5.62-5.62,0,8.06,0,8.06-4.79-2.35-4.95,0C399.56,140.82,401.3,144.14,405.93,144.22Z" transform="translate(-128.5 -5.87)"/><path class="cls-6" d="M415.21,140.74s-7.71-6.16-13.65,5.07-11.89,19.15-18.5,15.85-16.51-4.62-18.71-.88a8.48,8.48,0,0,1,6.82,8.37c.22,7.26,6,21.28,24,21.58,17,.27,28.63-11.54,23.56-25.7s-3.08-20.42-3.08-20.42Z" transform="translate(-128.5 -5.87)"/><path class="cls-34" d="M402.22,150.87s-9,7.93-6.61,12.55,8.59-4.84,8.59-4.84-3.74,9.69,1.1,12.11,5.51-9.91,5.51-9.91-.44,9.88,3.74,10.22.44-12.86-1.32-15.5" transform="translate(-128.5 -5.87)"/><path class="cls-34" d="M397.82,173.55s-10.57,16.3-21.58,2.64,19-6.16,19-6.16" transform="translate(-128.5 -5.87)"/><path class="cls-21" d="M416.33,143.5a8.25,8.25,0,0,0-.78,5c.54,3.37-5.46,3.18-4.54-.78S416.33,143.5,416.33,143.5Z" transform="translate(-128.5 -5.87)"/><path class="cls-21" d="M415.64,142.4a2.62,2.62,0,1,1-2.62-2.62A2.62,2.62,0,0,1,415.64,142.4Z" transform="translate(-128.5 -5.87)"/><path class="cls-9" d="M418.9,141.15l-3.25-.36h0l-1.39-.65s-.17,3.77,1.39,4.47c1.12-.16,2.33-1.08,3.6-2.53A.56.56,0,0,0,418.9,141.15Z" transform="translate(-128.5 -5.87)"/><rect class="cls-20" x="238.72" y="170.51" width="6.71" height="39.83"/><rect class="cls-20" x="288.78" y="170.51" width="6.71" height="39.83"/><path class="cls-35" d="M411,212.39H373.52v57.13a3.4,3.4,0,0,0,2.6,3.3c13.57,3.3,28.77,3.48,47.39-2.94a3.48,3.48,0,0,0,1.52-1C422,251.63,416.39,231.62,411,212.39Z" transform="translate(-128.5 -5.87)"/><path class="cls-9" d="M403.64,177.06a16,16,0,0,1-16.1,1c-7.91-3.9-19.22-8.11-23.35-2.74-6.6,8.6,4.3,14.59,10.81,14.24s28.85-1.51,28.85-1.51,21.36,8,24-6.88C430.21,168,422.2,164.93,403.64,177.06Z" transform="translate(-128.5 -5.87)"/><path class="cls-11" d="M419,268.14c-18.63,6.41-33.83,6.24-47.4,2.94a3.39,3.39,0,0,1-2.59-3.3V210.65h40.24l12,53.5A3.44,3.44,0,0,1,419,268.14Z" transform="translate(-128.5 -5.87)"/><rect class="cls-23" x="238.72" y="170.51" width="6.71" height="39.83"/><rect class="cls-23" x="288.78" y="170.51" width="6.71" height="39.83"/><rect class="cls-20" x="230.64" y="195.73" width="72.19" height="16.37"/><rect class="cls-20" x="230.64" y="174.67" width="72.19" height="16.37"/><path class="cls-25" d="M377.26,190.31s8.53,1.4,7.66-1.12-11.54-1.77-12.81,0,13.73,5.81,25.15,2.89" transform="translate(-128.5 -5.87)"/><path class="cls-25" d="M426.56,188.73a31.65,31.65,0,0,0-21.15-3.49c-7.15,1.39-28,.62-36.38-6" transform="translate(-128.5 -5.87)"/><path class="cls-9" d="M373.05,116.2c2.49-5,9.66-8.63,18.14-8.63s15.66,3.62,18.15,8.63h12.9c5.06-7.69,5.88-16.09,1.4-20.56-2.06-2.06-6.17-1.78-10.54-.6a82.15,82.15,0,0,1-29.05,2.23c-1-.09-2-.13-3-.13-13.53,0-24.79,8.21-27.19,19.06Z" transform="translate(-128.5 -5.87)"/><path class="cls-19" d="M353,201.13c5.31.5,37.75,6.39,37.43,9.76s-35.75,5.82-41.07,5.32-7.48-5.62-7.16-9S347.7,200.64,353,201.13Z" transform="translate(-128.5 -5.87)"/><path class="cls-19" d="M395.13,211.79l-1.47.13-10.2,1.17-2-6.3,6.13-2.34,5.51-3.44a25.84,25.84,0,0,1,3.58-.87.58.58,0,0,1,.3,1,3.64,3.64,0,0,1-2.17.9l-2.25,1.3,5.65-1.64,2.9-.31a2.46,2.46,0,0,1,1.56.36h0a.45.45,0,0,1,.21.34.43.43,0,0,1-.14.38l0,0a2.55,2.55,0,0,1-1.45.66l-2.67.27-4.15,1.18a.22.22,0,0,0-.14.17.14.14,0,0,0,.06.12.15.15,0,0,0,.13,0l3.65-.87,2.9-.31a2.46,2.46,0,0,1,1.56.36l0,0a.45.45,0,0,1,.07.71l0,0a2.49,2.49,0,0,1-1.45.66l-2.67.27L394.27,207a.28.28,0,0,0-.2.24.31.31,0,0,0,.1.24.32.32,0,0,0,.25,0l2.76-.83,2.88-.46a2.48,2.48,0,0,1,1.58.27h0a.44.44,0,0,1,.23.33.41.41,0,0,1-.12.38l0,0a2.43,2.43,0,0,1-1.41.74l-2.65.42-3.38,1.18a.1.1,0,0,0-.08.12.13.13,0,0,0,.1.11l.4,0,2.87-.45,1.9-.87a1.26,1.26,0,0,1,1.5.43.38.38,0,0,1-.16.6L398.33,211Z" transform="translate(-128.5 -5.87)"/><rect class="cls-16" x="235.93" y="391.11" width="16.62" height="4.65"/><rect class="cls-16" x="268.14" y="387.43" width="28.46" height="4.65"/><polygon class="cls-15" points="252.55 360.78 238.72 360.78 240.2 376.99 235.93 391.11 252.55 391.11 252.55 360.78"/><path class="cls-9" d="M375.36,390.91h-4.75V366.79a1.94,1.94,0,0,1,1.94-1.94h3.73a1.94,1.94,0,0,1,2,1.94Z" transform="translate(-128.5 -5.87)"/><path class="cls-36" d="M369.45,386.65a8.2,8.2,0,0,1,7.35,0" transform="translate(-128.5 -5.87)"/><path class="cls-9" d="M372.74,386h0a8.31,8.31,0,0,0-8.31,8.31V397h16.62v-2.67A8.31,8.31,0,0,0,372.74,386Z" transform="translate(-128.5 -5.87)"/><line class="cls-36" x1="241.52" y1="377.81" x2="248.75" y2="375.13"/><line class="cls-36" x1="241.52" y1="372.81" x2="249.18" y2="369.97"/><line class="cls-36" x1="241.52" y1="366.81" x2="249.92" y2="363.7"/><line class="cls-36" x1="248.44" y1="377.81" x2="241.21" y2="375.13"/><line class="cls-36" x1="249.18" y1="372.81" x2="241.52" y2="369.97"/><line class="cls-36" x1="249.55" y1="366.81" x2="241.15" y2="363.7"/><path class="cls-15" d="M425.11,390.24a7.9,7.9,0,0,0-7.9-7.89H412V364H396.64l1.73,17-1.73,12.35H412v0h13.11Z" transform="translate(-128.5 -5.87)"/><path class="cls-9" d="M419.56,382.7a8.3,8.3,0,0,0-5.92,7.94v2.67h11.47v-3.07A7.91,7.91,0,0,0,419.56,382.7Z" transform="translate(-128.5 -5.87)"/><path class="cls-9" d="M405.22,363.79l1.93,14.95a7.64,7.64,0,0,0,6.43,6.59l5.79.89.6-3.38-1.44-.5a23.26,23.26,0,0,0-2.49-.63,4.59,4.59,0,0,1-3.59-4.89l1.16-13.1a1.69,1.69,0,0,0-1.68-1.83h-5A1.69,1.69,0,0,0,405.22,363.79Z" transform="translate(-128.5 -5.87)"/><path class="cls-36" d="M418.53,382.34s-1.64-.39-4.95,3.36" transform="translate(-128.5 -5.87)"/><line class="cls-36" x1="279.75" y1="375.95" x2="288.67" y2="375.83"/><line class="cls-36" x1="284.87" y1="373.71" x2="282.24" y2="378.74"/><line class="cls-36" x1="276.71" y1="369.34" x2="284.09" y2="371.39"/><line class="cls-36" x1="284.74" y1="367.79" x2="277.58" y2="372.81"/><line class="cls-36" x1="276.15" y1="362.84" x2="284.57" y2="366.21"/><line class="cls-36" x1="284.74" y1="362.4" x2="276.71" y2="366.81"/><path class="cls-19" d="M439,210.17c-.68-3.31-3.81-7-9.79-5.73-3.83.84-22.45,9.95-23.75,10.59a4.5,4.5,0,0,1,.09.84v5.66h.95c.24,0,.45,0,.68.06h0c.08,0,18.19.1,24.43-2.41C435.21,217.74,440.1,215.49,439,210.17Z" transform="translate(-128.5 -5.87)"/><path class="cls-19" d="M405.41,215.07s-7.76-3.29-11.6-1.39a11.34,11.34,0,0,1-4.25,1,.49.49,0,0,0-.34.8h0a2.83,2.83,0,0,0,3,.86l1.13-.35S405,219.94,405.41,215.07Z" transform="translate(-128.5 -5.87)"/><path class="cls-19" d="M406.46,214.55l-6.14,1.92a30.28,30.28,0,0,1-8.5,1.38l-6.56.13s1.91,2.61,8.69,3.12c1.28.09,3.65.72,4.89.71s8.8-.22,8.8-.22Z" transform="translate(-128.5 -5.87)"/><path class="cls-33" d="M360.64,301.31s-6.59-41.89,3.79-79.5" transform="translate(-128.5 -5.87)"/><path class="cls-29" d="M360.64,169.45s15.13,1.9,23,9.78" transform="translate(-128.5 -5.87)"/><path class="cls-29" d="M350.15,176.39s6.87-5,14.28-3.59" transform="translate(-128.5 -5.87)"/><path class="cls-29" d="M373.94,169.45s4,2.77,9,6.94" transform="translate(-128.5 -5.87)"/><path class="cls-29" d="M387.89,172.92s-7.46,2.86-9.22,5.5" transform="translate(-128.5 -5.87)"/><path class="cls-29" d="M390,175.67s5.35,5.68,14.59,2.73" transform="translate(-128.5 -5.87)"/><path class="cls-29" d="M410.4,171s-6.34,4.64-7.53,7.84" transform="translate(-128.5 -5.87)"/><path class="cls-29" d="M429.42,170.27s-5.18-5.91-15.69,2.28" transform="translate(-128.5 -5.87)"/><path class="cls-29" d="M430.74,168a7.22,7.22,0,0,1-3.3,9.48" transform="translate(-128.5 -5.87)"/><path class="cls-29" d="M434.48,174.93s-5.71,2.55-7.92,4.89" transform="translate(-128.5 -5.87)"/><path class="cls-29" d="M432.39,185.24s-2.75-4.87-6.38-7.49" transform="translate(-128.5 -5.87)"/><line class="cls-29" x1="298.06" y1="177.15" x2="298.94" y2="170.51"/><path class="cls-29" d="M362.14,188.22l2.29-8.4c-1.24-3.33-8.44-4.15-8.44-4.15" transform="translate(-128.5 -5.87)"/><path class="cls-29" d="M367.23,184l-1.44-5.56s-6.42,1.54-8.5,6.38" transform="translate(-128.5 -5.87)"/><line class="cls-29" x1="302.02" y1="192.25" x2="286.8" y2="192.25"/><path class="cls-29" d="M434.48,195.59s-12.34,2.45-15.09,6.29" transform="translate(-128.5 -5.87)"/><path class="cls-29" d="M428.26,203.19a9.38,9.38,0,0,0-7.21-4" transform="translate(-128.5 -5.87)"/><path class="cls-29" d="M360.21,202.23s11-3.89,14.88-3.06" transform="translate(-128.5 -5.87)"/><path class="cls-29" d="M354.89,197.58s13.49,1.1,17.26,5.61" transform="translate(-128.5 -5.87)"/><line class="cls-29" x1="239.15" y1="189.01" x2="235.85" y2="191.7"/><path class="cls-29" d="M408.14,200.14s6.34,1.18,7.15,7.23" transform="translate(-128.5 -5.87)"/><line class="cls-29" x1="277.62" y1="195.21" x2="277.33" y2="199.8"/><path class="cls-29" d="M413.37,198.13s4.39-3.06,4.94-4.56" transform="translate(-128.5 -5.87)"/><path class="cls-10" d="M369,263.05v1a90.14,90.14,0,0,0,23.08,3.07c8.89,0,19.07-1.45,28.43-6.22l-.23-1C399.28,270.77,373.94,264.44,369,263.05Z" transform="translate(-128.5 -5.87)"/><path class="cls-32" d="M382.93,223.75l1.21,12.48a5.5,5.5,0,0,0,5.8,5l10.38-.6a5.5,5.5,0,0,0,5.16-6.07l-1.12-10.78" transform="translate(-128.5 -5.87)"/></g><g class="cls-12"><path class="cls-10" d="M644.47,369.78c37-118.64,6-185.66,6-185.66l-9.86,185.66Z" transform="translate(-128.5 -5.87)"/><path class="cls-11" d="M708.28,185.22s-73.71,95.19-82,185.44h2.44c4.56-16.94,13.74-45.23,25.86-52.66,17.64-10.82,46.71-16.91,42.74-36.76h0a25.13,25.13,0,0,1,11.84-26.46c5.22-3.12,9.89-7.35,10.62-12.68a69.29,69.29,0,0,0-.38-16.74,23.31,23.31,0,0,1,11.3-22.9c6.55-3.89,12.86-10.16,12.86-19.9C743.51,162.3,716.38,174.09,708.28,185.22Z" transform="translate(-128.5 -5.87)"/><path class="cls-37" d="M708.28,185.22s-73.71,95.19-82,185.44h2.44c4.56-16.94,13.74-45.23,25.86-52.66,17.64-10.82,46.71-16.91,42.74-36.76h0a25.13,25.13,0,0,1,11.84-26.46c5.22-3.12,9.89-7.35,10.62-12.68a69.29,69.29,0,0,0-.38-16.74,23.31,23.31,0,0,1,11.3-22.9c6.55-3.89,12.86-10.16,12.86-19.9C743.51,162.3,716.38,174.09,708.28,185.22Z" transform="translate(-128.5 -5.87)"/><path class="cls-11" d="M611.34,292.32,623,373.67C631.17,326.26,611.34,292.32,611.34,292.32Z" transform="translate(-128.5 -5.87)"/><path class="cls-15" d="M604.59,368.58c7.58-5.63,19.65-11.46,30.11-2.47h0A21.32,21.32,0,0,0,654,368.82c3.58-1.21,7.48-1.86,10.25-.45a71,71,0,0,0,10.86,3.86,1.56,1.56,0,0,1-.43,3H606.81A3.72,3.72,0,0,1,604.59,368.58Z" transform="translate(-128.5 -5.87)"/></g></g></g></svg>