<svg xmlns="http://www.w3.org/2000/svg" xmlns:xlink="http://www.w3.org/1999/xlink" viewBox="0 0 615.01 418.59"><defs><style>.cls-1,.cls-25,.cls-26,.cls-27,.cls-28,.cls-29,.cls-30,.cls-32,.cls-33,.cls-34,.cls-36{fill:none;}.cls-2{isolation:isolate;}.cls-3{opacity:0.72;}.cls-4{fill:url(#linear-gradient);}.cls-5{clip-path:url(#clip-path);}.cls-6{fill:#fff;}.cls-7{fill:#d2f0ff;}.cls-8{fill:#ffdc8c;}.cls-9{fill:#fac855;}.cls-10{fill:#177d74;}.cls-11{fill:#1c9585;}.cls-12{opacity:0.83;}.cls-13{fill:#f0e1d3;}.cls-14{fill:url(#linear-gradient-2);}.cls-15{fill:#e69632;}.cls-16{fill:#32285f;}.cls-17{fill:#59bbf8;}.cls-18{fill:#2896ff;}.cls-19{fill:#fc8867;}.cls-20{fill:#a55a3c;}.cls-21{fill:#fc5954;}.cls-22{fill:#dc1428;}.cls-23{fill:#783c28;}.cls-24{opacity:0.53;mix-blend-mode:overlay;}.cls-25{stroke:#783c28;}.cls-25,.cls-26,.cls-27,.cls-28,.cls-29,.cls-30,.cls-32,.cls-33,.cls-34,.cls-36{stroke-miterlimit:10;}.cls-26,.cls-28{stroke:#32285f;}.cls-26{stroke-width:0.5px;}.cls-27{stroke:#e69632;}.cls-29{stroke:#fac855;}.cls-30{stroke:#d8c5b6;}.cls-31{fill:url(#linear-gradient-3);}.cls-32{stroke:#177d74;}.cls-33{stroke:#dc1428;}.cls-34{stroke:#f0e1d3;}.cls-35{fill:url(#linear-gradient-4);}.cls-36{stroke:#fff;}.cls-37{fill:url(#linear-gradient-5);}</style><linearGradient id="linear-gradient" x1="379.21" y1="259.08" x2="377.23" y2="61.58" gradientUnits="userSpaceOnUse"><stop offset="0" stop-color="#fff"/><stop offset="1" stop-color="#d2f0ff"/></linearGradient><clipPath id="clip-path" transform="translate(-64.33 -36.83)"><path class="cls-1" d="M588,255.7c-15.18-23.32-20.3-51.84-12.94-78.67a116.28,116.28,0,0,0,4.12-30.79c0-60.43-45.88-109.41-102.47-109.41A96.65,96.65,0,0,0,439.9,44.1,216.37,216.37,0,0,1,329,58.59a149.8,149.8,0,0,0-19.53-1.28c-83.54,0-151.27,69.65-151.27,155.58S225.9,368.46,309.44,368.46a149.12,149.12,0,0,0,21.68-1.58,132,132,0,0,1,70.61,9c19.61,8.3,42.49,13.06,66.94,13.06,72.62,0,131.49-42,131.49-93.81C600.16,281.06,595.8,267.7,588,255.7Z"/></clipPath><linearGradient id="linear-gradient-2" x1="476.82" y1="419.52" x2="424.59" y2="419.09" gradientUnits="userSpaceOnUse"><stop offset="0" stop-color="#ccc1ba" stop-opacity="0"/><stop offset="1" stop-color="#ccc1ba"/></linearGradient><linearGradient id="linear-gradient-3" x1="242.27" y1="395.44" x2="253.42" y2="383.63" gradientUnits="userSpaceOnUse"><stop offset="0" stop-color="#177d74" stop-opacity="0"/><stop offset="1" stop-color="#177d74"/></linearGradient><linearGradient id="linear-gradient-4" x1="366.77" y1="300.36" x2="336.82" y2="279" gradientUnits="userSpaceOnUse"><stop offset="0" stop-color="#dc1428" stop-opacity="0"/><stop offset="1" stop-color="#dc1428"/></linearGradient><linearGradient id="linear-gradient-5" x1="586.54" y1="247.08" x2="653.16" y2="360.95" xlink:href="#linear-gradient-3"/></defs><title>70</title><g class="cls-2"><g id="BACKGROUND" class="cls-3"><path class="cls-4" d="M588,255.7c-15.18-23.32-20.3-51.84-12.94-78.67a116.28,116.28,0,0,0,4.12-30.79c0-60.43-45.88-109.41-102.47-109.41A96.65,96.65,0,0,0,439.9,44.1,216.37,216.37,0,0,1,329,58.59a149.8,149.8,0,0,0-19.53-1.28c-83.54,0-151.27,69.65-151.27,155.58S225.9,368.46,309.44,368.46a149.12,149.12,0,0,0,21.68-1.58,132,132,0,0,1,70.61,9c19.61,8.3,42.49,13.06,66.94,13.06,72.62,0,131.49-42,131.49-93.81C600.16,281.06,595.8,267.7,588,255.7Z" transform="translate(-64.33 -36.83)"/><g class="cls-5"><path class="cls-6" d="M556.82,84.87c-4.92-15.16-21-25-36.76-22.58A37.45,37.45,0,0,1,493.3,56a26.44,26.44,0,0,0-38,9.08,37.09,37.09,0,0,1-22.64,17.34,35.08,35.08,0,1,0,21.56,66.7A57.22,57.22,0,0,1,485,146.53a28.2,28.2,0,0,0,29.78-13.47,10,10,0,0,1,9.06-5.12l.63,0a9.68,9.68,0,0,1,9.35,9,31.87,31.87,0,1,0,41.83-32.43C566.52,101.49,559.77,94,556.82,84.87Z" transform="translate(-64.33 -36.83)"/><polygon class="cls-7" points="325.04 218.85 313.51 218.85 317.42 102.24 321.78 102.24 325.04 218.85"/><ellipse class="cls-7" cx="323.54" cy="104.39" rx="5.24" ry="7.56"/><path class="cls-7" d="M315.64,99.45h4.85a0,0,0,0,1,0,0v9.14a0,0,0,0,1,0,0h-4.85a4.29,4.29,0,0,1-4.29-4.29v-.57A4.29,4.29,0,0,1,315.64,99.45Z"/><path class="cls-7" d="M391.09,143.6l-34,40.42a.71.71,0,0,1-1,.08.69.69,0,0,1-.13-.91l28.68-44.34a4,4,0,1,1,6.73,4.35A2.92,2.92,0,0,1,391.09,143.6Z" transform="translate(-64.33 -36.83)"/><path class="cls-7" d="M390.17,135.7l35.94,38.69a.7.7,0,0,1-1,1l-40.49-33.9a4,4,0,1,1,5.15-6.15C389.93,135.46,390.06,135.58,390.17,135.7Z" transform="translate(-64.33 -36.83)"/><path class="cls-7" d="M383.94,140.29l-6.43-52.42a.7.7,0,0,1,.61-.78.68.68,0,0,1,.76.52l12.92,51.21a4,4,0,0,1-7.77,2A4.63,4.63,0,0,1,383.94,140.29Z" transform="translate(-64.33 -36.83)"/><polygon class="cls-7" points="369.77 228.99 358.96 228.99 362.63 119.62 366.72 119.62 369.77 228.99"/><ellipse class="cls-7" cx="368.37" cy="121.64" rx="4.91" ry="7.09"/><path class="cls-7" d="M429.84,162.41h-4.29a4.29,4.29,0,0,1-4.29-4.29h0a4.29,4.29,0,0,1,4.29-4.28h4.29Z" transform="translate(-64.33 -36.83)"/><path class="cls-7" d="M434.94,161.79l-37.48,21.33a.7.7,0,0,1-.79-1.16l33.79-26.8a4,4,0,0,1,5,6.29C435.29,161.57,435.1,161.69,434.94,161.79Z" transform="translate(-64.33 -36.83)"/><path class="cls-7" d="M435,153.11l33.56,36.44a.69.69,0,0,1,0,1,.7.7,0,0,1-.92,0l-38.11-31.65a4,4,0,1,1,5.12-6.17C434.77,152.85,434.91,153,435,153.11Z" transform="translate(-64.33 -36.83)"/><path class="cls-7" d="M428.71,156.65l6.3-47.39a.7.7,0,0,1,.79-.6.71.71,0,0,1,.61.69l.28,47.81a4,4,0,0,1-8,.05A3.52,3.52,0,0,1,428.71,156.65Z" transform="translate(-64.33 -36.83)"/><polygon class="cls-7" points="401.44 222.08 390.63 222.08 394.3 112.71 398.39 112.71 401.44 222.08"/><path class="cls-7" d="M469.28,151.57c0,3.92-2.2,7.09-4.91,7.09s-4.92-3.17-4.92-7.09,2.2-7.1,4.92-7.1S469.28,147.65,469.28,151.57Z" transform="translate(-64.33 -36.83)"/><path class="cls-7" d="M461.51,155.5h-4.29a4.29,4.29,0,0,1-4.29-4.28h0a4.29,4.29,0,0,1,4.29-4.29h4.29Z" transform="translate(-64.33 -36.83)"/><path class="cls-7" d="M460.21,156.85,414.5,137.72a.7.7,0,0,1,.46-1.32l47.84,12.88a4,4,0,1,1-2.09,7.74A4.2,4.2,0,0,1,460.21,156.85Z" transform="translate(-64.33 -36.83)"/><path class="cls-7" d="M467.56,150.78l8.84,41.56a.7.7,0,0,1-1.34.39l-15.17-39.68a4,4,0,1,1,7.49-2.87A4.56,4.56,0,0,1,467.56,150.78Z" transform="translate(-64.33 -36.83)"/><path class="cls-7" d="M461.11,149.06l45.13-20.43a.7.7,0,0,1,.66,1.24l-42,26.25a4,4,0,1,1-4.25-6.8A3.67,3.67,0,0,1,461.11,149.06Z" transform="translate(-64.33 -36.83)"/><path class="cls-8" d="M138.32,323a38.4,38.4,0,0,1,29.43-34c54-12.76,221.14-36.7,323.76-50.88A211.32,211.32,0,0,1,633.2,268.43l1.2.76A67,67,0,0,1,665.91,326h0a67,67,0,0,1-71.45,66.84L174,364.75A38.41,38.41,0,0,1,138.32,323Z" transform="translate(-64.33 -36.83)"/><path class="cls-9" d="M630.06,450.43H131.35V259.85S405.75,281.44,494,305C668.37,351.37,630.06,450.43,630.06,450.43Z" transform="translate(-64.33 -36.83)"/><path class="cls-8" d="M99.29,262.86c2.92-.13,5.6-.2,8.37-.27l8.22-.16q8.19-.14,16.37-.13c10.9,0,21.78.15,32.65.37q32.63.79,65.14,3t64.89,6l8.09.94,8.08,1.05c5.38.72,10.77,1.35,16.14,2.19l16.11,2.38,16.08,2.67,4,.67,4,.74,8,1.48,8,1.49c2.67.51,5.32,1.09,8,1.63,5.31,1.12,10.64,2.17,15.94,3.35L423.28,294c2.65.58,5.29,1.25,7.92,1.94l7.89,2,7.89,2c2.63.7,5.24,1.47,7.85,2.21,5.22,1.51,10.47,2.92,15.66,4.51L486,311.58c1.29.42,2.6.8,3.88,1.24l3.85,1.35,7.7,2.69,7.69,2.7c2.55.94,5.07,1.95,7.61,2.93l7.6,2.95c2.52,1,5.08,1.91,7.56,3l15,6.46a495,495,0,0,1,57.53,30.62l-3.62,6a486.82,486.82,0,0,0-57.77-27.47l-15-5.67c-2.48-1-5-1.76-7.56-2.63l-7.58-2.56c-2.53-.84-5.05-1.72-7.59-2.54l-7.67-2.3-7.66-2.3-3.83-1.15c-1.28-.38-2.58-.69-3.87-1.05l-15.47-4.12c-5.16-1.33-10.38-2.48-15.57-3.73-2.6-.61-5.18-1.25-7.79-1.82l-7.84-1.64-7.84-1.63c-2.61-.56-5.22-1.1-7.85-1.56l-15.75-2.89c-5.26-.93-10.54-1.71-15.81-2.58-2.64-.41-5.27-.87-7.91-1.25l-7.93-1.1-7.94-1.11-4-.54-4-.48-15.9-1.9-15.94-1.63c-5.31-.58-10.64-1-16-1.43l-8-.68-8-.56q-32-2.28-64-3t-64-.07c-10.66.26-21.32.57-32,1.07-5.31.25-10.62.52-15.92.85l-7.92.51c-2.6.19-5.31.39-7.76.6Z" transform="translate(-64.33 -36.83)"/><path class="cls-8" d="M64.33,311.86a15.77,15.77,0,0,1,2.36-3.16,19.29,19.29,0,0,1,2.47-2.11,18.93,18.93,0,0,1,2.31-1.33c.5-.24.51-.22.74-.32l.56-.22c.35-.14.81-.3,1.08-.38l1.36-.38,1-.22.87-.17.8-.13,1.39-.2c1.75-.22,3.28-.35,4.79-.46,3-.22,5.83-.34,8.66-.43,5.64-.19,11.16-.24,16.67-.24,11,0,21.93.26,32.84.63q32.7,1.13,65.2,3.73c43.35,3.41,86.55,8.44,129.45,15.54s85.5,16.28,127.14,29.17a534,534,0,0,1,61.25,22.92c19.87,9,39.21,19.57,56.71,32.86l-4.12,5.66c-17.46-12.06-36.71-21.46-56.48-29.39a520.26,520.26,0,0,0-60.9-19.7c-41.38-10.79-83.72-17.88-126.25-23S248.88,332.4,206.07,331c-21.41-.7-42.82-1-64.17-.77-10.67.12-21.33.36-31.89.83-5.27.23-10.53.53-15.67.93-2.56.2-5.11.42-7.47.71-1.18.14-2.34.3-3.25.46l-.61.12-.2.05-.12,0s0,0,0,0l.39-.1c.1,0,.41-.13.6-.21l.32-.13.51-.23a12.37,12.37,0,0,0,1.87-1.07,18,18,0,0,0,2.28-2,13.8,13.8,0,0,0,2.18-3Z" transform="translate(-64.33 -36.83)"/><path class="cls-8" d="M92.92,346.74c5.58.14,10.92.34,16.36.55l16.22.74q16.2.8,32.36,1.86Q190.2,352,222.44,355c43,4.05,85.87,9.3,128.5,16.29S436,387,477.62,398.89a616.1,616.1,0,0,1,61.51,20.95c20.07,8.19,39.76,17.65,58,29.66l-3.73,5.92c-18.18-10.83-37.79-19.19-57.78-26.3a604.43,604.43,0,0,0-61.24-17.81c-41.45-9.82-83.66-16.47-126-21.49s-85-8.25-127.63-10.33q-32-1.55-64-2.16-16-.31-32-.39h-16c-5.29,0-10.68.08-15.84.18Z" transform="translate(-64.33 -36.83)"/><path class="cls-6" d="M311.91,132.66a47.77,47.77,0,0,1-24.47-18.54,33.91,33.91,0,0,0-42-12.24c-11.41,5.09-24.31,6.16-36,1.69a50.13,50.13,0,0,0-38.17,92.67c11,4.87,20.26,13.2,25.36,24.13a44.9,44.9,0,0,0,77.72,6.36,40.67,40.67,0,0,1,29.09-17.15,39.66,39.66,0,0,0,8.46-76.92Z" transform="translate(-64.33 -36.83)"/><path class="cls-10" d="M231.22,231.36l53.69,145.85C275.11,274.27,231.22,231.36,231.22,231.36Z" transform="translate(-64.33 -36.83)"/><path class="cls-11" d="M243.48,267.93l6,96.23C258.37,314.08,243.48,267.93,243.48,267.93Z" transform="translate(-64.33 -36.83)"/><path class="cls-10" d="M360.61,275.17l6,96.22C375.51,321.32,360.61,275.17,360.61,275.17Z" transform="translate(-64.33 -36.83)"/><path class="cls-11" d="M212,270.13l15.66,83.42C235.1,308,212,270.13,212,270.13Z" transform="translate(-64.33 -36.83)"/><path class="cls-11" d="M274.2,376.31l6.09-115.09S263.63,305.77,274.2,376.31Z" transform="translate(-64.33 -36.83)"/><path class="cls-11" d="M356.47,375.09l13.84-73.57S355.06,325.91,356.47,375.09Z" transform="translate(-64.33 -36.83)"/><path class="cls-10" d="M544.59,408.84l33.35-129.69S543.71,336.92,544.59,408.84Z" transform="translate(-64.33 -36.83)"/><path class="cls-10" d="M544.57,263.56l-3.06,128.28C567.05,324.07,544.57,263.56,544.57,263.56Z" transform="translate(-64.33 -36.83)"/><path class="cls-10" d="M415.1,328.38v70.86C425,365.48,415.1,328.38,415.1,328.38Z" transform="translate(-64.33 -36.83)"/></g><path class="cls-9" d="M199.05,302.29c-2.06-9.61-4.6-20.53-7.64-31.88-12.75-47.63-27.6-79.71-44.14-95.37l-2.06,2.18c25.41,24.05,42.19,85.56,50.74,125.07Z" transform="translate(-64.33 -36.83)"/><path class="cls-9" d="M179.94,249.78a15.56,15.56,0,0,0-5.39-1.87,16.6,16.6,0,0,1-11.48-7.83c-4.67-7.7-11.28-18.63-19.53-23.22,10.1,6.39,17.24,23.23,21.59,30,1.05,1.65,2,3.32,2.94,5.05a17.66,17.66,0,0,0,6.39,7.12c5.92,3.49,13.45,1.66,13.45,1.66S185.85,253.27,179.94,249.78Z" transform="translate(-64.33 -36.83)"/><path class="cls-9" d="M175.88,236a14.48,14.48,0,0,0-6.29-1.84,12.93,12.93,0,0,1-9.34-5.17l0-.06c-1.89-2.47-3.83-4.91-5.87-7.27s-4.12-4.66-6.36-6.83a61.07,61.07,0,0,0-7.11-6l-.05.08a61.5,61.5,0,0,1,6.76,6.35c2.1,2.26,4,4.66,5.95,7.09s3.7,5,5.44,7.5,5.25,8.08,5.25,8.08a16.4,16.4,0,0,0,6.18,7.4c5.57,3.27,12.82,1.28,12.82,1.28S181.44,239.31,175.88,236Z" transform="translate(-64.33 -36.83)"/><path class="cls-9" d="M171.59,223.38a11.62,11.62,0,0,0-5.23-1.48,10.93,10.93,0,0,1-7.9-4q-3.09-3.88-6.42-7.56-2.81-3.12-5.91-6a28.11,28.11,0,0,0-6.81-4.86h0a27.74,27.74,0,0,1,6.46,5.21c1.93,2,3.77,4.08,5.5,6.25,3,3.77,5.87,7.7,8.55,11.71,0,0,1.28,7.05,6.29,10s11.8.69,11.8.69S176.6,226.33,171.59,223.38Z" transform="translate(-64.33 -36.83)"/><path class="cls-9" d="M167.85,210.41a10,10,0,0,0-4.36-1.27,16.05,16.05,0,0,1-9.6-3.84c-.63-.56-1.27-1.11-1.91-1.66-2.43-2.07-4.93-4.07-7.51-6a81.25,81.25,0,0,0-8-5.22,36.8,36.8,0,0,0-8.81-3.69,36.36,36.36,0,0,1,8.59,4.07,80.51,80.51,0,0,1,7.73,5.53c2.47,2,4.86,4.08,7.18,6.24q1.78,1.68,3.53,3.42a15.87,15.87,0,0,1,3.53,5.26,11.75,11.75,0,0,0,4.57,5.78c4.49,2.65,10.68.45,10.68.45S172.34,213.05,167.85,210.41Z" transform="translate(-64.33 -36.83)"/><path class="cls-9" d="M160.89,196a12.49,12.49,0,0,0-6.65-1.51,10.53,10.53,0,0,1-6.63-2.18,44.09,44.09,0,0,0-5.66-3.81,54.68,54.68,0,0,0-17.82-6.49,54.18,54.18,0,0,1,17.29,7.34,45.28,45.28,0,0,1,5.67,4.29,19.4,19.4,0,0,1,4.5,5.61,12.42,12.42,0,0,0,4.47,5c4.7,2.76,10.91.9,10.91.9S165.58,198.8,160.89,196Z" transform="translate(-64.33 -36.83)"/><path class="cls-9" d="M152.87,176.65a14.77,14.77,0,0,0-7.79-3.53,14.81,14.81,0,0,1-5.54-2.16c-.88-.55-1.77-1.1-2.68-1.62a72.42,72.42,0,0,0-8-4,63.37,63.37,0,0,0-8.43-2.86,62.49,62.49,0,0,1,8.22,3.32,70,70,0,0,1,7.68,4.37l.46.3a17.09,17.09,0,0,1,6.4,8.2,13.11,13.11,0,0,0,3.12,4.85c4.22,4,10.91,3.79,10.91,3.79S157.09,180.65,152.87,176.65Z" transform="translate(-64.33 -36.83)"/><path class="cls-9" d="M154.77,184a8.86,8.86,0,0,0-5-1,15.27,15.27,0,0,1-7.8-1.62l-.73-.37c-2.22-1.1-4.49-2.12-6.8-3a60.44,60.44,0,0,0-7.07-2.24,36.47,36.47,0,0,0-7.33-1,35.15,35.15,0,0,1,7.19,1.46,58.78,58.78,0,0,1,6.82,2.67c2.21,1,4.37,2.19,6.47,3.42l.89.53a13.56,13.56,0,0,1,5.23,5.57,8.74,8.74,0,0,0,3.28,3.8c3.91,2.3,9.49.07,9.49.07S158.68,186.31,154.77,184Z" transform="translate(-64.33 -36.83)"/><path class="cls-9" d="M166.89,186.85c-.33-2.78-4.87-12.09-16.75-20.82-3-2.19-7.13-3.82-10.53-5.21a58.15,58.15,0,0,0-10.53-3.21,58,58,0,0,1,10.33,3.67,56.36,56.36,0,0,1,9.42,5.49,37.44,37.44,0,0,1,9.06,9,7.25,7.25,0,0,1,.52,7.41,8.75,8.75,0,0,0-1,4.77c.53,4.51,5.69,7.61,5.69,7.61S167.42,191.36,166.89,186.85Z" transform="translate(-64.33 -36.83)"/><path class="cls-9" d="M173.57,190.21a45.85,45.85,0,0,0-3.79-11.5,78.26,78.26,0,0,0-4.26-7.92,81.21,81.21,0,0,0-5.06-7.4,82.73,82.73,0,0,1,4.63,7.65,75.8,75.8,0,0,1,3.77,8.07c.64,1.63,1.21,3.26,1.7,4.91a7.64,7.64,0,0,1-2.25,7.76,11.28,11.28,0,0,0-3.06,4.45c-1.74,5,1.33,10.62,1.33,10.62s5.91-2.49,7.66-7.49C175.44,195.93,174.36,192.21,173.57,190.21Z" transform="translate(-64.33 -36.83)"/><path class="cls-9" d="M180.65,203.31a66.26,66.26,0,0,0-2.35-12.78c-.82-3-1.74-6-2.78-8.94s-2.13-5.86-3.34-8.73c1.06,2.93,2,5.9,2.87,8.88s1.63,6,2.28,9c.42,1.91.73,3.63,1,5.21a8.4,8.4,0,0,1-2.93,7.8,10.38,10.38,0,0,0-3.26,4.28c-1.75,4.7,1.28,10.17,1.28,10.17s5.88-2.14,7.63-6.83C182.1,208.51,181.38,205.33,180.65,203.31Z" transform="translate(-64.33 -36.83)"/><path class="cls-9" d="M187.29,213.78a54.54,54.54,0,0,0-1.09-11.31,81,81,0,0,0-2.61-9.51,76.77,76.77,0,0,0-3.74-9.09,75.59,75.59,0,0,1,3.26,9.24,77.91,77.91,0,0,1,2.1,9.53c0,.32.09.64.13,1a15.4,15.4,0,0,1-4.6,13.13,13.51,13.51,0,0,0-3.2,4.5c-2.42,5.83.61,12.61.61,12.61s6.94-2.65,9.36-8.47C189.37,220.91,188,215.88,187.29,213.78Z" transform="translate(-64.33 -36.83)"/><path class="cls-9" d="M194.53,228.72a61,61,0,0,0-1.05-14.12c-.63-3.64-1.45-7.23-2.38-10.79s-2-7.09-3.19-10.56c1,3.52,1.92,7.09,2.7,10.67s1.42,7.2,1.88,10.83c.23,1.84.42,3.69.53,5.54a9.66,9.66,0,0,1-4.42,8.78,13.28,13.28,0,0,0-4.61,4.66c-2.92,5.33-.57,12.25-.57,12.25s7.1-1.72,10-7C195.4,235.4,195,231.17,194.53,228.72Z" transform="translate(-64.33 -36.83)"/><path class="cls-9" d="M200.83,239c-.13-3.5-.47-9-.84-13.63-.3-3.79-.79-7.56-1.38-11.31s-1.3-7.47-2.15-11.16c.68,3.73,1.22,7.48,1.65,11.23s.75,7.53.88,11.3c.07,2,.1,4,0,6.05a11.83,11.83,0,0,1-5.16,9.31A15.56,15.56,0,0,0,189,246c-3.23,5.88-1.12,13.24-1.12,13.24s7.35-2.16,10.58-8C200.85,246.92,201,242,200.83,239Z" transform="translate(-64.33 -36.83)"/><path class="cls-9" d="M222.89,293.6c0-1.25-2.9-160.55-36-202.06l2.34-1.87c14.21,17.8,24.46,51.64,30.45,100.58,4.46,36.33,5.88,103,5.88,103.35Z" transform="translate(-64.33 -36.83)"/><path class="cls-9" d="M211.17,168.23a15.61,15.61,0,0,0-5.07-2.61,16.58,16.58,0,0,1-10.28-9.34c-3.55-8.28-8.58-20-16.11-25.72,9.11,7.74,13.84,25.4,17.2,32.77q1.22,2.65,2.21,5.41a17.72,17.72,0,0,0,5.34,7.94c5.37,4.27,13.09,3.51,13.09,3.51S216.55,172.5,211.17,168.23Z" transform="translate(-64.33 -36.83)"/><path class="cls-9" d="M209.07,154.05a14.56,14.56,0,0,0-6-2.69,13,13,0,0,1-8.53-6.42l0-.06c-1.53-2.71-3.11-5.4-4.8-8s-3.44-5.19-5.35-7.65a61.06,61.06,0,0,0-6.2-7l-.06.06a62.12,62.12,0,0,1,5.81,7.23c1.76,2.53,3.36,5.18,4.91,7.86s3,5.42,4.34,8.18,4.08,8.72,4.08,8.72a16.34,16.34,0,0,0,5.09,8.19c5.06,4,12.51,3.05,12.51,3.05S214.12,158.07,209.07,154.05Z" transform="translate(-64.33 -36.83)"/><path class="cls-9" d="M206.58,140.92a11.61,11.61,0,0,0-5-2.19,10.91,10.91,0,0,1-7.27-5.07c-1.69-2.85-3.45-5.64-5.31-8.38-1.56-2.32-3.24-4.57-5-6.72a27.88,27.88,0,0,0-6.07-5.76h0a27.67,27.67,0,0,1,5.67,6.06c1.64,2.24,3.16,4.56,4.58,6.95,2.47,4.15,4.74,8.44,6.84,12.78,0,0,.29,7.16,4.84,10.77s11.59,2.32,11.59,2.32S211.13,144.54,206.58,140.92Z" transform="translate(-64.33 -36.83)"/><path class="cls-9" d="M204.68,127.56a9.84,9.84,0,0,0-4.14-1.86,16.17,16.17,0,0,1-9-5.15c-.55-.64-1.1-1.27-1.66-1.9-2.12-2.39-4.31-4.72-6.61-7a81.3,81.3,0,0,0-7.23-6.28,36.48,36.48,0,0,0-8.21-4.88,36.09,36.09,0,0,1,7.94,5.22,78.87,78.87,0,0,1,6.88,6.55c2.18,2.31,4.25,4.71,6.24,7.18,1,1.27,2,2.57,3,3.88a16.2,16.2,0,0,1,2.77,5.69,11.73,11.73,0,0,0,3.72,6.37c4.07,3.24,10.5,1.93,10.5,1.93S208.76,130.8,204.68,127.56Z" transform="translate(-64.33 -36.83)"/><path class="cls-9" d="M199.78,112.36a12.51,12.51,0,0,0-6.37-2.42,10.49,10.49,0,0,1-6.26-3.08,45.1,45.1,0,0,0-5.08-4.56,54.39,54.39,0,0,0-16.75-8.9,53.94,53.94,0,0,1,16.11,9.67,44.36,44.36,0,0,1,5,5,19.15,19.15,0,0,1,3.68,6.19,12.41,12.41,0,0,0,3.74,5.52c4.27,3.39,10.68,2.41,10.68,2.41S204.05,115.75,199.78,112.36Z" transform="translate(-64.33 -36.83)"/><path class="cls-9" d="M194.54,92.05a14.81,14.81,0,0,0-7.23-4.59,14.9,14.9,0,0,1-5.18-2.9q-1.2-1-2.43-2a70.91,70.91,0,0,0-7.36-5,63.56,63.56,0,0,0-8-4A61.41,61.41,0,0,1,172.07,78a70.46,70.46,0,0,1,7,5.4l.41.36a17.13,17.13,0,0,1,5.2,9A13.07,13.07,0,0,0,187.09,98c3.62,4.55,10.28,5.27,10.28,5.27S198.16,96.59,194.54,92.05Z" transform="translate(-64.33 -36.83)"/><path class="cls-9" d="M195.39,99.59a8.79,8.79,0,0,0-4.78-1.7,15.37,15.37,0,0,1-7.51-2.69c-.22-.16-.44-.32-.67-.47-2-1.4-4.14-2.73-6.3-3.93a60.5,60.5,0,0,0-6.7-3.21,36.2,36.2,0,0,0-7.12-2,35.77,35.77,0,0,1,6.92,2.44,61.43,61.43,0,0,1,6.38,3.6c2,1.33,4,2.78,5.93,4.29l.81.64a13.64,13.64,0,0,1,4.4,6.24,8.75,8.75,0,0,0,2.72,4.22c3.55,2.83,9.4,1.39,9.4,1.39S199,102.42,195.39,99.59Z" transform="translate(-64.33 -36.83)"/><path class="cls-9" d="M207,104.1c.07-2.8-3.14-12.66-13.69-22.95-2.65-2.59-6.53-4.78-9.71-6.63a58.61,58.61,0,0,0-10-4.64A58.55,58.55,0,0,1,183.34,75a57.16,57.16,0,0,1,8.57,6.74,37.56,37.56,0,0,1,7.72,10.19,7.26,7.26,0,0,1-.51,7.41,8.69,8.69,0,0,0-1.63,4.59c-.1,4.54,4.57,8.33,4.57,8.33S206.9,108.63,207,104.1Z" transform="translate(-64.33 -36.83)"/><path class="cls-9" d="M213.15,108.35A45.92,45.92,0,0,0,211,96.44,77.47,77.47,0,0,0,207.88,88a81,81,0,0,0-4-8,84.81,84.81,0,0,1,3.52,8.21A78.15,78.15,0,0,1,210,96.7c.4,1.71.75,3.4,1,5.1a7.63,7.63,0,0,1-3.31,7.37,11.23,11.23,0,0,0-3.64,4c-2.42,4.71-.16,10.71-.16,10.71s6.2-1.64,8.62-6.35C214.2,114.27,213.66,110.44,213.15,108.35Z" transform="translate(-64.33 -36.83)"/><path class="cls-9" d="M218.35,122.31a67.2,67.2,0,0,0-.56-13q-.58-4.65-1.51-9.24c-.61-3-1.29-6.09-2.09-9.1.64,3,1.15,6.11,1.6,9.19s.79,6.16,1,9.25c.15,2,.22,3.7.24,5.3a8.41,8.41,0,0,1-4,7.31,10.2,10.2,0,0,0-3.82,3.79c-2.4,4.4-.16,10.24-.16,10.24s6.12-1.3,8.52-5.7C219.06,127.65,218.78,124.41,218.35,122.31Z" transform="translate(-64.33 -36.83)"/><path class="cls-9" d="M223.46,133.6a53.87,53.87,0,0,0,.49-11.36,80.23,80.23,0,0,0-1.26-9.78,77.7,77.7,0,0,0-2.44-9.52,77.17,77.17,0,0,1,1.95,9.61,79.37,79.37,0,0,1,.75,9.73v1a15.42,15.42,0,0,1-6.39,12.37,13.38,13.38,0,0,0-3.79,4c-3.2,5.43-1.15,12.58-1.15,12.58s7.24-1.66,10.45-7.09C224.53,141,223.89,135.78,223.46,133.6Z" transform="translate(-64.33 -36.83)"/><path class="cls-9" d="M228.55,149.4a61.81,61.81,0,0,0,.93-14.13c-.12-3.69-.44-7.36-.86-11s-1-7.29-1.69-10.9c.54,3.64.92,7.29,1.19,11s.41,7.32.36,11c0,1.85-.1,3.71-.25,5.57a9.66,9.66,0,0,1-5.6,8.07,13.22,13.22,0,0,0-5.21,4c-3.64,4.87-2.27,12-2.27,12s7.28-.71,10.92-5.58C228.48,156.13,228.69,151.9,228.55,149.4Z" transform="translate(-64.33 -36.83)"/><path class="cls-9" d="M233.36,160.5c.36-3.49.78-9,1.06-13.62.23-3.79.27-7.59.21-11.39s-.26-7.58-.58-11.35c.16,3.78.17,7.57.08,11.35s-.31,7.56-.7,11.31c-.22,2-.47,4-.81,6a11.8,11.8,0,0,1-6.41,8.5,15.57,15.57,0,0,0-5.49,4.45c-4,5.37-3,13-3,13s7.58-1.13,11.6-6.5C232.29,168.3,233.06,163.45,233.36,160.5Z" transform="translate(-64.33 -36.83)"/><path class="cls-9" d="M213.2,304.61c-.06-12.71-.49-32.13-2.25-53.21-4.09-49.14-13-83.35-26.52-101.69L182,151.49c24.91,33.83,28,118.56,28.17,153.12Z" transform="translate(-64.33 -36.83)"/><path class="cls-9" d="M203.32,229.06a15.57,15.57,0,0,0-5-2.8,16.59,16.59,0,0,1-9.91-9.74c-3.23-8.4-7.79-20.33-15.1-26.32,8.81,8.09,12.85,25.92,15.92,33.41q1.11,2.7,2,5.49a17.53,17.53,0,0,0,5,8.14c5.21,4.48,12.95,4,12.95,4S208.53,233.54,203.32,229.06Z" transform="translate(-64.33 -36.83)"/><path class="cls-9" d="M201.77,214.81a14.6,14.6,0,0,0-5.87-2.92,12.91,12.91,0,0,1-8.27-6.75l0-.06c-1.43-2.77-2.9-5.51-4.48-8.19s-3.24-5.33-5.05-7.86a61.87,61.87,0,0,0-5.93-7.19l-.07.06a61.66,61.66,0,0,1,5.53,7.45c1.66,2.6,3.16,5.31,4.6,8s2.76,5.54,4,8.35,3.74,8.88,3.74,8.88a16.38,16.38,0,0,0,4.77,8.38c4.89,4.21,12.38,3.53,12.38,3.53S206.66,219,201.77,214.81Z" transform="translate(-64.33 -36.83)"/><path class="cls-9" d="M199.79,201.6a11.66,11.66,0,0,0-4.88-2.39,10.91,10.91,0,0,1-7.07-5.35q-2.35-4.37-5-8.57c-1.48-2.38-3.07-4.7-4.76-6.92a28.12,28.12,0,0,0-5.84-6h0a27.67,27.67,0,0,1,5.44,6.28c1.55,2.3,3,4.68,4.3,7.12,2.31,4.25,4.41,8.62,6.34,13,0,0,0,7.16,4.41,10.95s11.5,2.77,11.5,2.77S204.2,205.39,199.79,201.6Z" transform="translate(-64.33 -36.83)"/><path class="cls-9" d="M198.42,188.17a10,10,0,0,0-4.08-2,16.13,16.13,0,0,1-8.76-5.49c-.53-.66-1.05-1.32-1.59-2-2-2.47-4.13-4.88-6.33-7.2a80.24,80.24,0,0,0-7-6.56,36.52,36.52,0,0,0-8-5.19,36.29,36.29,0,0,1,7.73,5.52,77.49,77.49,0,0,1,6.62,6.82c2.09,2.39,4.06,4.87,6,7.41q1.47,2,2.87,4a16.21,16.21,0,0,1,2.55,5.8,11.75,11.75,0,0,0,3.47,6.51c3.94,3.4,10.42,2.34,10.42,2.34S202.36,191.56,198.42,188.17Z" transform="translate(-64.33 -36.83)"/><path class="cls-9" d="M194.11,172.79a12.66,12.66,0,0,0-6.28-2.67,10.48,10.48,0,0,1-6.13-3.31,44.68,44.68,0,0,0-4.9-4.76,54.69,54.69,0,0,0-16.39-9.55,54.15,54.15,0,0,1,15.72,10.3,43.58,43.58,0,0,1,4.81,5.22,19.36,19.36,0,0,1,3.44,6.32,12.42,12.42,0,0,0,3.53,5.66c4.12,3.55,10.57,2.83,10.57,2.83S198.24,176.34,194.11,172.79Z" transform="translate(-64.33 -36.83)"/><path class="cls-9" d="M189.66,152.29a14.75,14.75,0,0,0-7-4.86,14.93,14.93,0,0,1-5.06-3.1c-.77-.71-1.55-1.4-2.35-2.07a70,70,0,0,0-7.16-5.33,62.9,62.9,0,0,0-7.79-4.31,62.27,62.27,0,0,1,7.5,4.72,69.38,69.38,0,0,1,6.78,5.66l.4.38a17.12,17.12,0,0,1,4.85,9.21,13,13,0,0,0,2.21,5.33c3.44,4.68,10.06,5.66,10.06,5.66S193.1,157,189.66,152.29Z" transform="translate(-64.33 -36.83)"/><path class="cls-9" d="M190.22,159.86A8.86,8.86,0,0,0,185.5,158a15.28,15.28,0,0,1-7.39-3l-.65-.49c-2-1.48-4-2.89-6.15-4.18a61.43,61.43,0,0,0-6.57-3.46,35.63,35.63,0,0,0-7-2.25,35,35,0,0,1,6.82,2.7,57.76,57.76,0,0,1,6.24,3.85c2,1.41,3.91,2.93,5.76,4.51l.78.68a13.59,13.59,0,0,1,4.16,6.41,8.84,8.84,0,0,0,2.55,4.32c3.44,3,9.34,1.75,9.34,1.75S193.66,162.82,190.22,159.86Z" transform="translate(-64.33 -36.83)"/><path class="cls-9" d="M201.64,164.81c.18-2.79-2.64-12.76-12.79-23.46-2.55-2.68-6.33-5-9.44-7a58.34,58.34,0,0,0-9.79-5,58.55,58.55,0,0,1,9.52,5.44,57.13,57.13,0,0,1,8.29,7.07,37.52,37.52,0,0,1,7.32,10.48,7.25,7.25,0,0,1-.8,7.39,8.67,8.67,0,0,0-1.8,4.52c-.28,4.53,4.24,8.5,4.24,8.5S201.37,169.34,201.64,164.81Z" transform="translate(-64.33 -36.83)"/><path class="cls-9" d="M207.63,169.3a46.09,46.09,0,0,0-1.69-12,81.46,81.46,0,0,0-2.79-8.56,83.3,83.3,0,0,0-3.67-8.18,83.49,83.49,0,0,1,3.2,8.35,78,78,0,0,1,2.28,8.61c.33,1.72.61,3.43.8,5.14a7.64,7.64,0,0,1-3.59,7.24,11.23,11.23,0,0,0-3.8,3.83c-2.6,4.61-.57,10.69-.57,10.69s6.25-1.4,8.86-6C208.45,175.26,208.05,171.41,207.63,169.3Z" transform="translate(-64.33 -36.83)"/><path class="cls-9" d="M212.27,183.46a66.54,66.54,0,0,0-.05-13q-.41-4.66-1.15-9.29c-.49-3.07-1-6.14-1.73-9.18.52,3.07.91,6.16,1.24,9.25s.54,6.19.65,9.28c.07,2,.07,3.71,0,5.31A8.42,8.42,0,0,1,207,183a10.4,10.4,0,0,0-4,3.63c-2.56,4.31-.55,10.24-.55,10.24s6.17-1.06,8.73-5.37C212.77,188.82,212.62,185.57,212.27,183.46Z" transform="translate(-64.33 -36.83)"/><path class="cls-9" d="M216.94,194.94a54.36,54.36,0,0,0,.94-11.33,78.74,78.74,0,0,0-.89-9.83,76.25,76.25,0,0,0-2.06-9.6,77,77,0,0,1,1.57,9.67,81.43,81.43,0,0,1,.38,9.75c0,.32,0,.65,0,1A15.39,15.39,0,0,1,210,196.69a13.15,13.15,0,0,0-3.94,3.86c-3.42,5.3-1.64,12.52-1.64,12.52s7.3-1.38,10.71-6.68C217.72,202.32,217.28,197.13,216.94,194.94Z" transform="translate(-64.33 -36.83)"/><path class="cls-9" d="M221.42,210.93a61.65,61.65,0,0,0,1.47-14.09c0-3.69-.15-7.38-.43-11.05s-.7-7.32-1.26-10.95c.39,3.65.63,7.32.76,11s.12,7.34-.07,11c-.1,1.85-.24,3.71-.46,5.55a9.67,9.67,0,0,1-5.91,7.85,13.2,13.2,0,0,0-5.36,3.78c-3.83,4.72-2.73,11.94-2.73,11.94s7.29-.43,11.12-5.15C221.09,217.65,221.46,213.42,221.42,210.93Z" transform="translate(-64.33 -36.83)"/><path class="cls-9" d="M225.79,222.2c.49-3.47,1.13-8.93,1.59-13.57.38-3.78.56-7.58.65-11.37s0-7.58-.14-11.37c0,3.79-.13,7.58-.36,11.35s-.6,7.54-1.14,11.27c-.29,2-.63,4-1,6a11.79,11.79,0,0,1-6.73,8.24A15.64,15.64,0,0,0,213,227c-4.22,5.21-3.45,12.84-3.45,12.84s7.62-.83,11.84-6C224.41,230,225.38,225.13,225.79,222.2Z" transform="translate(-64.33 -36.83)"/><path class="cls-9" d="M240.08,345.54c0-1.25,3.43-125.38-28.06-168.14l2.42-1.78C227.94,194,236.87,228.17,241,277.3a681.13,681.13,0,0,1,2.12,68.33Z" transform="translate(-64.33 -36.83)"/><path class="cls-9" d="M233.33,255a15.57,15.57,0,0,0-5-2.8,16.59,16.59,0,0,1-9.91-9.74c-3.22-8.4-7.79-20.33-15.1-26.32,8.81,8.08,12.85,25.92,15.92,33.41q1.11,2.7,2,5.49a17.61,17.61,0,0,0,5,8.14c5.21,4.48,13,4,13,4S238.54,259.45,233.33,255Z" transform="translate(-64.33 -36.83)"/><path class="cls-9" d="M231.78,240.72a14.47,14.47,0,0,0-5.87-2.92,12.91,12.91,0,0,1-8.27-6.75l0-.06c-1.42-2.77-2.9-5.51-4.48-8.19s-3.24-5.33-5-7.86a61.87,61.87,0,0,0-5.93-7.19l-.07.06a61.66,61.66,0,0,1,5.53,7.45c1.67,2.6,3.16,5.31,4.6,8s2.76,5.53,4,8.35,3.73,8.87,3.73,8.87a16.31,16.31,0,0,0,4.77,8.38c4.89,4.22,12.38,3.54,12.38,3.54S236.67,244.93,231.78,240.72Z" transform="translate(-64.33 -36.83)"/><path class="cls-9" d="M229.8,227.51a11.66,11.66,0,0,0-4.88-2.39,10.87,10.87,0,0,1-7.06-5.35c-1.58-2.91-3.23-5.77-5-8.57-1.48-2.38-3.06-4.7-4.76-6.92a28.12,28.12,0,0,0-5.84-6h0a27.67,27.67,0,0,1,5.44,6.28c1.55,2.3,3,4.68,4.3,7.12,2.31,4.25,4.41,8.62,6.34,13,0,0,0,7.16,4.41,10.95s11.5,2.77,11.5,2.77S234.21,231.29,229.8,227.51Z" transform="translate(-64.33 -36.83)"/><path class="cls-9" d="M228.43,214.08a9.9,9.9,0,0,0-4.08-2,16.17,16.17,0,0,1-8.76-5.49c-.53-.66-1.05-1.32-1.59-2-2-2.47-4.13-4.88-6.33-7.2a80.24,80.24,0,0,0-7-6.56,36.28,36.28,0,0,0-8-5.19,36.29,36.29,0,0,1,7.73,5.52A79.06,79.06,0,0,1,207,198c2.08,2.39,4.06,4.87,5.95,7.41,1,1.31,1.94,2.65,2.87,4a16.21,16.21,0,0,1,2.55,5.8,11.75,11.75,0,0,0,3.47,6.51c3.94,3.4,10.42,2.34,10.42,2.34S232.37,217.47,228.43,214.08Z" transform="translate(-64.33 -36.83)"/><path class="cls-9" d="M224.12,198.7a12.57,12.57,0,0,0-6.28-2.67,10.48,10.48,0,0,1-6.13-3.31,44.68,44.68,0,0,0-4.9-4.76,54.57,54.57,0,0,0-16.39-9.55,54.15,54.15,0,0,1,15.72,10.3,43.58,43.58,0,0,1,4.81,5.22,19.17,19.17,0,0,1,3.44,6.32,12.42,12.42,0,0,0,3.53,5.66c4.12,3.55,10.57,2.83,10.57,2.83S228.25,202.25,224.12,198.7Z" transform="translate(-64.33 -36.83)"/><path class="cls-9" d="M219.67,178.2a14.75,14.75,0,0,0-7-4.86,15,15,0,0,1-5.06-3.1c-.77-.71-1.55-1.4-2.35-2.07a68.51,68.51,0,0,0-7.16-5.33,62.9,62.9,0,0,0-7.79-4.31,62.27,62.27,0,0,1,7.5,4.72,69.38,69.38,0,0,1,6.78,5.66l.4.38a17.12,17.12,0,0,1,4.85,9.21,13,13,0,0,0,2.21,5.33c3.44,4.68,10.06,5.66,10.06,5.66S223.11,182.88,219.67,178.2Z" transform="translate(-64.33 -36.83)"/><path class="cls-9" d="M220.23,185.77a8.83,8.83,0,0,0-4.71-1.89,15.28,15.28,0,0,1-7.4-3l-.65-.49c-2-1.48-4-2.89-6.15-4.18a61.43,61.43,0,0,0-6.57-3.46,36.33,36.33,0,0,0-7-2.26,36,36,0,0,1,6.83,2.71,58.62,58.62,0,0,1,6.23,3.85c2,1.41,3.91,2.93,5.76,4.51l.78.68a13.61,13.61,0,0,1,4.16,6.4A8.83,8.83,0,0,0,214,193c3.44,3,9.34,1.75,9.34,1.75S223.67,188.73,220.23,185.77Z" transform="translate(-64.33 -36.83)"/><path class="cls-9" d="M231.66,190.72c.17-2.79-2.65-12.76-12.8-23.46-2.55-2.68-6.33-5-9.44-7a57.89,57.89,0,0,0-9.78-5,58.46,58.46,0,0,1,9.51,5.44,56.61,56.61,0,0,1,8.29,7.07,37.52,37.52,0,0,1,7.32,10.48,7.25,7.25,0,0,1-.8,7.39,8.67,8.67,0,0,0-1.8,4.52c-.28,4.53,4.25,8.49,4.25,8.49S231.38,195.25,231.66,190.72Z" transform="translate(-64.33 -36.83)"/><path class="cls-9" d="M237.64,195.21a46.09,46.09,0,0,0-1.69-12,79.2,79.2,0,0,0-2.79-8.56,83.3,83.3,0,0,0-3.67-8.18,83.49,83.49,0,0,1,3.2,8.35,78,78,0,0,1,2.28,8.61c.33,1.72.61,3.43.8,5.14a7.65,7.65,0,0,1-3.59,7.24,11.23,11.23,0,0,0-3.8,3.83c-2.6,4.61-.57,10.69-.57,10.69s6.25-1.4,8.86-6C238.46,201.17,238.06,197.32,237.64,195.21Z" transform="translate(-64.33 -36.83)"/><path class="cls-9" d="M242.28,209.36a67.22,67.22,0,0,0,0-13c-.27-3.11-.66-6.21-1.15-9.29s-1.06-6.14-1.74-9.18c.52,3.07.91,6.16,1.24,9.25s.55,6.19.65,9.28c.07,2,.07,3.71,0,5.31a8.39,8.39,0,0,1-4.27,7.15,10.4,10.4,0,0,0-4,3.63c-2.56,4.31-.55,10.23-.55,10.23s6.17-1.05,8.73-5.36C242.79,214.73,242.63,211.48,242.28,209.36Z" transform="translate(-64.33 -36.83)"/><path class="cls-9" d="M247,220.85a54.36,54.36,0,0,0,.94-11.33,80.67,80.67,0,0,0-.88-9.83,78.09,78.09,0,0,0-2.07-9.6,77,77,0,0,1,1.57,9.67,81.43,81.43,0,0,1,.38,9.75c0,.32,0,.65,0,1A15.41,15.41,0,0,1,240,222.6a13.26,13.26,0,0,0-3.94,3.86c-3.42,5.3-1.64,12.52-1.64,12.52s7.3-1.38,10.71-6.68C247.73,228.23,247.3,223,247,220.85Z" transform="translate(-64.33 -36.83)"/><path class="cls-9" d="M251.43,236.84a61.65,61.65,0,0,0,1.47-14.09c0-3.69-.14-7.38-.43-11.05s-.7-7.32-1.26-10.95c.4,3.65.63,7.32.76,11s.13,7.34-.07,11c-.1,1.85-.24,3.71-.46,5.55a9.67,9.67,0,0,1-5.91,7.85,13.2,13.2,0,0,0-5.36,3.78c-3.83,4.72-2.73,11.94-2.73,11.94s7.29-.43,11.12-5.15C251.1,243.56,251.47,239.33,251.43,236.84Z" transform="translate(-64.33 -36.83)"/><path class="cls-9" d="M255.8,248.1c.49-3.46,1.13-8.92,1.59-13.56.38-3.78.57-7.58.65-11.37s0-7.58-.14-11.37c0,3.79-.13,7.58-.36,11.35s-.6,7.54-1.14,11.27c-.29,2-.62,4-1,6a11.79,11.79,0,0,1-6.73,8.24,15.64,15.64,0,0,0-5.67,4.23c-4.22,5.21-3.45,12.84-3.45,12.84s7.62-.83,11.84-6.05C254.43,255.86,255.39,251,255.8,248.1Z" transform="translate(-64.33 -36.83)"/></g><g id="OBJECTS" class="cls-12"><g class="cls-3"><ellipse class="cls-13" cx="390.56" cy="386.56" rx="69.38" ry="13.15"/><path class="cls-14" d="M484,411.46c-8.86-.78-18.72-1.21-29.13-1.21-9.31,0-18.17.34-26.28,1l-3.48,17h54.94Z" transform="translate(-64.33 -36.83)"/><path class="cls-13" d="M404.66,421.2a7.43,7.43,0,0,0-1.09-3.84c-4.53,1-7.88,2.1-7.27,7.75h7.25A7.51,7.51,0,0,0,404.66,421.2Z" transform="translate(-64.33 -36.83)"/><path class="cls-15" d="M419.68,402.19c.34,5.49-5.08,11.64-9.54,13.37a51.2,51.2,0,0,1-7,1.9v7.64c5.62,0,13.31,0,18.28,0h4.38l5.63-22.85Z" transform="translate(-64.33 -36.83)"/><polygon class="cls-16" points="331.98 391.37 360.8 391.37 361.9 386.56 331.98 386.56 331.98 391.37"/><path class="cls-15" d="M496.47,421.11l0,1.3H511.9a17.76,17.76,0,0,0-1-4.88c-1.39-4.36-3.4-14.65-3.4-14.65a42,42,0,0,1-.44-10.33c.22-2.8.45-5.57.67-8.32H497.07c1,7.44.53,13.24,1,16.64C498.45,403.16,496.12,416,496.47,421.11Z" transform="translate(-64.33 -36.83)"/><path class="cls-13" d="M496.43,422.67l0-1.49a8.27,8.27,0,0,1,15.28-.26c.31,1.9.21,3.87-1.36,4.67l-7.78,1.05Z" transform="translate(-64.33 -36.83)"/><path class="cls-16" d="M496.43,422.67a33.69,33.69,0,0,0,15.47,0v4.56a37.85,37.85,0,0,1-15.47,0Z" transform="translate(-64.33 -36.83)"/><path class="cls-11" d="M521,273.63c-2.32-26.69-59.07-22-67,3.55-4.66,15.07-16.75,48.76-17.7,65.25-5.93,13-14.88,40-16.91,51.94l15.3,2.37C445.5,377,479.51,311,487.08,290.9c3,21.37,8.2,52.27,8,57.85-.6,15,1.23,39.9,1.66,49.81h13.36c.87-9,3.74-23,4.09-42.24a136.6,136.6,0,0,1,3-26.51C520.73,313.47,522.39,289.79,521,273.63Z" transform="translate(-64.33 -36.83)"/><path class="cls-10" d="M432.09,405.37l-14.44-1.61a1.9,1.9,0,0,1-1.64-2.32L418,393.3a1.9,1.9,0,0,1,2.27-1.41l14,3.21a1.88,1.88,0,0,1,1.42,2.26l-1.5,6.55A1.88,1.88,0,0,1,432.09,405.37Z" transform="translate(-64.33 -36.83)"/><path class="cls-10" d="M510,399.32H495.81a1.65,1.65,0,0,1-1.64-1.82l.65-6.47a1.65,1.65,0,0,1,1.79-1.48l13.5,1.17a1.65,1.65,0,0,1,1.51,1.64v5.31A1.65,1.65,0,0,1,510,399.32Z" transform="translate(-64.33 -36.83)"/><path class="cls-10" d="M461.06,339.36a.77.77,0,0,0,.07-.26.71.71,0,0,0-.57-.73l-9.15-2c6.26-7.14,14.53-19.51,25.41-40.23l-1.26-.67c-22.06,42-32.65,48.36-37.05,48.36h-.1a3.28,3.28,0,0,1-2.32-.94c-.2.44-.4.89-.6,1.36a4.7,4.7,0,0,0,2.84,1h.17c2.64,0,6.43-1.82,11.82-7.66l5.73,1.25-5,.57.17,1.42,8-.92c-7.5,16.66-16.64,36.12-27.8,55.27l1.23.72c11.45-19.64,20.78-39.61,28.39-56.55Z" transform="translate(-64.33 -36.83)"/><path class="cls-10" d="M504.21,346.14a4.35,4.35,0,0,1-1.11-.15c-5-1.33-8.54-9.88-10.63-25.41a215.07,215.07,0,0,1-1.69-22.65h1.43c.15,12.19,2.47,44.34,11.26,46.69a2.86,2.86,0,0,0,2.53-.54c8.35-6,11-47.89,11.06-48.31l1.43.09c-.11,1.75-2.76,43-11.66,49.38A4.39,4.39,0,0,1,504.21,346.14Z" transform="translate(-64.33 -36.83)"/><polygon class="cls-10" points="432.82 352.73 431.33 354.33 433.14 303.27 434.57 303.33 432.82 352.73"/><polygon class="cls-15" points="408.32 138.9 405.47 140.21 411.62 138.9 408.32 138.9"/><path class="cls-17" d="M559.69,176c-.07,0-.24,0-.48,0a7.88,7.88,0,0,0-3.53-2.81c-1.23-.44-6.73.46-7.95,2.1-16.9-1.08-48.81-3.25-48.81-3.25,5.46,40-11.6,23.19-15.24,2.05l-23.69,5a24.84,24.84,0,0,0-3.61,1.44c-11.79,5.77-22.73,27.93-27.62,42.33h0a3.63,3.63,0,0,0-2.7,2.73,3.25,3.25,0,0,0,.1,1.78,3.17,3.17,0,0,1-1.74,3.84c-1.11.52-2,1.25-1.81,2.24.44,2.42,5.85,7.26,5.85,7.26h0c5.53,7.27,17.15-2.64,20.75-4.52,1.79-.94,3.67-6.64,4.92-8.21.88-1.11,3.41-7.35,3.41-7.35-1,10,.09,9.63,1.82,26.39,1,9.33-13.48,26.73-9.06,32.75,4.19,5.69,32.53,3.53,49.35,3.53a108,108,0,0,0,17.3-1.26c4.73-.78,8.24-4.8,8.24-4.8.18-15.24.23-55.06-3.29-75.33,7.61-1,19.42-2.63,28-3.92a29.4,29.4,0,0,0,3.17,1.35c.63.16,1.91-2.12,2.35-2.19a25.9,25.9,0,0,0,5,2.19c1,.16,2.66-2.36,3.7-4.14,4.29-1.75,6.74-4.8,6.74-9.13C570.88,180.46,566.82,176,559.69,176Z" transform="translate(-64.33 -36.83)"/><path class="cls-18" d="M471.33,206.16l-6.23-16.54v11.32l-5.75-2.07h0a21.33,21.33,0,0,1-2.51,15.93L451,224.51Z" transform="translate(-64.33 -36.83)"/><path class="cls-18" d="M435.71,220.94s14-.35,16.3,6l3.83-10.54a12,12,0,0,1-7.42,3.25C443.8,220,439.18,219.07,435.71,220.94Z" transform="translate(-64.33 -36.83)"/><path class="cls-19" d="M506.8,189.09c2.51,12.19-1.1,23.24-8.06,24.67s-14.62-7.29-17.13-19.49,1.09-23.24,8.05-24.67S504.29,176.9,506.8,189.09Z" transform="translate(-64.33 -36.83)"/><rect class="cls-19" x="419.35" y="124.05" width="15.24" height="22.32"/><path class="cls-19" d="M480.74,136.91l-1.62,17.25c0,8.08,6.55,14.63,12.63,14.63s12.63-6.55,12.63-14.63l-1.61-17.25Z" transform="translate(-64.33 -36.83)"/><path class="cls-19" d="M480.74,136.91l-1.62,17.25c0,8.08,6.55,14.63,12.63,14.63s12.63-6.55,12.63-14.63l-1.61-17.25Z" transform="translate(-64.33 -36.83)"/><path class="cls-19" d="M504,150.33s3.58-5.62,5.45-2.15-3.75,11.79-5.29,8.3Z" transform="translate(-64.33 -36.83)"/><path class="cls-19" d="M479.92,145.66s-2.12-2.53-3.32,0,1.16,9.54,2.52,8.5Z" transform="translate(-64.33 -36.83)"/><path class="cls-16" d="M505.43,133.13l4-2.86-.63-.87-3.43,2.45a28.66,28.66,0,0,0,3-6.09l-1-.35a25.45,25.45,0,0,1-3.45,6.58,71.18,71.18,0,0,0,1-8.8c.27-6.81-24.05,2.94-29.8,7.75s4.79,14.72,4.79,14.72l2.29-8.75c4.07,11.08,17.34,2.91,20.11,1.06L504,150.33s6.52-9.36,6.65-13.42C510.75,134.66,508,133.62,505.43,133.13Z" transform="translate(-64.33 -36.83)"/><path class="cls-18" d="M452.24,279.15c-.86-1.85.78-5.79,4-13.19,2.57-5.9,5.77-13.24,7.51-20.3,3.5-14.15-3.94-45.63-4-45.94l1.39-.34c.31,1.31,7.59,32.13,4,46.62-1.77,7.18-5,14.58-7.59,20.53-2.39,5.49-4.64,10.66-4,12Z" transform="translate(-64.33 -36.83)"/><path class="cls-18" d="M505.81,247.25c-1.82-.4-17.93-4-20.35-8.36a2.39,2.39,0,0,1-.21-2c.81-2.26,5.84-4,14-6.58s18.14-5.81,17.82-9.33a1.13,1.13,0,0,0-.54-.84c-4.8-3.57-32.63,1.14-42.95,3.26l-.29-1.4c1.54-.32,37.8-7.69,44.09-3a2.6,2.6,0,0,1,1.12,1.86c.41,4.67-9.36,7.8-18.82,10.82-5.84,1.87-12.45,4-13.07,5.71a1,1,0,0,0,.12.86c1.79,3.22,14.61,6.61,19.4,7.65Z" transform="translate(-64.33 -36.83)"/><path class="cls-18" d="M460.35,272.46a9.92,9.92,0,0,1-5.46-1.88l.79-1.19c2.55,1.7,4.84,2.08,7,1.16,7.11-3.05,10-19.17,10-19.33l1.41.25c-.12.69-3.07,17-10.89,20.39A7.22,7.22,0,0,1,460.35,272.46Z" transform="translate(-64.33 -36.83)"/><path class="cls-18" d="M525.25,269.78a5.28,5.28,0,0,1-2.66-1.07c-5.35-4-5.76-17.25-5.77-17.39l-1.43,0c0,.57.44,14,6.34,18.49a6.71,6.71,0,0,0,3.51,1.37C525.24,270.75,525.24,270.27,525.25,269.78Z" transform="translate(-64.33 -36.83)"/><path class="cls-18" d="M449.46,277.77l.67,11.39s16-4.46,28.91.54c18.6,7.18,35.83,5.46,42.44-2.59l3.71-9.83S510,285,498.92,282.08C469.7,274.32,454.08,272.31,449.46,277.77Z" transform="translate(-64.33 -36.83)"/><path class="cls-19" d="M596.63,128.16a2,2,0,0,0-2.36,1.78l-.24,2.18-1.89,4.1,2-7,.52-4.78a1,1,0,0,0-.81-1.14,2,2,0,0,0-2.36,1.78l-.37,3.4-1.82,4.65.86-4.33-.32-5.16a1,1,0,0,0-1-1,2,2,0,0,0-2,2.16l.22,3.54-1.45,4.74.19-5.06-1-3.66a1,1,0,0,0-1.17-.78,2,2,0,0,0-1.56,2.51l.56,2.13-.71,5.35v0l-2.79-.89a19.15,19.15,0,0,0-1.16-2.81c-1.89-1.15-3.4-2-4.16-1.92-.37,0-.06,3.09,0,3.46l1.5,2.65a15.39,15.39,0,0,1,2.88,3.27,4.8,4.8,0,0,1,.59,4.42,13.21,13.21,0,0,1-1.61,3.17c-5.85,7.89-16.2,20.24-21.24,29.93-5.4,3.56-6.49,7.41-5.85,10.75a11,11,0,0,0,17.91,6,18.67,18.67,0,0,0,5-7.82c4.42-12.19,8-22.88,14.26-37.8l7.45-7.79L597,133l.4-3.66A1,1,0,0,0,596.63,128.16Z" transform="translate(-64.33 -36.83)"/><path class="cls-16" d="M584.8,138.66c.51-1.31,1.6-2.23,2.83-1.56l2.74,1.48s-2.22-4.54-6.19-4.11a.89.89,0,0,0-.79,1.06,20.63,20.63,0,0,1-.23,6.95S584.42,139.66,584.8,138.66Z" transform="translate(-64.33 -36.83)"/><path class="cls-9" d="M518.49,213.91l-5.39-20.35c-7,5.76-26.77,3.85-43.33.64l-9.44,58.35L451,340.11c35.57,4.32,73.09,9.87,80.64-3.36l-6.72-51.86C520.32,249.58,526.17,236.92,518.49,213.91Z" transform="translate(-64.33 -36.83)"/><path class="cls-15" d="M524.88,284.89c-2.86-22.1-1.63-35.33-2.2-47.77-.24,1.12-.47,2.24-.72,3.35-1.09,8.63-2.92,17.22-4.21,25.8a211,211,0,0,1-4.66,24.44c-3.93,14.38-10.89,28.59-22.93,37.83-11.25,8.63-25.24,10.35-38.88,8.6l-.32,3c35.57,4.32,73.09,9.87,80.64-3.36Z" transform="translate(-64.33 -36.83)"/><path class="cls-11" d="M475.76,227.86c-2.47,2.47-7.12,1.83-7.12,1.83s-.64-4.64,1.83-7.11,7.12-1.83,7.12-1.83S478.23,225.39,475.76,227.86Z" transform="translate(-64.33 -36.83)"/><path class="cls-10" d="M469.9,223.61c0-.13,0-.26,0-.4-1.84,2.56-1.3,6.48-1.3,6.48s4.65.64,7.12-1.83a5.89,5.89,0,0,0,1.35-2.21.68.68,0,0,0-1-.78,8.23,8.23,0,0,1-3.79,1.12A2.24,2.24,0,0,1,469.9,223.61Z" transform="translate(-64.33 -36.83)"/><path class="cls-20" d="M470,224.65a1.31,1.31,0,0,0-.18.23,3,3,0,0,0-.19.3,6.42,6.42,0,0,0-.33.64,6.82,6.82,0,0,0-.45,1.41,6.29,6.29,0,0,0-.13,1.51,7.5,7.5,0,0,0,.21,1.54l-.59.25a7.68,7.68,0,0,1-.67-1.62,7.54,7.54,0,0,1-.3-1.77,8.74,8.74,0,0,1,.1-1.84c.05-.3.12-.61.2-.91.05-.15.09-.3.15-.46a3,3,0,0,1,.2-.49Z" transform="translate(-64.33 -36.83)"/><path class="cls-21" d="M475.6,227.37a5,5,0,0,0-4.31.41,6.69,6.69,0,0,1-6.32-.19,4.81,4.81,0,0,0-3.72-.46c-3.11,1-4.55,5.27-3.21,9.64s4.95,7.15,8.07,6.2a4.29,4.29,0,0,0,.85-.37,2.2,2.2,0,0,1,2.1,0l.31.14c3,1.22,6.86-1.23,8.58-5.47S478.62,228.59,475.6,227.37Z" transform="translate(-64.33 -36.83)"/><path class="cls-22" d="M478.53,231.15a2.42,2.42,0,0,0-4.61-.3,11.54,11.54,0,0,1-10.72,7.24h-.05a2.24,2.24,0,0,0-1.35,4.06,5,5,0,0,0,4.31.82,4.29,4.29,0,0,0,.85-.37,2.2,2.2,0,0,1,2.1,0l.31.14c3,1.22,6.86-1.23,8.58-5.47A10.41,10.41,0,0,0,478.53,231.15Z" transform="translate(-64.33 -36.83)"/><path class="cls-23" d="M470,224.65c-.17.33-.78.37-1.36.07s-.9-.82-.72-1.15.78-.37,1.36-.08S470.19,224.31,470,224.65Z" transform="translate(-64.33 -36.83)"/><path class="cls-9" d="M476.78,174.86l-4.12.87c2.81,3,.92,16.72-1.33,25.49l3.88,1C476.11,198.68,480.07,182.11,476.78,174.86Z" transform="translate(-64.33 -36.83)"/><path class="cls-11" d="M494.88,228.27c-2.47,2.47-7.11,1.83-7.11,1.83s-.64-4.64,1.83-7.11,7.11-1.84,7.11-1.84S497.35,225.8,494.88,228.27Z" transform="translate(-64.33 -36.83)"/><path class="cls-10" d="M489,224c0-.12,0-.26,0-.39-1.83,2.55-1.29,6.48-1.29,6.48s4.64.64,7.11-1.83a6,6,0,0,0,1.35-2.21.67.67,0,0,0-1-.78,8.2,8.2,0,0,1-3.79,1.12A2.23,2.23,0,0,1,489,224Z" transform="translate(-64.33 -36.83)"/><path class="cls-20" d="M489.14,225.05a2.11,2.11,0,0,0-.18.24,2.9,2.9,0,0,0-.19.29c-.12.21-.23.43-.33.65a6.63,6.63,0,0,0-.45,1.41,6.25,6.25,0,0,0-.13,1.5,6.9,6.9,0,0,0,.22,1.55l-.6.24a7.39,7.39,0,0,1-.67-1.61,7.53,7.53,0,0,1-.3-1.78,8.08,8.08,0,0,1,.11-1.83,7.41,7.41,0,0,1,.2-.91,4,4,0,0,1,.14-.46,5.17,5.17,0,0,1,.2-.5Z" transform="translate(-64.33 -36.83)"/><path class="cls-21" d="M494.72,227.78a5,5,0,0,0-4.31.41,6.69,6.69,0,0,1-6.32-.19,4.85,4.85,0,0,0-3.72-.47c-3.11,1-4.55,5.28-3.2,9.65s4.95,7.15,8.06,6.2a5,5,0,0,0,.85-.37,2.2,2.2,0,0,1,2.11,0l.31.14c3,1.23,6.85-1.22,8.57-5.46S497.74,229,494.72,227.78Z" transform="translate(-64.33 -36.83)"/><path class="cls-22" d="M497.66,231.56a2.42,2.42,0,0,0-4.62-.3,11.54,11.54,0,0,1-10.71,7.24h-.06a2.23,2.23,0,0,0-1.35,4.05,5,5,0,0,0,4.31.83,5,5,0,0,0,.85-.37,2.2,2.2,0,0,1,2.11,0l.31.14c3,1.23,6.85-1.22,8.57-5.46A10.43,10.43,0,0,0,497.66,231.56Z" transform="translate(-64.33 -36.83)"/><path class="cls-23" d="M489.14,225.05c-.18.34-.79.37-1.36.08s-.9-.82-.73-1.16.78-.37,1.36-.07S489.31,224.72,489.14,225.05Z" transform="translate(-64.33 -36.83)"/><path class="cls-11" d="M515.2,228.27c-2.47,2.47-7.12,1.83-7.12,1.83s-.64-4.64,1.83-7.11,7.12-1.84,7.12-1.84S517.67,225.8,515.2,228.27Z" transform="translate(-64.33 -36.83)"/><path class="cls-10" d="M509.34,224c0-.12,0-.26,0-.39-1.84,2.55-1.3,6.48-1.3,6.48s4.65.64,7.12-1.83a5.82,5.82,0,0,0,1.34-2.21.67.67,0,0,0-1-.78,8.23,8.23,0,0,1-3.79,1.12A2.24,2.24,0,0,1,509.34,224Z" transform="translate(-64.33 -36.83)"/><path class="cls-20" d="M509.45,225.05a2.11,2.11,0,0,0-.18.24l-.18.29c-.12.21-.23.43-.33.65a6.63,6.63,0,0,0-.45,1.41,5.78,5.78,0,0,0-.13,1.5,6.88,6.88,0,0,0,.21,1.55l-.6.24a8.52,8.52,0,0,1-.67-1.61,7.52,7.52,0,0,1-.29-1.78,8.07,8.07,0,0,1,.1-1.83c.05-.3.12-.61.2-.91s.09-.31.14-.46.11-.29.2-.5Z" transform="translate(-64.33 -36.83)"/><path class="cls-21" d="M515,227.78a5,5,0,0,0-4.31.41,6.71,6.71,0,0,1-6.33-.19,4.83,4.83,0,0,0-3.71-.47c-3.11,1-4.55,5.28-3.21,9.65s4.95,7.15,8.06,6.2a5.07,5.07,0,0,0,.86-.37,2.18,2.18,0,0,1,2.1,0l.31.14c3,1.23,6.86-1.22,8.58-5.46S518.05,229,515,227.78Z" transform="translate(-64.33 -36.83)"/><path class="cls-22" d="M518,231.56a2.42,2.42,0,0,0-4.61-.3,11.56,11.56,0,0,1-10.72,7.24h-.05a2.23,2.23,0,0,0-1.36,4.05,4.62,4.62,0,0,0,5.17.46,2.18,2.18,0,0,1,2.1,0l.31.14c3,1.23,6.86-1.22,8.58-5.46A10.42,10.42,0,0,0,518,231.56Z" transform="translate(-64.33 -36.83)"/><path class="cls-23" d="M509.45,225.05c-.17.34-.78.37-1.36.08s-.9-.82-.72-1.16.78-.37,1.36-.07S509.63,224.72,509.45,225.05Z" transform="translate(-64.33 -36.83)"/><path class="cls-11" d="M509.5,213.35c-2.47,2.47-7.12,1.83-7.12,1.83s-.64-4.65,1.83-7.12,7.12-1.83,7.12-1.83S512,210.88,509.5,213.35Z" transform="translate(-64.33 -36.83)"/><path class="cls-10" d="M503.64,209.09c0-.13,0-.26,0-.39-1.84,2.55-1.3,6.48-1.3,6.48s4.65.64,7.12-1.83a6.05,6.05,0,0,0,1.35-2.21.68.68,0,0,0-1-.79,8.11,8.11,0,0,1-3.79,1.12A2.24,2.24,0,0,1,503.64,209.09Z" transform="translate(-64.33 -36.83)"/><path class="cls-20" d="M503.76,210.13a1.86,1.86,0,0,0-.18.23c-.07.1-.13.2-.19.3a6.94,6.94,0,0,0-.78,2.05,6.34,6.34,0,0,0-.13,1.51,7.5,7.5,0,0,0,.21,1.55l-.59.24a7.93,7.93,0,0,1-1-3.39,8.65,8.65,0,0,1,.1-1.83c0-.31.12-.61.2-.92.05-.15.09-.3.15-.45a3.45,3.45,0,0,1,.2-.5Z" transform="translate(-64.33 -36.83)"/><path class="cls-21" d="M509.34,212.85a5.05,5.05,0,0,0-4.31.41,6.66,6.66,0,0,1-6.32-.18,4.86,4.86,0,0,0-3.72-.47c-3.11.95-4.55,5.27-3.21,9.65s5,7.15,8.07,6.19a3.78,3.78,0,0,0,.85-.37,2.2,2.2,0,0,1,2.1,0l.31.14c3,1.22,6.86-1.22,8.58-5.46S512.36,214.08,509.34,212.85Z" transform="translate(-64.33 -36.83)"/><path class="cls-22" d="M512.27,216.64a2.42,2.42,0,0,0-4.61-.31,11.55,11.55,0,0,1-10.72,7.25h-.05a2.23,2.23,0,0,0-1.35,4,5,5,0,0,0,4.31.82,3.78,3.78,0,0,0,.85-.37,2.2,2.2,0,0,1,2.1,0l.31.14c3,1.22,6.86-1.22,8.58-5.46A10.43,10.43,0,0,0,512.27,216.64Z" transform="translate(-64.33 -36.83)"/><path class="cls-23" d="M503.75,210.13c-.17.34-.78.37-1.36.07s-.9-.81-.72-1.15.78-.37,1.36-.07S503.93,209.79,503.75,210.13Z" transform="translate(-64.33 -36.83)"/><path class="cls-11" d="M488.26,214.54c-2.47,2.47-7.11,1.83-7.11,1.83s-.64-4.65,1.83-7.12,7.11-1.83,7.11-1.83S490.73,212.07,488.26,214.54Z" transform="translate(-64.33 -36.83)"/><path class="cls-10" d="M482.41,210.28l0-.39c-1.83,2.55-1.29,6.48-1.29,6.48s4.64.64,7.11-1.83a5.84,5.84,0,0,0,1.35-2.21.68.68,0,0,0-1-.79,8.21,8.21,0,0,1-3.79,1.13A2.24,2.24,0,0,1,482.41,210.28Z" transform="translate(-64.33 -36.83)"/><path class="cls-20" d="M482.52,211.32a1.47,1.47,0,0,0-.18.24l-.18.29a6.59,6.59,0,0,0-.33.65,6.18,6.18,0,0,0-.45,1.4,5.86,5.86,0,0,0-.14,1.51,6.9,6.9,0,0,0,.22,1.55l-.6.24a8,8,0,0,1-.67-1.62,7.44,7.44,0,0,1-.29-1.77A8,8,0,0,1,480,212a7,7,0,0,1,.2-.91c0-.16.09-.31.14-.46a5.17,5.17,0,0,1,.2-.5Z" transform="translate(-64.33 -36.83)"/><path class="cls-21" d="M488.11,214a5.05,5.05,0,0,0-4.31.41,6.68,6.68,0,0,1-6.33-.18,4.83,4.83,0,0,0-3.71-.47c-3.12.95-4.55,5.27-3.21,9.65s4.95,7.15,8.06,6.19a4,4,0,0,0,.85-.36,2.2,2.2,0,0,1,2.11,0l.31.14c3,1.22,6.85-1.22,8.57-5.46S491.12,215.27,488.11,214Z" transform="translate(-64.33 -36.83)"/><path class="cls-22" d="M491,217.83a2.42,2.42,0,0,0-4.62-.3,11.54,11.54,0,0,1-10.71,7.24h-.06a2.23,2.23,0,0,0-1.35,4,5,5,0,0,0,4.31.82,3.59,3.59,0,0,0,.85-.37,2.22,2.22,0,0,1,2.11,0l.31.14c3,1.22,6.85-1.22,8.57-5.46A10.43,10.43,0,0,0,491,217.83Z" transform="translate(-64.33 -36.83)"/><path class="cls-23" d="M482.52,211.32c-.18.34-.78.37-1.36.07s-.9-.81-.73-1.15.79-.37,1.36-.07S482.69,211,482.52,211.32Z" transform="translate(-64.33 -36.83)"/><path class="cls-11" d="M476.31,199.86c-1.54,3.14-6.14,4-6.14,4s-2.11-4.19-.58-7.33,6.14-4,6.14-4S477.84,196.72,476.31,199.86Z" transform="translate(-64.33 -36.83)"/><path class="cls-10" d="M469.39,197.73c0-.12-.07-.25-.1-.38-.91,3,.88,6.55.88,6.55s4.6-.9,6.14-4a6.08,6.08,0,0,0,.56-2.53.68.68,0,0,0-1.21-.41,8.34,8.34,0,0,1-3.23,2.29A2.23,2.23,0,0,1,469.39,197.73Z" transform="translate(-64.33 -36.83)"/><path class="cls-20" d="M469.83,198.68a.91.91,0,0,0-.09.28,3.38,3.38,0,0,0-.08.34c-.05.23-.08.47-.11.72a7.24,7.24,0,0,0,0,1.47A6.34,6.34,0,0,0,470,203a7,7,0,0,0,.7,1.39l-.48.43a8.06,8.06,0,0,1-1.16-1.31,7.61,7.61,0,0,1-.86-1.59,8.05,8.05,0,0,1-.49-1.76c-.05-.31-.09-.62-.11-.93,0-.16,0-.32,0-.48a3.45,3.45,0,0,1,0-.53Z" transform="translate(-64.33 -36.83)"/><path class="cls-21" d="M476,199.44a5,5,0,0,0-3.95,1.79,6.67,6.67,0,0,1-6,1.87,4.85,4.85,0,0,0-3.67.77c-2.63,1.91-2.59,6.46.1,10.16s7,5.16,9.63,3.25a4.13,4.13,0,0,0,.69-.63,2.19,2.19,0,0,1,2-.69l.33,0c3.25.18,6.09-3.38,6.35-8S479.25,199.62,476,199.44Z" transform="translate(-64.33 -36.83)"/><path class="cls-22" d="M480,202.07a2.42,2.42,0,0,0-4.47,1.21,11.54,11.54,0,0,1-7.79,10.33l-.05,0a2.23,2.23,0,0,0,0,4.27,5.06,5.06,0,0,0,4.34-.62,4.61,4.61,0,0,0,.69-.63,2.18,2.18,0,0,1,2-.69l.34,0c3.25.18,6.09-3.38,6.35-8A10.58,10.58,0,0,0,480,202.07Z" transform="translate(-64.33 -36.83)"/><path class="cls-23" d="M469.83,198.68c-.06.38-.62.6-1.26.51s-1.12-.48-1.07-.86.63-.6,1.27-.51S469.89,198.3,469.83,198.68Z" transform="translate(-64.33 -36.83)"/><path class="cls-24" d="M524.61,232.3c-.24-5.65-.57-11.22-1-16.37h-.43v-4.16h-6.71v4.16H473.12v-4.16H466.4v4.16h-8.08V232.3h8.08V237h-8.08v1.14c.31,2.33.66,5.21,1,8.93a16,16,0,0,1-1,6.3h66.77c-.06-5.24-.18-10.8-.38-16.37h-1.62V232.3ZM516.46,237H473.12V232.3h43.34Z" transform="translate(-64.33 -36.83)"/><rect class="cls-23" x="393.21" y="172.92" width="6.71" height="39.83"/><rect class="cls-23" x="443.26" y="172.92" width="6.71" height="39.83"/><rect class="cls-20" x="385.13" y="198.14" width="72.19" height="16.37"/><rect class="cls-20" x="385.13" y="177.08" width="72.19" height="16.37"/><path class="cls-25" d="M467.57,223.68s8.53,1.4,7.67-1.12-11.55-1.78-12.81,0,13.73,5.81,25.14,2.88" transform="translate(-64.33 -36.83)"/><path class="cls-25" d="M516.88,222.1a31.64,31.64,0,0,0-21.16-3.5c-7.15,1.4-28,.63-36.37-6" transform="translate(-64.33 -36.83)"/><path class="cls-19" d="M485.67,245.38c-4.94-1.1-13.28-5.54-21.22-9.43s-11.81-7.88-18.88-10.33c-13.52-4.67-17.42,4.56-17.42,4.56s-5,10.73,11.59,16c12.9,4.09,34.81,8.12,44.51,7.37,0,.08,3.52.1,4.3.09Z" transform="translate(-64.33 -36.83)"/><path class="cls-11" d="M592.86,120.79c-2.47,2.47-7.12,1.83-7.12,1.83s-.64-4.65,1.83-7.12,7.12-1.83,7.12-1.83S595.33,118.32,592.86,120.79Z" transform="translate(-64.33 -36.83)"/><path class="cls-10" d="M587,116.53c0-.13,0-.26,0-.39-1.84,2.55-1.3,6.48-1.3,6.48s4.65.64,7.12-1.83a6,6,0,0,0,1.35-2.21.68.68,0,0,0-1-.79,8.25,8.25,0,0,1-3.79,1.13A2.25,2.25,0,0,1,587,116.53Z" transform="translate(-64.33 -36.83)"/><path class="cls-20" d="M587.12,117.57a1.47,1.47,0,0,0-.18.24,2.9,2.9,0,0,0-.19.29,6.59,6.59,0,0,0-.33.65,6.73,6.73,0,0,0-.45,1.4,6.34,6.34,0,0,0-.13,1.51,7.5,7.5,0,0,0,.21,1.55l-.59.24a7.93,7.93,0,0,1-1-3.39,8.65,8.65,0,0,1,.1-1.83,9.21,9.21,0,0,1,.2-.91c.05-.16.09-.31.15-.46a3.45,3.45,0,0,1,.2-.5Z" transform="translate(-64.33 -36.83)"/><path class="cls-21" d="M592.7,120.29a5,5,0,0,0-4.31.42,6.69,6.69,0,0,1-6.32-.19,4.86,4.86,0,0,0-3.72-.47c-3.11,1-4.55,5.28-3.21,9.65s5,7.15,8.07,6.2a5,5,0,0,0,.85-.37,2.18,2.18,0,0,1,2.1,0l.31.14c3,1.22,6.86-1.22,8.58-5.46S595.72,121.52,592.7,120.29Z" transform="translate(-64.33 -36.83)"/><path class="cls-22" d="M595.63,124.08a2.42,2.42,0,0,0-4.61-.3A11.56,11.56,0,0,1,580.3,131h0a2.23,2.23,0,0,0-1.35,4,5,5,0,0,0,4.31.83,5,5,0,0,0,.85-.37,2.18,2.18,0,0,1,2.1,0l.31.14c3,1.22,6.86-1.22,8.58-5.46A10.43,10.43,0,0,0,595.63,124.08Z" transform="translate(-64.33 -36.83)"/><path class="cls-23" d="M587.11,117.57c-.17.34-.78.37-1.36.07s-.9-.81-.72-1.15.78-.37,1.36-.07S587.29,117.23,587.11,117.57Z" transform="translate(-64.33 -36.83)"/><path class="cls-15" d="M452.1,329.46c7.47,1.22,27.57,4.22,44.13,4.22a82.34,82.34,0,0,0,13.41-.92,104.83,104.83,0,0,0,20.7-5.72l-.13-1a103.36,103.36,0,0,1-20.74,5.75c-16.78,2.85-47.68-1.74-57.26-3.31Z" transform="translate(-64.33 -36.83)"/><path class="cls-16" d="M504.48,151.38l.53-3.16,1.32-8.2-4-2.05.07,7.39a9.69,9.69,0,0,1,1.2,7c-1.66,5.51-7.43,10.16-15.5,7.37a27.38,27.38,0,0,1-3.08-1.28,9.42,9.42,0,0,1-5.19-10.25c.65-3.18,2.39-2.68,2.39-2.68v-9.08l-3.3,4.3.14,7.65a24.35,24.35,0,0,1-.72,6.36c-3.14,12.58,7.29,16.34,7.29,16.34-.3,4.2,8.58,7.46,8.58,7.46-.79-2,2.07-3.47,2.07-3.47,9.6-.55,7.27-11.72,7.27-11.72C507.45,160.05,505.48,153.83,504.48,151.38Z" transform="translate(-64.33 -36.83)"/><path class="cls-16" d="M496,155.48a15.41,15.41,0,0,0-8.9,1c-2,.88-3.94,2.18-3.41,3.87,1.07,3.39,6.41-3.24,8.37-3s7.4,2.9,7.4,2.9S502.28,156.67,496,155.48Z" transform="translate(-64.33 -36.83)"/><path class="cls-26" d="M491.75,155.68a15,15,0,0,0-7.16.83" transform="translate(-64.33 -36.83)"/><path class="cls-26" d="M492.89,155.47s4.21-.35,6.4.29" transform="translate(-64.33 -36.83)"/><path class="cls-26" d="M478.6,155.38s-2.6,5.13-2,7.44a8,8,0,0,0,2.81,3.88" transform="translate(-64.33 -36.83)"/><path class="cls-26" d="M503,163.48s2.3,4.83,1,7.23-5.94,3.18-5.94,3.18" transform="translate(-64.33 -36.83)"/><path class="cls-18" d="M520.8,210.46a72.45,72.45,0,0,0-6.49-15.72h0l4.18,3.73,5.73-8.85h0a6.79,6.79,0,0,0,6.4,7.41l19.27,1-28,3.92s1.78,13.5,2.16,20.15Z" transform="translate(-64.33 -36.83)"/><path class="cls-18" d="M513.12,183.75,515.3,173l13,1S515.14,176.16,513.12,183.75Z" transform="translate(-64.33 -36.83)"/><path class="cls-9" d="M509.71,199.44c-2.07-9,2.94-26.21,3.17-27l4.12.11c0,.18-5.22,18-3.39,26Z" transform="translate(-64.33 -36.83)"/><path class="cls-27" d="M476.27,271.22s35.52-7.29,36.28-1.92-28.87,5.09-26.93,9.85,21.2,2.56,21.2,2.56" transform="translate(-64.33 -36.83)"/><path class="cls-19" d="M494.27,247.68l0-.06a13.34,13.34,0,0,1,3.78-3.89l.07,0a1.88,1.88,0,0,0,.78-1.72h0a1.87,1.87,0,0,0-2.85-1.38l-3.23,2a5,5,0,0,1-2.29.74,12.83,12.83,0,0,0-7,2.58c-2,1.52,1.61,6.29,1.61,6.29,1.42,1.45,4.64,4.14,8.54,3.46,5.29-.92,12.85-4.36,12.85-4.36H496.23A2.36,2.36,0,0,1,494.27,247.68Z" transform="translate(-64.33 -36.83)"/><line class="cls-28" x1="341.98" y1="379.74" x2="341.98" y2="382.93"/><line class="cls-28" x1="344.45" y1="379.09" x2="345.51" y2="382.27"/><line class="cls-28" x1="346.94" y1="378" x2="348.92" y2="380.53"/><line class="cls-28" x1="349.22" y1="376.25" x2="352.22" y2="377.65"/><line class="cls-28" x1="351.48" y1="374.01" x2="355.05" y2="374.01"/><line class="cls-28" x1="353.26" y1="371.21" x2="356.68" y2="371.21"/><line class="cls-28" x1="436.55" y1="377.32" x2="443.06" y2="377.32"/><line class="cls-28" x1="436.55" y1="374.32" x2="442.06" y2="374.32"/><line class="cls-28" x1="436.14" y1="371.32" x2="441.64" y2="371.32"/><line class="cls-28" x1="436.14" y1="368.32" x2="441.64" y2="368.32"/><line class="cls-28" x1="435.81" y1="365.32" x2="441.31" y2="365.32"/></g><g class="cls-3"><ellipse class="cls-13" cx="318.38" cy="356.03" rx="26.56" ry="6.32"/><line class="cls-29" x1="318.16" y1="352.64" x2="324.52" y2="352.64"/><polyline class="cls-29" points="319.81 353.8 322.29 352.64 324.52 345.86"/><polyline class="cls-29" points="330.87 345.37 330.46 353.38 327.9 354.54"/><line class="cls-29" x1="325.66" y1="353.47" x2="332.13" y2="353.47"/><path class="cls-13" d="M407,364.14c-.06-13-8.5-18.06-13.68-18.75a6.11,6.11,0,0,1-5.49-5.49c-2.84,1.3-2.62,8.48-.74,13.45,1.27,3.35-14.88,21.11-15.87,22.14-6.32,6.61-.36,10.47-.36,10.47l2.73-.58s1.77-1.26,6.24-2a47.77,47.77,0,0,0,6.92-.85,2.22,2.22,0,0,0,1.77,1.05,2.5,2.5,0,0,0,2.22-2c.6-.18,1.22-.37,1.84-.58a2.67,2.67,0,0,0,2.33,2.64c1.31,0,2.37-1.37,2.37-3.06v0a2.53,2.53,0,0,1,1.2-2.23C403.26,375.49,407.05,371.06,407,364.14Z" transform="translate(-64.33 -36.83)"/><path class="cls-21" d="M371.15,378.84a6.75,6.75,0,0,1-1.92,7.2c-1.08,1,0,3.22-1.48,3-5.08-.66-.81-5.55-.81-5.55s-3.74,3.63-4.43.58c-1-4.36,4.82-5,4.82-5s-2.92-.64-1.81-2.13C366.28,376,370,375.69,371.15,378.84Z" transform="translate(-64.33 -36.83)"/><path class="cls-15" d="M389.87,379.42c-.91-3.12-7.79-1.32-7.79-1.32s8.57-2.34,6.08-5.65-8.69,1-8.69,1,5.67-6.09,2-7.24c-2.24-.71-4.66,2.06-6.19,4.3a38.34,38.34,0,0,1-3.05,3.91c-.53.59-.89,1-1,1.1-6.32,6.61-.36,10.47-.36,10.47l2.73-.58a40.63,40.63,0,0,1,7.33-2.06C386.29,383.64,390.79,382.54,389.87,379.42Z" transform="translate(-64.33 -36.83)"/><path class="cls-22" d="M372.61,385.24a4.17,4.17,0,0,1,2.35,1.1c1.22,1.2,3.16-1.36,1.2-2.11A3.48,3.48,0,0,0,372.61,385.24Z" transform="translate(-64.33 -36.83)"/><path class="cls-30" d="M391.8,368.93s12.43-6.37,3.47-15.25-5.8,13.12-5.8,13.12" transform="translate(-64.33 -36.83)"/><path class="cls-21" d="M373,386.1a5.94,5.94,0,0,1,3.24-1.67c2.42-.39.93-4.44-1.56-2.92S373,386.1,373,386.1Z" transform="translate(-64.33 -36.83)"/><path class="cls-21" d="M372.1,385.88a1.88,1.88,0,1,0-2.38-1.2A1.89,1.89,0,0,0,372.1,385.88Z" transform="translate(-64.33 -36.83)"/><path class="cls-9" d="M372,388.39l-1-2.14h0l-.76-.8s2.53-1,3.36-.07a4.81,4.81,0,0,1-.91,3A.4.4,0,0,1,372,388.39Z" transform="translate(-64.33 -36.83)"/><path class="cls-15" d="M379.3,392a.91.91,0,1,1-1.82,0,.91.91,0,1,1,1.82,0Z" transform="translate(-64.33 -36.83)"/><path class="cls-15" d="M365.29,392.11a.74.74,0,1,1-.73-.74A.74.74,0,0,1,365.29,392.11Z" transform="translate(-64.33 -36.83)"/><path class="cls-15" d="M372.9,391.86a.7.7,0,1,1-.69-.7A.7.7,0,0,1,372.9,391.86Z" transform="translate(-64.33 -36.83)"/><path class="cls-15" d="M369.62,395.66a1.23,1.23,0,1,1-1.23-1.23A1.23,1.23,0,0,1,369.62,395.66Z" transform="translate(-64.33 -36.83)"/></g><g class="cls-3"><path class="cls-13" d="M319,407.2q-3.06,0-6.05.1a178.7,178.7,0,0,1-41.83-3.78c-9.06-1.85-21.53-3-35.29-3-1.72,0-3.43,0-5.11.05A146.6,146.6,0,0,1,200.33,398c-11.53-2.18-29.75-3.6-50.26-3.6-34.87,0-63.13,4.08-63.13,9.12s28.26,9.11,63.13,9.11c3.38,0,6.7,0,9.94-.12a123.53,123.53,0,0,1,35.62,4.54c9.15,2.52,23.74,4.16,40.18,4.16h.32a37.3,37.3,0,0,1,27,11c7.43,7.67,29.37,13.49,55.89,13.49,32.31,0,58.5-8.61,58.5-19.25S351.29,407.2,319,407.2Z" transform="translate(-64.33 -36.83)"/><path class="cls-21" d="M250.63,363.81a8.48,8.48,0,0,0,7.84-5.16c.73-1.67,1-3.55-.19-5-2.84-3.44-3.74,3.29-3.74,3.29s-1.49-6.73-5.08-5.09,0,7.3,0,7.3-4.34-2.13-4.49,0C244.86,360.72,246.43,363.73,250.63,363.81Z" transform="translate(-64.33 -36.83)"/><path class="cls-10" d="M224.64,378.58a5.89,5.89,0,0,0,5.17,1.12c-.07-.06-.15-.1-.23-.16-3.76-2.89-9.16-5.18-12.92-5.22A29,29,0,0,1,224.64,378.58Z" transform="translate(-64.33 -36.83)"/><line class="cls-29" x1="185.52" y1="377.7" x2="178.58" y2="377.7"/><polyline class="cls-29" points="183.72 378.96 181.01 377.69 178.58 370.29"/><polyline class="cls-29" points="171.64 369.76 172.09 378.51 174.89 379.77"/><line class="cls-29" x1="177.33" y1="378.6" x2="170.27" y2="378.6"/><path class="cls-11" d="M250.88,367.14h0a9.16,9.16,0,0,0-7.73,4.23c-4.24,6.68-8.55,10.57-13.23,8.23-6-3-15-4.19-16.95-.8a7.69,7.69,0,0,1,6.18,7.58,20.47,20.47,0,0,0,14.54,18.47c0,1.83,1.17,3.31,2.58,3.31a2.75,2.75,0,0,0,2.46-2.36c.68.06,1.38.1,2.1.11a2.78,2.78,0,0,0,2.41,2.18c1.24.06,2.08-1.58,2.6-2.5,12.57-1.85,20.45-11.56,16.38-22.94a61.08,61.08,0,0,1-2.36-8.23A9.15,9.15,0,0,0,250.88,367.14Z" transform="translate(-64.33 -36.83)"/><path class="cls-31" d="M262.22,382.65a61.08,61.08,0,0,1-2.36-8.23,9.14,9.14,0,0,0-11.49-6.92,9.13,9.13,0,0,1,6.45,6.92,61.08,61.08,0,0,0,2.36,8.23c4.07,11.38-3.81,21.09-16.38,22.94l-.18.31h.21a2.78,2.78,0,0,0,2.41,2.18c1.24.06,2.08-1.58,2.6-2.5C258.41,403.74,266.29,394,262.22,382.65Z" transform="translate(-64.33 -36.83)"/><path class="cls-22" d="M258.85,363a5.26,5.26,0,0,0,2.26,2.37c1.91,1-.38,4.32-2.05,2.27S258.85,363,258.85,363Z" transform="translate(-64.33 -36.83)"/><path class="cls-13" d="M259.16,369.34a15.85,15.85,0,0,1,.27-5.18l-.4-3.5s-6.95-5.57-12.37,4.58c-3.38,6.36-12.24,8.4-9.61,11.53,1.85,2.21,7.25-2.41,8.81-3.83v0c-1.5,1.55-6.32,6.93-4.52,10.07,2.75,4.76,9-5.11,9-5.11s-3.95,10.21,1.16,12.76,5.79-10.44,5.79-10.44-.46,10.41,4,10.77c3.68.31,1.53-9.34-.35-14.15A25.21,25.21,0,0,1,259.16,369.34Z" transform="translate(-64.33 -36.83)"/><path class="cls-32" d="M243.28,390.36s-9.58,14.76-19.54,2.4,17.17-5.59,17.17-5.59" transform="translate(-64.33 -36.83)"/><path class="cls-21" d="M260,363.15a7.5,7.5,0,0,0-.71,4.53c.49,3.05-4.94,2.88-4.1-.7S260,363.15,260,363.15Z" transform="translate(-64.33 -36.83)"/><path class="cls-21" d="M259.42,362.16a2.38,2.38,0,1,1-2.38-2.38A2.38,2.38,0,0,1,259.42,362.16Z" transform="translate(-64.33 -36.83)"/><path class="cls-9" d="M262.37,361l-2.94-.33h0l-1.26-.59s-.15,3.41,1.26,4.05a6.1,6.1,0,0,0,3.26-2.3A.5.5,0,0,0,262.37,361Z" transform="translate(-64.33 -36.83)"/><path class="cls-15" d="M260.38,413.81a1.16,1.16,0,1,1-1.16-1.15A1.16,1.16,0,0,1,260.38,413.81Z" transform="translate(-64.33 -36.83)"/><path class="cls-15" d="M269.19,408.68a.74.74,0,0,1-1,1,.75.75,0,0,1,0-1A.73.73,0,0,1,269.19,408.68Z" transform="translate(-64.33 -36.83)"/><circle class="cls-15" cx="211.85" cy="379.43" r="0.69"/><circle class="cls-15" cx="215.25" cy="371.59" r="1.22"/><circle class="cls-15" cx="203.67" cy="380.33" r="0.9"/><path class="cls-15" d="M290.19,416.93a1.14,1.14,0,1,1-1.14-1.14A1.14,1.14,0,0,1,290.19,416.93Z" transform="translate(-64.33 -36.83)"/><path class="cls-10" d="M343.42,176.91l1.54,2-2-.43A4.26,4.26,0,0,1,343.42,176.91Z" transform="translate(-64.33 -36.83)"/><path class="cls-15" d="M331.83,140a9.45,9.45,0,0,0,11.35-8.55c.46-6.56.15-13.89-3.37-14.87-6.52-1.8-17.72,7.85-24.52,7a4.28,4.28,0,0,0-4.26,1.94c-3,4.18-.38,10.08,4.65,11.12Z" transform="translate(-64.33 -36.83)"/><path class="cls-9" d="M359.47,126.59c-2.06-2.06-6.17-1.77-10.54-.59a82.38,82.38,0,0,1-29.05,2.23c-1-.09-2-.14-3-.14-15.28,0-27.66,10.47-27.66,23.39s12.38,23.38,27.66,23.38a29.63,29.63,0,0,0,21.73-8.93,64.42,64.42,0,0,1,10.31-9.36,35.42,35.42,0,0,0,4.75-4C362.43,143.8,365,132.16,359.47,126.59Z" transform="translate(-64.33 -36.83)"/><ellipse class="cls-15" cx="262.69" cy="114.18" rx="19.08" ry="12.49"/><path class="cls-16" d="M347.82,154.76c-1.23-4.59-5.17-5.85-5.63-10.89a5,5,0,0,1,.08-1.87,6.38,6.38,0,0,0-8.52-8,3.19,3.19,0,0,0-.8-2.2c-1.63-1.76-5.07-1.15-5.22-1.12l.14.74s3.17-.57,4.53.89A2.5,2.5,0,0,1,333,134a14.34,14.34,0,0,0-21.74,12.3s-.75,2-1.52,4.39a40.09,40.09,0,0,1-5.56,10.85,18.3,18.3,0,0,0-3,6.88,9.88,9.88,0,0,1-6.25,7.37A22,22,0,1,0,324,200.24a22.59,22.59,0,0,1,7.36-13.67A18.56,18.56,0,0,0,338,172.29v-.11C338,166.82,351.15,167.17,347.82,154.76Z" transform="translate(-64.33 -36.83)"/><polygon class="cls-19" points="292.14 205.8 286.79 187.48 302.83 181.63 310.04 202.81 292.14 205.8"/><path class="cls-19" d="M300.61,241.61l1.71-16.48a6.7,6.7,0,0,0-6.39-7.38h0a6.7,6.7,0,0,0-7,6.23l-1.08,15.63Z" transform="translate(-64.33 -36.83)"/><polygon class="cls-10" points="245.44 139.89 243.61 141.09 246.59 141.09 245.44 139.89"/><path class="cls-19" d="M304.83,416l1.35-8.08a40.91,40.91,0,0,0,.43-10c-2.22-27.8-4.48-53.13-6.31-74.23a10.92,10.92,0,0,1,10.89-11.86h0a10.93,10.93,0,0,1,10.9,11.67c-.78,11.41-1.77,23.14-2.78,34.1-2,22-4.75,41-5.82,48.16a24.36,24.36,0,0,0-.14,6.21l1.24,7.59c.18,1.12.72,3.11,1,4a2.94,2.94,0,0,1,.11.84v.42a3.15,3.15,0,0,1-3.15,3.16h-7.72a3.3,3.3,0,0,1-3-1.69,3.18,3.18,0,0,1,.08-3.07A21,21,0,0,0,304.83,416Z" transform="translate(-64.33 -36.83)"/><path class="cls-16" d="M321,337.77c-9.78,0-19.86-4-19.86-4-2.95-33.89-5.07-58.71-4.65-68.27a33.72,33.72,0,0,1,2.55-11.78c8-18.86,23-13.66,24.48,21.74.66,15.43-.67,39.15-2.52,62.34Z" transform="translate(-64.33 -36.83)"/><path class="cls-19" d="M331.15,337.07,327,323.38a11.45,11.45,0,0,1,9.85-14.73h0a11.47,11.47,0,0,1,12.55,10.68c.39,5.83.3,10.82.49,13.07.95,11.11-4.43,61.29-6,75.9a9.2,9.2,0,0,0,2.13,7c2.36,2.28,4.81,5.63,12.14,7.19.58.12,1.16.27,1.7.43a1.59,1.59,0,0,1-.09,3.07s-.64,2-15.06-1.08l-8.24-2c-3.12-1.27-2.46-5.55-1.69-8.84h0a35.45,35.45,0,0,0,2.33-16.53Z" transform="translate(-64.33 -36.83)"/><path class="cls-16" d="M322.92,310l24.33-2.37c.91,4.69,1.68,9.15,2.22,13.06.3,5.24.24,9.64.41,11.71,0,.19,0,.42,0,.63-1.62,1.13-14.22,4.69-18.59,5.9l-.18-1.86-.66-2.16.31-2.07s-.86-1.62-2.26-4.35Z" transform="translate(-64.33 -36.83)"/><path class="cls-18" d="M327.51,246.82l-1.41-.14c-.06.62-1.48,15.19,2.32,19.1a3.23,3.23,0,0,0,2.39,1.05h.26l-.1-1.41a1.82,1.82,0,0,1-1.53-.62" transform="translate(-64.33 -36.83)"/><path class="cls-18" d="M342,274.83a62.24,62.24,0,0,0-13.81,5.72,19.43,19.43,0,0,0-3.11,2.22,9.14,9.14,0,0,0-1.33,1.5,4,4,0,0,0-.78,2.05,3.51,3.51,0,0,0,.7,2.15,7.16,7.16,0,0,0,1.46,1.45,22,22,0,0,0,3.31,2c2.27,1.1,4.58,2,6.82,3a29,29,0,0,1,3.24,1.65c1,.62,2,1.39,2.17,2.29s-.75,1.83-1.53,2.74a19.65,19.65,0,0,1-2.7,2.45,18.61,18.61,0,0,1-6.55,3.28,17.43,17.43,0,0,0,7-2.72,19.75,19.75,0,0,0,2.94-2.38,18.23,18.23,0,0,0,1.31-1.43,2.8,2.8,0,0,0,.65-2.1,3.49,3.49,0,0,0-1-1.92,8.53,8.53,0,0,0-1.54-1.25,30.46,30.46,0,0,0-3.35-1.83c-2.26-1.06-4.57-2-6.76-3.07a19.52,19.52,0,0,1-3.09-1.8,3.39,3.39,0,0,1-1.66-2.44,4.52,4.52,0,0,1,1.61-2.7,22.37,22.37,0,0,1,2.85-2.22,53.82,53.82,0,0,1,6.45-3.57C337.38,276.78,339.66,275.8,342,274.83Z" transform="translate(-64.33 -36.83)"/><path class="cls-18" d="M328.76,248.51a1.34,1.34,0,1,0,1.34-1.34A1.34,1.34,0,0,0,328.76,248.51Z" transform="translate(-64.33 -36.83)"/><path class="cls-21" d="M347.51,217.11l3.61,16.22c4.71-.1,15.61-3,21.78-6.07-3.34-11-12-39.88-20.72-45.69-2.95-1.95-19.3-6.1-25.4-6.2-7.11-.13-27.55,4-28.76,5.16C279.27,198.94,278.36,237,278.36,237l23.71,1.69.4-2c.5,4.2.86,6.92.86,6.92h0l-.12.17c-18.86,29.37-15.33,87.27-15.33,87.27,21.28,3.41,54.67,4.17,74.5.64,4.12-21.24-8.28-62-18.14-97.84Z" transform="translate(-64.33 -36.83)"/><path class="cls-15" d="M342.19,241.3l.54.46.21.78c-2.85,2.83-11.17,5.36-20.88,5.36a50,50,0,0,1-19-3.58l.26-.64.41-.62C320.18,249.84,339,245.07,342.19,241.3Z" transform="translate(-64.33 -36.83)"/><path class="cls-19" d="M315.38,176.55a5.73,5.73,0,0,0-1.05,3.24c0,4.37,5.35,9.92,11.95,9.92s11.94-5.55,11.94-9.92a5.58,5.58,0,0,0-.76-2.77,62.77,62.77,0,0,0-10.68-1.65A76.11,76.11,0,0,0,315.38,176.55Z" transform="translate(-64.33 -36.83)"/><path class="cls-19" d="M331.64,171.81h-8.8l-1,7.38a5.24,5.24,0,1,0,10.41.36Z" transform="translate(-64.33 -36.83)"/><path class="cls-16" d="M322.85,171.73a5.22,5.22,0,0,0,9,3l-.59-8.08h-7.68Z" transform="translate(-64.33 -36.83)"/><path class="cls-19" d="M318.69,153.7c.13,2.1.25,4.73-1.59,4.85s-3.93-3.59-4.06-5.69,1-2.68,2.86-2.79S318.56,151.61,318.69,153.7Z" transform="translate(-64.33 -36.83)"/><path class="cls-19" d="M337.39,153.7c-.13,2.1-.24,4.73,1.6,4.85s3.92-3.59,4.05-5.69-1-2.68-2.86-2.79S337.52,151.61,337.39,153.7Z" transform="translate(-64.33 -36.83)"/><path class="cls-19" d="M340.38,153.73a20.91,20.91,0,0,1-8.3,17.15c-1.53,1.25-6.2,1.31-7.77.14-3.62-2.68-8.4-7.33-8.4-17.15,0-10.86,5.9-15.29,12.33-15.29S340.38,142.87,340.38,153.73Z" transform="translate(-64.33 -36.83)"/><path class="cls-16" d="M342.06,139.87c0-.32-.2-.59,0-.84l0-.06c1.07-1.43-1.9-6.23-7.13-4.88l-.06,0a9,9,0,0,1-5.59-.4,11.73,11.73,0,0,0-5.34-.66,7.22,7.22,0,0,0-5.78,3.75,17.15,17.15,0,0,0-1.51,1.22c-4.31,3.9-3.54,11.76-3.54,11.76h0a3.45,3.45,0,0,1,2.77,3.38v3.54a.62.62,0,0,0,1.23,0l.1-2.21a5.53,5.53,0,0,1,4.07-5,9.73,9.73,0,0,0,3.88-2.06,19.1,19.1,0,0,0,2.92-3.41c-1.42,4.78-6.38,8.37-6.38,8.37,7.33-1.42,10.89-7.28,12-9.46A11.49,11.49,0,0,1,338,147.4a10.32,10.32,0,0,1,1.37,5.18V157a.61.61,0,1,0,1.22,0v-2.22a3.36,3.36,0,0,1,.74-2.07C343.65,149.77,342,146.29,342.06,139.87Z" transform="translate(-64.33 -36.83)"/><path class="cls-33" d="M302.78,183.9s5.53,10.52,3.84,21.07" transform="translate(-64.33 -36.83)"/><path class="cls-33" d="M316.1,211.06s22.27-3.83,20.32,0-20.71,4.88-16.49,8.46S331.44,223,331.44,223" transform="translate(-64.33 -36.83)"/><path class="cls-33" d="M351.12,183.9s-6,11.47-3,30.08" transform="translate(-64.33 -36.83)"/><path class="cls-27" d="M349.56,225.84A105.89,105.89,0,0,0,366,220.15" transform="translate(-64.33 -36.83)"/><rect class="cls-11" x="240.53" y="172.52" width="40.24" height="37.32"/><path class="cls-11" d="M314.33,176.08l-4.56.64c1.45,3.93-.66,21-1.9,34.79h6.46C314.74,197.83,316.27,179,314.33,176.08Z" transform="translate(-64.33 -36.83)"/><rect class="cls-9" x="242.61" y="186.79" width="48.81" height="13.01"/><path class="cls-11" d="M343.42,176.91l-3.78-.54c-2.42,4.38-2.32,20.31-2.68,35.14h6.46C342.82,197.69,341.6,181.51,343.42,176.91Z" transform="translate(-64.33 -36.83)"/><path class="cls-22" d="M350.85,174.31a5.78,5.78,0,0,0,2.49,2.62c2.11,1.09-.41,4.77-2.27,2.51S350.85,174.31,350.85,174.31Z" transform="translate(-64.33 -36.83)"/><path class="cls-21" d="M341.76,175.18a9.38,9.38,0,0,0,8.67-5.69c.81-1.84,1.13-3.92-.22-5.55-3.13-3.8-4.12,3.63-4.12,3.63s-1.66-7.43-5.62-5.61,0,8,0,8-4.79-2.34-5,0C335.39,171.78,337.13,175.1,341.76,175.18Z" transform="translate(-64.33 -36.83)"/><path class="cls-6" d="M351,171.7s-7.71-6.16-13.65,5.07-11.89,19.15-18.5,15.85-16.51-4.62-18.71-.88a8.48,8.48,0,0,1,6.82,8.37c.22,7.26,6,21.28,24,21.57,17,.28,28.63-11.54,23.56-25.69s-3.08-20.42-3.08-20.42Z" transform="translate(-64.33 -36.83)"/><path class="cls-34" d="M338.05,181.83s-9,7.93-6.61,12.55,8.59-4.84,8.59-4.84-3.74,9.69,1.1,12.11,5.51-9.91,5.51-9.91-.44,9.88,3.74,10.22.44-12.86-1.32-15.5" transform="translate(-64.33 -36.83)"/><path class="cls-34" d="M333.65,204.51s-10.57,16.29-21.58,2.64S331,201,331,201" transform="translate(-64.33 -36.83)"/><path class="cls-21" d="M352.16,174.46a8.23,8.23,0,0,0-.78,5c.54,3.37-5.46,3.18-4.54-.78S352.16,174.46,352.16,174.46Z" transform="translate(-64.33 -36.83)"/><path class="cls-21" d="M351.47,173.36a2.62,2.62,0,1,1-2.62-2.62A2.62,2.62,0,0,1,351.47,173.36Z" transform="translate(-64.33 -36.83)"/><path class="cls-9" d="M354.73,172.11l-3.25-.36h0l-1.39-.65s-.17,3.77,1.39,4.47c1.12-.16,2.33-1.08,3.6-2.54A.55.55,0,0,0,354.73,172.11Z" transform="translate(-64.33 -36.83)"/><rect class="cls-20" x="238.72" y="170.51" width="6.71" height="39.83"/><rect class="cls-20" x="288.78" y="170.51" width="6.71" height="39.83"/><path class="cls-35" d="M346.87,243.35H309.35v57.13a3.4,3.4,0,0,0,2.6,3.3c13.57,3.3,28.77,3.47,47.39-2.94a3.48,3.48,0,0,0,1.52-1C357.81,282.58,352.22,262.58,346.87,243.35Z" transform="translate(-64.33 -36.83)"/><path class="cls-9" d="M339.47,208a16,16,0,0,1-16.1,1c-7.91-3.91-19.22-8.11-23.35-2.74-6.6,8.6,4.3,14.58,10.81,14.23s28.85-1.5,28.85-1.5,21.36,8,24-6.88C366,199,358,195.89,339.47,208Z" transform="translate(-64.33 -36.83)"/><path class="cls-11" d="M354.85,299.1c-18.63,6.41-33.83,6.24-47.4,2.93a3.39,3.39,0,0,1-2.59-3.29V241.61H345.1l12,53.5A3.44,3.44,0,0,1,354.85,299.1Z" transform="translate(-64.33 -36.83)"/><rect class="cls-23" x="238.72" y="170.51" width="6.71" height="39.83"/><rect class="cls-23" x="288.78" y="170.51" width="6.71" height="39.83"/><rect class="cls-20" x="230.64" y="195.73" width="72.19" height="16.37"/><rect class="cls-20" x="230.64" y="174.67" width="72.19" height="16.37"/><path class="cls-25" d="M313.09,221.27s8.53,1.4,7.66-1.12-11.54-1.77-12.81,0S321.67,226,333.09,223" transform="translate(-64.33 -36.83)"/><path class="cls-25" d="M362.39,219.69a31.65,31.65,0,0,0-21.15-3.49c-7.15,1.39-28,.62-36.38-6" transform="translate(-64.33 -36.83)"/><path class="cls-9" d="M308.88,147.16c2.49-5,9.66-8.64,18.14-8.64s15.66,3.63,18.15,8.64h12.9c5.06-7.69,5.88-16.09,1.4-20.57-2.06-2.06-6.17-1.77-10.54-.59a82.38,82.38,0,0,1-29.05,2.23c-1-.09-2-.14-3-.14-13.53,0-24.79,8.22-27.19,19.07Z" transform="translate(-64.33 -36.83)"/><path class="cls-19" d="M288.85,232.09c5.31.5,37.75,6.39,37.43,9.75s-35.75,5.83-41.07,5.33-7.48-5.62-7.16-9S283.53,231.59,288.85,232.09Z" transform="translate(-64.33 -36.83)"/><path class="cls-19" d="M331,242.75l-1.47.13-10.2,1.17-2.05-6.3,6.13-2.35,5.51-3.43a25.84,25.84,0,0,1,3.58-.87.57.57,0,0,1,.3,1,3.64,3.64,0,0,1-2.17.9l-2.25,1.3,5.65-1.65,2.9-.3a2.52,2.52,0,0,1,1.56.35l0,0a.45.45,0,0,1,.21.34.43.43,0,0,1-.14.38l0,0a2.43,2.43,0,0,1-1.45.66l-2.67.27-4.15,1.19a.21.21,0,0,0-.14.17.16.16,0,0,0,.06.12.14.14,0,0,0,.13,0L334,235l2.9-.3a2.46,2.46,0,0,1,1.56.36h0a.45.45,0,0,1,.21.34.46.46,0,0,1-.14.38l0,0a2.49,2.49,0,0,1-1.45.66l-2.67.27L330.1,238a.27.27,0,0,0-.1.47.29.29,0,0,0,.25.06l2.76-.83,2.88-.46a2.47,2.47,0,0,1,1.58.26l0,0a.44.44,0,0,1,.23.33.41.41,0,0,1-.12.38l0,0a2.55,2.55,0,0,1-1.41.74l-2.65.42-3.38,1.17a.12.12,0,0,0-.08.13.11.11,0,0,0,.1.1l.4.06,2.87-.45,1.9-.87a1.24,1.24,0,0,1,1.5.43.38.38,0,0,1-.16.6l-2.52,1.33Z" transform="translate(-64.33 -36.83)"/><rect class="cls-16" x="235.93" y="391.11" width="16.62" height="4.65"/><rect class="cls-16" x="268.14" y="387.43" width="28.46" height="4.65"/><polygon class="cls-15" points="252.55 360.78 238.72 360.78 240.2 376.99 235.93 391.11 252.55 391.11 252.55 360.78"/><path class="cls-9" d="M311.19,421.87h-4.75V397.75a1.94,1.94,0,0,1,1.94-1.95h3.73a2,2,0,0,1,1.95,1.95Z" transform="translate(-64.33 -36.83)"/><path class="cls-36" d="M305.28,417.6a8.2,8.2,0,0,1,7.35,0" transform="translate(-64.33 -36.83)"/><path class="cls-9" d="M308.57,417h0a8.31,8.31,0,0,0-8.31,8.31v2.67h16.62v-2.67A8.31,8.31,0,0,0,308.57,417Z" transform="translate(-64.33 -36.83)"/><line class="cls-36" x1="241.52" y1="377.81" x2="248.75" y2="375.13"/><line class="cls-36" x1="241.52" y1="372.81" x2="249.18" y2="369.97"/><line class="cls-36" x1="241.52" y1="366.81" x2="249.92" y2="363.7"/><line class="cls-36" x1="248.44" y1="377.81" x2="241.21" y2="375.13"/><line class="cls-36" x1="249.18" y1="372.81" x2="241.52" y2="369.97"/><line class="cls-36" x1="249.55" y1="366.81" x2="241.15" y2="363.7"/><path class="cls-15" d="M360.94,421.2a7.9,7.9,0,0,0-7.9-7.9h-5.21V395H332.47l1.73,17-1.73,12.35h15.36v0h13.11Z" transform="translate(-64.33 -36.83)"/><path class="cls-9" d="M355.39,413.66a8.3,8.3,0,0,0-5.92,7.94v2.67h11.47V421.2A7.91,7.91,0,0,0,355.39,413.66Z" transform="translate(-64.33 -36.83)"/><path class="cls-9" d="M341.05,394.75,343,409.7a7.64,7.64,0,0,0,6.43,6.59l5.79.89.6-3.38-1.44-.5a21.1,21.1,0,0,0-2.49-.63,4.59,4.59,0,0,1-3.59-4.9l1.16-13.09a1.69,1.69,0,0,0-1.68-1.83h-5A1.69,1.69,0,0,0,341.05,394.75Z" transform="translate(-64.33 -36.83)"/><path class="cls-36" d="M354.36,413.3s-1.64-.39-4.95,3.36" transform="translate(-64.33 -36.83)"/><line class="cls-36" x1="279.75" y1="375.94" x2="288.67" y2="375.83"/><line class="cls-36" x1="284.87" y1="373.71" x2="282.24" y2="378.74"/><line class="cls-36" x1="276.71" y1="369.34" x2="284.09" y2="371.39"/><line class="cls-36" x1="284.74" y1="367.79" x2="277.58" y2="372.81"/><line class="cls-36" x1="276.15" y1="362.84" x2="284.57" y2="366.21"/><line class="cls-36" x1="284.74" y1="362.4" x2="276.71" y2="366.81"/><path class="cls-19" d="M374.85,241.13c-.68-3.31-3.81-7-9.79-5.73-3.83.84-22.45,9.95-23.75,10.59a4.41,4.41,0,0,1,.09.84v5.66h1a5.05,5.05,0,0,1,.68.06h0c.08,0,18.19.1,24.43-2.41C371,248.7,375.93,246.45,374.85,241.13Z" transform="translate(-64.33 -36.83)"/><path class="cls-19" d="M341.24,246s-7.76-3.28-11.6-1.38a11.34,11.34,0,0,1-4.25,1,.49.49,0,0,0-.34.8h0a2.83,2.83,0,0,0,3,.86l1.13-.36S340.83,250.9,341.24,246Z" transform="translate(-64.33 -36.83)"/><path class="cls-19" d="M342.29,245.51l-6.14,1.92a30.28,30.28,0,0,1-8.5,1.38l-6.56.13s1.91,2.61,8.69,3.12c1.28.09,3.65.71,4.89.71,1.09,0,8.8-.22,8.8-.22Z" transform="translate(-64.33 -36.83)"/><path class="cls-33" d="M296.47,332.27s-6.59-41.89,3.79-79.5" transform="translate(-64.33 -36.83)"/><path class="cls-29" d="M296.47,200.41s15.13,1.9,23,9.78" transform="translate(-64.33 -36.83)"/><path class="cls-29" d="M286,207.34s6.87-5,14.28-3.58" transform="translate(-64.33 -36.83)"/><path class="cls-29" d="M309.77,200.41s4,2.77,9,6.93" transform="translate(-64.33 -36.83)"/><path class="cls-29" d="M323.72,203.88s-7.46,2.86-9.22,5.5" transform="translate(-64.33 -36.83)"/><path class="cls-29" d="M325.79,206.63s5.35,5.67,14.59,2.72" transform="translate(-64.33 -36.83)"/><path class="cls-29" d="M346.23,202s-6.34,4.64-7.53,7.84" transform="translate(-64.33 -36.83)"/><path class="cls-29" d="M365.25,201.23s-5.18-5.91-15.69,2.28" transform="translate(-64.33 -36.83)"/><path class="cls-29" d="M366.57,198.94a7.22,7.22,0,0,1-3.3,9.48" transform="translate(-64.33 -36.83)"/><path class="cls-29" d="M370.31,205.89s-5.71,2.55-7.92,4.89" transform="translate(-64.33 -36.83)"/><path class="cls-29" d="M368.22,216.2s-2.75-4.87-6.38-7.5" transform="translate(-64.33 -36.83)"/><line class="cls-29" x1="298.06" y1="177.15" x2="298.94" y2="170.51"/><path class="cls-29" d="M298,219.18l2.29-8.4c-1.24-3.33-8.44-4.15-8.44-4.15" transform="translate(-64.33 -36.83)"/><path class="cls-29" d="M303.06,214.94l-1.44-5.56s-6.42,1.54-8.5,6.38" transform="translate(-64.33 -36.83)"/><line class="cls-29" x1="302.02" y1="192.25" x2="286.8" y2="192.25"/><path class="cls-29" d="M370.31,226.55S358,229,355.22,232.84" transform="translate(-64.33 -36.83)"/><path class="cls-29" d="M364.09,234.15a9.38,9.38,0,0,0-7.21-4" transform="translate(-64.33 -36.83)"/><path class="cls-29" d="M296,233.19s11-3.89,14.88-3.06" transform="translate(-64.33 -36.83)"/><path class="cls-29" d="M290.72,228.53s13.49,1.1,17.26,5.62" transform="translate(-64.33 -36.83)"/><line class="cls-29" x1="239.15" y1="189.01" x2="235.85" y2="191.7"/><path class="cls-29" d="M344,231.1s6.34,1.18,7.15,7.23" transform="translate(-64.33 -36.83)"/><line class="cls-29" x1="277.62" y1="195.21" x2="277.33" y2="199.8"/><path class="cls-29" d="M349.2,229.08s4.39-3.06,4.94-4.55" transform="translate(-64.33 -36.83)"/><path class="cls-10" d="M304.86,294v1a90.14,90.14,0,0,0,23.08,3.07c8.89,0,19.07-1.45,28.43-6.22l-.23-1C335.11,301.73,309.77,295.4,304.86,294Z" transform="translate(-64.33 -36.83)"/><path class="cls-32" d="M318.76,254.71,320,267.19a5.51,5.51,0,0,0,5.8,5l10.38-.6a5.51,5.51,0,0,0,5.16-6.07l-1.12-10.78" transform="translate(-64.33 -36.83)"/></g><g class="cls-3"><path class="cls-10" d="M580.3,400.74c37-118.64,6.05-185.66,6.05-185.66l-9.86,185.66Z" transform="translate(-64.33 -36.83)"/><path class="cls-11" d="M644.11,216.18s-73.71,95.19-82.05,185.44h2.44c4.56-16.94,13.74-45.23,25.87-52.66C608,338.14,637.07,332,633.1,312.19h0a25.12,25.12,0,0,1,11.84-26.45c5.22-3.12,9.89-7.35,10.62-12.68a69.28,69.28,0,0,0-.38-16.74,23.31,23.31,0,0,1,11.3-22.9c6.55-3.89,12.86-10.16,12.86-19.9C679.34,193.26,652.21,205.05,644.11,216.18Z" transform="translate(-64.33 -36.83)"/><path class="cls-37" d="M644.11,216.18s-73.71,95.19-82.05,185.44h2.44c4.56-16.94,13.74-45.23,25.87-52.66C608,338.14,637.07,332,633.1,312.19h0a25.12,25.12,0,0,1,11.84-26.45c5.22-3.12,9.89-7.35,10.62-12.68a69.28,69.28,0,0,0-.38-16.74,23.31,23.31,0,0,1,11.3-22.9c6.55-3.89,12.86-10.16,12.86-19.9C679.34,193.26,652.21,205.05,644.11,216.18Z" transform="translate(-64.33 -36.83)"/><path class="cls-11" d="M547.17,323.28l11.63,81.35C567,357.22,547.17,323.28,547.17,323.28Z" transform="translate(-64.33 -36.83)"/><path class="cls-15" d="M540.42,399.54c7.58-5.63,19.65-11.47,30.11-2.47h0a21.32,21.32,0,0,0,19.27,2.71c3.58-1.22,7.48-1.86,10.25-.46a68.92,68.92,0,0,0,10.86,3.86,1.56,1.56,0,0,1-.43,3.06H542.64A3.72,3.72,0,0,1,540.42,399.54Z" transform="translate(-64.33 -36.83)"/></g></g></g></svg>